G04 #@! TF.FileFunction,Legend,Bot*
%FSLAX46Y46*%
G04 Gerber Fmt 4.6, Leading zero omitted, Abs format (unit mm)*
G04 Created by KiCad (PCBNEW (2015-01-16 BZR 5376)-product) date 12-May-17 12:05:33 PM*
%MOMM*%
G01*
G04 APERTURE LIST*
%ADD10C,0.100000*%
%ADD11C,0.300000*%
%ADD12C,0.150000*%
%ADD13C,0.010000*%
G04 APERTURE END LIST*
D10*
D11*
X54034571Y-61357144D02*
X55034571Y-61714287D01*
X54034571Y-62071429D01*
X53534571Y-62928572D02*
X53534571Y-63071429D01*
X53606000Y-63214286D01*
X53677429Y-63285715D01*
X53820286Y-63357144D01*
X54106000Y-63428572D01*
X54463143Y-63428572D01*
X54748857Y-63357144D01*
X54891714Y-63285715D01*
X54963143Y-63214286D01*
X55034571Y-63071429D01*
X55034571Y-62928572D01*
X54963143Y-62785715D01*
X54891714Y-62714286D01*
X54748857Y-62642858D01*
X54463143Y-62571429D01*
X54106000Y-62571429D01*
X53820286Y-62642858D01*
X53677429Y-62714286D01*
X53606000Y-62785715D01*
X53534571Y-62928572D01*
X54891714Y-64071429D02*
X54963143Y-64142857D01*
X55034571Y-64071429D01*
X54963143Y-64000000D01*
X54891714Y-64071429D01*
X55034571Y-64071429D01*
X53534571Y-64642858D02*
X53534571Y-65571429D01*
X54106000Y-65071429D01*
X54106000Y-65285715D01*
X54177429Y-65428572D01*
X54248857Y-65500001D01*
X54391714Y-65571429D01*
X54748857Y-65571429D01*
X54891714Y-65500001D01*
X54963143Y-65428572D01*
X55034571Y-65285715D01*
X55034571Y-64857143D01*
X54963143Y-64714286D01*
X54891714Y-64642858D01*
D12*
X45000000Y-52500000D02*
X45000000Y-107500000D01*
X132500000Y-50000000D02*
X47500000Y-50000000D01*
X135000000Y-107500000D02*
X135000000Y-52500000D01*
X47500000Y-110000000D02*
X132500000Y-110000000D01*
X45000000Y-107500000D02*
G75*
G03X47500000Y-110000000I2500000J0D01*
G01*
X132500000Y-110000000D02*
G75*
G03X135000000Y-107500000I0J2500000D01*
G01*
X135000000Y-52500000D02*
G75*
G03X132500000Y-50000000I-2500000J0D01*
G01*
X47500000Y-50000000D02*
G75*
G03X45000000Y-52500000I0J-2500000D01*
G01*
D13*
G36*
X110674846Y-80770598D02*
X110684422Y-80870641D01*
X110766844Y-81092513D01*
X110909795Y-81411683D01*
X111100959Y-81803618D01*
X111328022Y-82243788D01*
X111578666Y-82707660D01*
X111840576Y-83170704D01*
X112091007Y-83591400D01*
X112313079Y-83960914D01*
X112494698Y-84285857D01*
X112651193Y-84601556D01*
X112797891Y-84943339D01*
X112950121Y-85346532D01*
X113123213Y-85846462D01*
X113297796Y-86372644D01*
X113540992Y-87104092D01*
X113742849Y-87688726D01*
X113909696Y-88142218D01*
X114047860Y-88480243D01*
X114163667Y-88718471D01*
X114263446Y-88872576D01*
X114336955Y-88946567D01*
X114460558Y-89027751D01*
X114568713Y-89031669D01*
X114741294Y-88958769D01*
X114761684Y-88948953D01*
X114929195Y-88782254D01*
X115010240Y-88586733D01*
X114951933Y-88586733D01*
X114909600Y-88629067D01*
X114867266Y-88586733D01*
X114443933Y-88586733D01*
X114401600Y-88629067D01*
X114359266Y-88586733D01*
X114401600Y-88544400D01*
X114443933Y-88586733D01*
X114867266Y-88586733D01*
X114909600Y-88544400D01*
X114951933Y-88586733D01*
X115010240Y-88586733D01*
X115050197Y-88490339D01*
X115118613Y-88112424D01*
X115128368Y-87687729D01*
X115073388Y-87255471D01*
X115043400Y-87130322D01*
X114952189Y-86867074D01*
X114796481Y-86494652D01*
X114594928Y-86051392D01*
X114366183Y-85575631D01*
X114128897Y-85105708D01*
X113901722Y-84679959D01*
X113703311Y-84336721D01*
X113623961Y-84212820D01*
X113250759Y-83674108D01*
X112887985Y-83178216D01*
X112549304Y-82741519D01*
X112248378Y-82380390D01*
X111998869Y-82111202D01*
X111814441Y-81950329D01*
X111708758Y-81914146D01*
X111706771Y-81915266D01*
X111665229Y-81910271D01*
X111685410Y-81866827D01*
X111658508Y-81770447D01*
X111540905Y-81597284D01*
X111363835Y-81381218D01*
X111158530Y-81156131D01*
X110956224Y-80955903D01*
X110788150Y-80814415D01*
X110685541Y-80765547D01*
X110674846Y-80770598D01*
X110674846Y-80770598D01*
G37*
X110674846Y-80770598D02*
X110684422Y-80870641D01*
X110766844Y-81092513D01*
X110909795Y-81411683D01*
X111100959Y-81803618D01*
X111328022Y-82243788D01*
X111578666Y-82707660D01*
X111840576Y-83170704D01*
X112091007Y-83591400D01*
X112313079Y-83960914D01*
X112494698Y-84285857D01*
X112651193Y-84601556D01*
X112797891Y-84943339D01*
X112950121Y-85346532D01*
X113123213Y-85846462D01*
X113297796Y-86372644D01*
X113540992Y-87104092D01*
X113742849Y-87688726D01*
X113909696Y-88142218D01*
X114047860Y-88480243D01*
X114163667Y-88718471D01*
X114263446Y-88872576D01*
X114336955Y-88946567D01*
X114460558Y-89027751D01*
X114568713Y-89031669D01*
X114741294Y-88958769D01*
X114761684Y-88948953D01*
X114929195Y-88782254D01*
X115010240Y-88586733D01*
X114951933Y-88586733D01*
X114909600Y-88629067D01*
X114867266Y-88586733D01*
X114443933Y-88586733D01*
X114401600Y-88629067D01*
X114359266Y-88586733D01*
X114401600Y-88544400D01*
X114443933Y-88586733D01*
X114867266Y-88586733D01*
X114909600Y-88544400D01*
X114951933Y-88586733D01*
X115010240Y-88586733D01*
X115050197Y-88490339D01*
X115118613Y-88112424D01*
X115128368Y-87687729D01*
X115073388Y-87255471D01*
X115043400Y-87130322D01*
X114952189Y-86867074D01*
X114796481Y-86494652D01*
X114594928Y-86051392D01*
X114366183Y-85575631D01*
X114128897Y-85105708D01*
X113901722Y-84679959D01*
X113703311Y-84336721D01*
X113623961Y-84212820D01*
X113250759Y-83674108D01*
X112887985Y-83178216D01*
X112549304Y-82741519D01*
X112248378Y-82380390D01*
X111998869Y-82111202D01*
X111814441Y-81950329D01*
X111708758Y-81914146D01*
X111706771Y-81915266D01*
X111665229Y-81910271D01*
X111685410Y-81866827D01*
X111658508Y-81770447D01*
X111540905Y-81597284D01*
X111363835Y-81381218D01*
X111158530Y-81156131D01*
X110956224Y-80955903D01*
X110788150Y-80814415D01*
X110685541Y-80765547D01*
X110674846Y-80770598D01*
G36*
X109724215Y-81407825D02*
X109793547Y-81650024D01*
X109926187Y-82003128D01*
X110114066Y-82447821D01*
X110349112Y-82964786D01*
X110623254Y-83534707D01*
X110851630Y-83989127D01*
X110995525Y-84307818D01*
X111123560Y-84680867D01*
X111246273Y-85144215D01*
X111374200Y-85733796D01*
X111397744Y-85851794D01*
X111555706Y-86613852D01*
X111696361Y-87211568D01*
X111820838Y-87648927D01*
X111930265Y-87929911D01*
X112022251Y-88056270D01*
X112159286Y-88105553D01*
X112321091Y-88117778D01*
X112441347Y-88094507D01*
X112460174Y-88045959D01*
X112486416Y-87988506D01*
X112557885Y-87982459D01*
X112715757Y-87917225D01*
X112847758Y-87717491D01*
X112941954Y-87417516D01*
X112986410Y-87051558D01*
X112981027Y-86767821D01*
X112902892Y-86314391D01*
X112743214Y-85771295D01*
X112521109Y-85185039D01*
X112255694Y-84602123D01*
X111966085Y-84069050D01*
X111716434Y-83691560D01*
X111522370Y-83428955D01*
X111280789Y-83100533D01*
X111043928Y-82777309D01*
X111043504Y-82776729D01*
X110802135Y-82459268D01*
X110540804Y-82136236D01*
X110282174Y-81833111D01*
X110048910Y-81575372D01*
X109863675Y-81388499D01*
X109749132Y-81297969D01*
X109726264Y-81295847D01*
X109724215Y-81407825D01*
X109724215Y-81407825D01*
G37*
X109724215Y-81407825D02*
X109793547Y-81650024D01*
X109926187Y-82003128D01*
X110114066Y-82447821D01*
X110349112Y-82964786D01*
X110623254Y-83534707D01*
X110851630Y-83989127D01*
X110995525Y-84307818D01*
X111123560Y-84680867D01*
X111246273Y-85144215D01*
X111374200Y-85733796D01*
X111397744Y-85851794D01*
X111555706Y-86613852D01*
X111696361Y-87211568D01*
X111820838Y-87648927D01*
X111930265Y-87929911D01*
X112022251Y-88056270D01*
X112159286Y-88105553D01*
X112321091Y-88117778D01*
X112441347Y-88094507D01*
X112460174Y-88045959D01*
X112486416Y-87988506D01*
X112557885Y-87982459D01*
X112715757Y-87917225D01*
X112847758Y-87717491D01*
X112941954Y-87417516D01*
X112986410Y-87051558D01*
X112981027Y-86767821D01*
X112902892Y-86314391D01*
X112743214Y-85771295D01*
X112521109Y-85185039D01*
X112255694Y-84602123D01*
X111966085Y-84069050D01*
X111716434Y-83691560D01*
X111522370Y-83428955D01*
X111280789Y-83100533D01*
X111043928Y-82777309D01*
X111043504Y-82776729D01*
X110802135Y-82459268D01*
X110540804Y-82136236D01*
X110282174Y-81833111D01*
X110048910Y-81575372D01*
X109863675Y-81388499D01*
X109749132Y-81297969D01*
X109726264Y-81295847D01*
X109724215Y-81407825D01*
G36*
X108889968Y-81841458D02*
X108917478Y-82054995D01*
X109010236Y-82415219D01*
X109169072Y-82925670D01*
X109264045Y-83210400D01*
X109374956Y-83545621D01*
X109456000Y-83823574D01*
X109513042Y-84083817D01*
X109551945Y-84365908D01*
X109578574Y-84709405D01*
X109598793Y-85153866D01*
X109612821Y-85563122D01*
X109632755Y-86124306D01*
X109655827Y-86538547D01*
X109689379Y-86828184D01*
X109740755Y-87015556D01*
X109817297Y-87123000D01*
X109926350Y-87172857D01*
X110075257Y-87187463D01*
X110147100Y-87188437D01*
X110319928Y-87169261D01*
X110389959Y-87126233D01*
X110390975Y-87002280D01*
X110443593Y-86971400D01*
X110490846Y-86983609D01*
X110629898Y-86955925D01*
X110792878Y-86813912D01*
X110942636Y-86601171D01*
X111042021Y-86361307D01*
X111049927Y-86327431D01*
X111067385Y-86075976D01*
X111041897Y-85745244D01*
X110981915Y-85366696D01*
X110895888Y-84971793D01*
X110792265Y-84591996D01*
X110679496Y-84258767D01*
X110566032Y-84003565D01*
X110460321Y-83857853D01*
X110382827Y-83843612D01*
X110331260Y-83832677D01*
X110343139Y-83776830D01*
X110318112Y-83650718D01*
X110207034Y-83426430D01*
X110032371Y-83135780D01*
X109816586Y-82810586D01*
X109582146Y-82482661D01*
X109351516Y-82183823D01*
X109147159Y-81945887D01*
X108991542Y-81800669D01*
X108926876Y-81771067D01*
X108889968Y-81841458D01*
X108889968Y-81841458D01*
G37*
X108889968Y-81841458D02*
X108917478Y-82054995D01*
X109010236Y-82415219D01*
X109169072Y-82925670D01*
X109264045Y-83210400D01*
X109374956Y-83545621D01*
X109456000Y-83823574D01*
X109513042Y-84083817D01*
X109551945Y-84365908D01*
X109578574Y-84709405D01*
X109598793Y-85153866D01*
X109612821Y-85563122D01*
X109632755Y-86124306D01*
X109655827Y-86538547D01*
X109689379Y-86828184D01*
X109740755Y-87015556D01*
X109817297Y-87123000D01*
X109926350Y-87172857D01*
X110075257Y-87187463D01*
X110147100Y-87188437D01*
X110319928Y-87169261D01*
X110389959Y-87126233D01*
X110390975Y-87002280D01*
X110443593Y-86971400D01*
X110490846Y-86983609D01*
X110629898Y-86955925D01*
X110792878Y-86813912D01*
X110942636Y-86601171D01*
X111042021Y-86361307D01*
X111049927Y-86327431D01*
X111067385Y-86075976D01*
X111041897Y-85745244D01*
X110981915Y-85366696D01*
X110895888Y-84971793D01*
X110792265Y-84591996D01*
X110679496Y-84258767D01*
X110566032Y-84003565D01*
X110460321Y-83857853D01*
X110382827Y-83843612D01*
X110331260Y-83832677D01*
X110343139Y-83776830D01*
X110318112Y-83650718D01*
X110207034Y-83426430D01*
X110032371Y-83135780D01*
X109816586Y-82810586D01*
X109582146Y-82482661D01*
X109351516Y-82183823D01*
X109147159Y-81945887D01*
X108991542Y-81800669D01*
X108926876Y-81771067D01*
X108889968Y-81841458D01*
G36*
X108124783Y-82355340D02*
X108114706Y-82555491D01*
X108127105Y-82836512D01*
X108158861Y-83155400D01*
X108206861Y-83469148D01*
X108265230Y-83725246D01*
X108294633Y-83937195D01*
X108264652Y-84205586D01*
X108169758Y-84578109D01*
X108164123Y-84597241D01*
X108067756Y-84955023D01*
X107989137Y-85304476D01*
X107946684Y-85559900D01*
X107907549Y-85919733D01*
X108318241Y-85912719D01*
X108710390Y-85857121D01*
X109002718Y-85736399D01*
X109249844Y-85489070D01*
X109390428Y-85136092D01*
X109423036Y-84704577D01*
X109346239Y-84221638D01*
X109158605Y-83714386D01*
X109114181Y-83624972D01*
X108912024Y-83259593D01*
X108696492Y-82912541D01*
X108489169Y-82614274D01*
X108311637Y-82395249D01*
X108185478Y-82285923D01*
X108160449Y-82279067D01*
X108124783Y-82355340D01*
X108124783Y-82355340D01*
G37*
X108124783Y-82355340D02*
X108114706Y-82555491D01*
X108127105Y-82836512D01*
X108158861Y-83155400D01*
X108206861Y-83469148D01*
X108265230Y-83725246D01*
X108294633Y-83937195D01*
X108264652Y-84205586D01*
X108169758Y-84578109D01*
X108164123Y-84597241D01*
X108067756Y-84955023D01*
X107989137Y-85304476D01*
X107946684Y-85559900D01*
X107907549Y-85919733D01*
X108318241Y-85912719D01*
X108710390Y-85857121D01*
X109002718Y-85736399D01*
X109249844Y-85489070D01*
X109390428Y-85136092D01*
X109423036Y-84704577D01*
X109346239Y-84221638D01*
X109158605Y-83714386D01*
X109114181Y-83624972D01*
X108912024Y-83259593D01*
X108696492Y-82912541D01*
X108489169Y-82614274D01*
X108311637Y-82395249D01*
X108185478Y-82285923D01*
X108160449Y-82279067D01*
X108124783Y-82355340D01*
G36*
X103615994Y-82343725D02*
X103536347Y-82448400D01*
X103523464Y-82530136D01*
X103598662Y-82488857D01*
X103630504Y-82463067D01*
X103845417Y-82379666D01*
X104075888Y-82419701D01*
X104231126Y-82552024D01*
X104263960Y-82662328D01*
X104207337Y-82793219D01*
X104041955Y-82985096D01*
X104006940Y-83021260D01*
X103768080Y-83331794D01*
X103679865Y-83611273D01*
X103743216Y-83845822D01*
X103941062Y-84012559D01*
X104200303Y-84119556D01*
X104399899Y-84120616D01*
X104559100Y-84050285D01*
X104682265Y-83921064D01*
X104707266Y-83835048D01*
X104683330Y-83765179D01*
X104589605Y-83802995D01*
X104490193Y-83876860D01*
X104237481Y-83989963D01*
X103997466Y-83945220D01*
X103824382Y-83776279D01*
X103796145Y-83657022D01*
X103872762Y-83508066D01*
X104000666Y-83361144D01*
X104250864Y-83065809D01*
X104373682Y-82831859D01*
X104383301Y-82627754D01*
X104362260Y-82556766D01*
X104232913Y-82397230D01*
X104026874Y-82303487D01*
X103801961Y-82283123D01*
X103615994Y-82343725D01*
X103615994Y-82343725D01*
G37*
X103615994Y-82343725D02*
X103536347Y-82448400D01*
X103523464Y-82530136D01*
X103598662Y-82488857D01*
X103630504Y-82463067D01*
X103845417Y-82379666D01*
X104075888Y-82419701D01*
X104231126Y-82552024D01*
X104263960Y-82662328D01*
X104207337Y-82793219D01*
X104041955Y-82985096D01*
X104006940Y-83021260D01*
X103768080Y-83331794D01*
X103679865Y-83611273D01*
X103743216Y-83845822D01*
X103941062Y-84012559D01*
X104200303Y-84119556D01*
X104399899Y-84120616D01*
X104559100Y-84050285D01*
X104682265Y-83921064D01*
X104707266Y-83835048D01*
X104683330Y-83765179D01*
X104589605Y-83802995D01*
X104490193Y-83876860D01*
X104237481Y-83989963D01*
X103997466Y-83945220D01*
X103824382Y-83776279D01*
X103796145Y-83657022D01*
X103872762Y-83508066D01*
X104000666Y-83361144D01*
X104250864Y-83065809D01*
X104373682Y-82831859D01*
X104383301Y-82627754D01*
X104362260Y-82556766D01*
X104232913Y-82397230D01*
X104026874Y-82303487D01*
X103801961Y-82283123D01*
X103615994Y-82343725D01*
G36*
X102721975Y-82667294D02*
X102716923Y-82828485D01*
X102785632Y-83120071D01*
X102804657Y-83183958D01*
X102759016Y-83275685D01*
X102649418Y-83320595D01*
X102463600Y-83356673D01*
X102649117Y-83368203D01*
X102779035Y-83413040D01*
X102860706Y-83555463D01*
X102904490Y-83732969D01*
X102971162Y-83959575D01*
X103054306Y-84103065D01*
X103082499Y-84122255D01*
X103151880Y-84101567D01*
X103144775Y-83951794D01*
X103137554Y-83917186D01*
X103084869Y-83696432D01*
X103045065Y-83552546D01*
X103076089Y-83416100D01*
X103200303Y-83271697D01*
X103324772Y-83167583D01*
X103318672Y-83154036D01*
X103212897Y-83203167D01*
X103054226Y-83232915D01*
X102962597Y-83124479D01*
X102929670Y-82866666D01*
X102929266Y-82822475D01*
X102883351Y-82656812D01*
X102800653Y-82617733D01*
X102721975Y-82667294D01*
X102721975Y-82667294D01*
G37*
X102721975Y-82667294D02*
X102716923Y-82828485D01*
X102785632Y-83120071D01*
X102804657Y-83183958D01*
X102759016Y-83275685D01*
X102649418Y-83320595D01*
X102463600Y-83356673D01*
X102649117Y-83368203D01*
X102779035Y-83413040D01*
X102860706Y-83555463D01*
X102904490Y-83732969D01*
X102971162Y-83959575D01*
X103054306Y-84103065D01*
X103082499Y-84122255D01*
X103151880Y-84101567D01*
X103144775Y-83951794D01*
X103137554Y-83917186D01*
X103084869Y-83696432D01*
X103045065Y-83552546D01*
X103076089Y-83416100D01*
X103200303Y-83271697D01*
X103324772Y-83167583D01*
X103318672Y-83154036D01*
X103212897Y-83203167D01*
X103054226Y-83232915D01*
X102962597Y-83124479D01*
X102929670Y-82866666D01*
X102929266Y-82822475D01*
X102883351Y-82656812D01*
X102800653Y-82617733D01*
X102721975Y-82667294D01*
G36*
X96590353Y-82303592D02*
X96404367Y-82366712D01*
X96260727Y-82517722D01*
X96244986Y-82719292D01*
X96338195Y-82937668D01*
X96521401Y-83139096D01*
X96775655Y-83289825D01*
X96951596Y-83341359D01*
X97135447Y-83389470D01*
X97244565Y-83476303D01*
X97309806Y-83645899D01*
X97359137Y-83923050D01*
X97414360Y-84045867D01*
X97505339Y-84128301D01*
X97579169Y-84133688D01*
X97593247Y-84085289D01*
X97574170Y-83962807D01*
X97529650Y-83750406D01*
X97518361Y-83701066D01*
X97483694Y-83479790D01*
X97525275Y-83346295D01*
X97626214Y-83254120D01*
X97806933Y-83120842D01*
X97617794Y-83210205D01*
X97495417Y-83252542D01*
X97429211Y-83204159D01*
X97386064Y-83030869D01*
X97374139Y-82958651D01*
X97315989Y-82743373D01*
X97237346Y-82625868D01*
X97212362Y-82617733D01*
X97148981Y-82663328D01*
X97153711Y-82821044D01*
X97176171Y-82932856D01*
X97213941Y-83143542D01*
X97218420Y-83270550D01*
X97213531Y-83281691D01*
X97097514Y-83294971D01*
X96905653Y-83237946D01*
X96702361Y-83135187D01*
X96577113Y-83038913D01*
X96429890Y-82822960D01*
X96447411Y-82623047D01*
X96542981Y-82496781D01*
X96772295Y-82379885D01*
X97069910Y-82394318D01*
X97400976Y-82537121D01*
X97458985Y-82574567D01*
X97642971Y-82692815D01*
X97713869Y-82714400D01*
X97693960Y-82644389D01*
X97684254Y-82625806D01*
X97511637Y-82459851D01*
X97232589Y-82342897D01*
X96905898Y-82286843D01*
X96590353Y-82303592D01*
X96590353Y-82303592D01*
G37*
X96590353Y-82303592D02*
X96404367Y-82366712D01*
X96260727Y-82517722D01*
X96244986Y-82719292D01*
X96338195Y-82937668D01*
X96521401Y-83139096D01*
X96775655Y-83289825D01*
X96951596Y-83341359D01*
X97135447Y-83389470D01*
X97244565Y-83476303D01*
X97309806Y-83645899D01*
X97359137Y-83923050D01*
X97414360Y-84045867D01*
X97505339Y-84128301D01*
X97579169Y-84133688D01*
X97593247Y-84085289D01*
X97574170Y-83962807D01*
X97529650Y-83750406D01*
X97518361Y-83701066D01*
X97483694Y-83479790D01*
X97525275Y-83346295D01*
X97626214Y-83254120D01*
X97806933Y-83120842D01*
X97617794Y-83210205D01*
X97495417Y-83252542D01*
X97429211Y-83204159D01*
X97386064Y-83030869D01*
X97374139Y-82958651D01*
X97315989Y-82743373D01*
X97237346Y-82625868D01*
X97212362Y-82617733D01*
X97148981Y-82663328D01*
X97153711Y-82821044D01*
X97176171Y-82932856D01*
X97213941Y-83143542D01*
X97218420Y-83270550D01*
X97213531Y-83281691D01*
X97097514Y-83294971D01*
X96905653Y-83237946D01*
X96702361Y-83135187D01*
X96577113Y-83038913D01*
X96429890Y-82822960D01*
X96447411Y-82623047D01*
X96542981Y-82496781D01*
X96772295Y-82379885D01*
X97069910Y-82394318D01*
X97400976Y-82537121D01*
X97458985Y-82574567D01*
X97642971Y-82692815D01*
X97713869Y-82714400D01*
X97693960Y-82644389D01*
X97684254Y-82625806D01*
X97511637Y-82459851D01*
X97232589Y-82342897D01*
X96905898Y-82286843D01*
X96590353Y-82303592D01*
G36*
X100668043Y-82325948D02*
X100575533Y-82380667D01*
X100480732Y-82558263D01*
X100545127Y-82755161D01*
X100650155Y-82878622D01*
X100766002Y-83014633D01*
X100762486Y-83114021D01*
X100692488Y-83202788D01*
X100569843Y-83432167D01*
X100591349Y-83654055D01*
X100732993Y-83841106D01*
X100970760Y-83965974D01*
X101280637Y-84001313D01*
X101384100Y-83990364D01*
X101548382Y-83945301D01*
X101560195Y-83896516D01*
X101435422Y-83858482D01*
X101225018Y-83845400D01*
X100936355Y-83809339D01*
X100780842Y-83697233D01*
X100738299Y-83503992D01*
X100836078Y-83335629D01*
X101046038Y-83234185D01*
X101096306Y-83225943D01*
X101279701Y-83177050D01*
X101301799Y-83107025D01*
X101165562Y-83035883D01*
X101064499Y-83011013D01*
X100830636Y-82900863D01*
X100735583Y-82767596D01*
X100715738Y-82547526D01*
X100825952Y-82408822D01*
X101037722Y-82387028D01*
X101168037Y-82389818D01*
X101186041Y-82351502D01*
X101065372Y-82291323D01*
X100865825Y-82284089D01*
X100668043Y-82325948D01*
X100668043Y-82325948D01*
G37*
X100668043Y-82325948D02*
X100575533Y-82380667D01*
X100480732Y-82558263D01*
X100545127Y-82755161D01*
X100650155Y-82878622D01*
X100766002Y-83014633D01*
X100762486Y-83114021D01*
X100692488Y-83202788D01*
X100569843Y-83432167D01*
X100591349Y-83654055D01*
X100732993Y-83841106D01*
X100970760Y-83965974D01*
X101280637Y-84001313D01*
X101384100Y-83990364D01*
X101548382Y-83945301D01*
X101560195Y-83896516D01*
X101435422Y-83858482D01*
X101225018Y-83845400D01*
X100936355Y-83809339D01*
X100780842Y-83697233D01*
X100738299Y-83503992D01*
X100836078Y-83335629D01*
X101046038Y-83234185D01*
X101096306Y-83225943D01*
X101279701Y-83177050D01*
X101301799Y-83107025D01*
X101165562Y-83035883D01*
X101064499Y-83011013D01*
X100830636Y-82900863D01*
X100735583Y-82767596D01*
X100715738Y-82547526D01*
X100825952Y-82408822D01*
X101037722Y-82387028D01*
X101168037Y-82389818D01*
X101186041Y-82351502D01*
X101065372Y-82291323D01*
X100865825Y-82284089D01*
X100668043Y-82325948D01*
G36*
X104925516Y-82298265D02*
X104798089Y-82320971D01*
X104826569Y-82360311D01*
X104834266Y-82363733D01*
X105041277Y-82418025D01*
X105278766Y-82442449D01*
X105476227Y-82471041D01*
X105549794Y-82561870D01*
X105553933Y-82610808D01*
X105583423Y-82830971D01*
X105609471Y-82917946D01*
X105622220Y-83011124D01*
X105536043Y-83040323D01*
X105361410Y-83027232D01*
X105175706Y-83020243D01*
X105096681Y-83047427D01*
X105099202Y-83058761D01*
X105205098Y-83106971D01*
X105387984Y-83125733D01*
X105583662Y-83162173D01*
X105677484Y-83297331D01*
X105686818Y-83330703D01*
X105725805Y-83609834D01*
X105657248Y-83769691D01*
X105463951Y-83834218D01*
X105322225Y-83838369D01*
X105116269Y-83848737D01*
X105013718Y-83883112D01*
X105012336Y-83901869D01*
X105116076Y-83942575D01*
X105323317Y-83965893D01*
X105569014Y-83970736D01*
X105788122Y-83956015D01*
X105915596Y-83920644D01*
X105919739Y-83917038D01*
X105942648Y-83805548D01*
X105931340Y-83596369D01*
X105921649Y-83527409D01*
X105905291Y-83271741D01*
X105964480Y-83134864D01*
X105986232Y-83118400D01*
X106054346Y-83057556D01*
X105965975Y-83042363D01*
X105841156Y-82965049D01*
X105752540Y-82769348D01*
X105724423Y-82554233D01*
X105795227Y-82469410D01*
X105913766Y-82442449D01*
X106045671Y-82432502D01*
X106015009Y-82399374D01*
X105934933Y-82363733D01*
X105763381Y-82325510D01*
X105487190Y-82299157D01*
X105215266Y-82290968D01*
X104925516Y-82298265D01*
X104925516Y-82298265D01*
G37*
X104925516Y-82298265D02*
X104798089Y-82320971D01*
X104826569Y-82360311D01*
X104834266Y-82363733D01*
X105041277Y-82418025D01*
X105278766Y-82442449D01*
X105476227Y-82471041D01*
X105549794Y-82561870D01*
X105553933Y-82610808D01*
X105583423Y-82830971D01*
X105609471Y-82917946D01*
X105622220Y-83011124D01*
X105536043Y-83040323D01*
X105361410Y-83027232D01*
X105175706Y-83020243D01*
X105096681Y-83047427D01*
X105099202Y-83058761D01*
X105205098Y-83106971D01*
X105387984Y-83125733D01*
X105583662Y-83162173D01*
X105677484Y-83297331D01*
X105686818Y-83330703D01*
X105725805Y-83609834D01*
X105657248Y-83769691D01*
X105463951Y-83834218D01*
X105322225Y-83838369D01*
X105116269Y-83848737D01*
X105013718Y-83883112D01*
X105012336Y-83901869D01*
X105116076Y-83942575D01*
X105323317Y-83965893D01*
X105569014Y-83970736D01*
X105788122Y-83956015D01*
X105915596Y-83920644D01*
X105919739Y-83917038D01*
X105942648Y-83805548D01*
X105931340Y-83596369D01*
X105921649Y-83527409D01*
X105905291Y-83271741D01*
X105964480Y-83134864D01*
X105986232Y-83118400D01*
X106054346Y-83057556D01*
X105965975Y-83042363D01*
X105841156Y-82965049D01*
X105752540Y-82769348D01*
X105724423Y-82554233D01*
X105795227Y-82469410D01*
X105913766Y-82442449D01*
X106045671Y-82432502D01*
X106015009Y-82399374D01*
X105934933Y-82363733D01*
X105763381Y-82325510D01*
X105487190Y-82299157D01*
X105215266Y-82290968D01*
X104925516Y-82298265D01*
G36*
X99056077Y-82349584D02*
X98955764Y-82510032D01*
X98949933Y-82571755D01*
X99004725Y-82763228D01*
X99144150Y-83016983D01*
X99330782Y-83277936D01*
X99527195Y-83491001D01*
X99627287Y-83568728D01*
X99775394Y-83690415D01*
X99765799Y-83764774D01*
X99605181Y-83785136D01*
X99428648Y-83767116D01*
X99145286Y-83749408D01*
X98985898Y-83805395D01*
X98967216Y-83824576D01*
X98946444Y-83884586D01*
X99024615Y-83920264D01*
X99227631Y-83937789D01*
X99462167Y-83942602D01*
X99753101Y-83938047D01*
X99963454Y-83920986D01*
X100050258Y-83895029D01*
X100050600Y-83893157D01*
X99994725Y-83809647D01*
X99849252Y-83647030D01*
X99674604Y-83469311D01*
X99351051Y-83110085D01*
X99180827Y-82816825D01*
X99162619Y-82586513D01*
X99236594Y-82464120D01*
X99344099Y-82376650D01*
X99452680Y-82374880D01*
X99631265Y-82459937D01*
X99651337Y-82470908D01*
X99923600Y-82620178D01*
X99723720Y-82449622D01*
X99484279Y-82312398D01*
X99246990Y-82281379D01*
X99056077Y-82349584D01*
X99056077Y-82349584D01*
G37*
X99056077Y-82349584D02*
X98955764Y-82510032D01*
X98949933Y-82571755D01*
X99004725Y-82763228D01*
X99144150Y-83016983D01*
X99330782Y-83277936D01*
X99527195Y-83491001D01*
X99627287Y-83568728D01*
X99775394Y-83690415D01*
X99765799Y-83764774D01*
X99605181Y-83785136D01*
X99428648Y-83767116D01*
X99145286Y-83749408D01*
X98985898Y-83805395D01*
X98967216Y-83824576D01*
X98946444Y-83884586D01*
X99024615Y-83920264D01*
X99227631Y-83937789D01*
X99462167Y-83942602D01*
X99753101Y-83938047D01*
X99963454Y-83920986D01*
X100050258Y-83895029D01*
X100050600Y-83893157D01*
X99994725Y-83809647D01*
X99849252Y-83647030D01*
X99674604Y-83469311D01*
X99351051Y-83110085D01*
X99180827Y-82816825D01*
X99162619Y-82586513D01*
X99236594Y-82464120D01*
X99344099Y-82376650D01*
X99452680Y-82374880D01*
X99631265Y-82459937D01*
X99651337Y-82470908D01*
X99923600Y-82620178D01*
X99723720Y-82449622D01*
X99484279Y-82312398D01*
X99246990Y-82281379D01*
X99056077Y-82349584D01*
G36*
X95685531Y-82926862D02*
X95685852Y-82977567D01*
X95727172Y-83134043D01*
X95773186Y-83331019D01*
X95801042Y-83494422D01*
X95767359Y-83520588D01*
X95689676Y-83463910D01*
X95611126Y-83409073D01*
X95607381Y-83452392D01*
X95679707Y-83617967D01*
X95700033Y-83660791D01*
X95832842Y-83892996D01*
X95925731Y-83961417D01*
X95970918Y-83868525D01*
X95960619Y-83616790D01*
X95955775Y-83579583D01*
X95922949Y-83307212D01*
X95903881Y-83085371D01*
X95901933Y-83029249D01*
X95846791Y-82898562D01*
X95777590Y-82871733D01*
X95685531Y-82926862D01*
X95685531Y-82926862D01*
G37*
X95685531Y-82926862D02*
X95685852Y-82977567D01*
X95727172Y-83134043D01*
X95773186Y-83331019D01*
X95801042Y-83494422D01*
X95767359Y-83520588D01*
X95689676Y-83463910D01*
X95611126Y-83409073D01*
X95607381Y-83452392D01*
X95679707Y-83617967D01*
X95700033Y-83660791D01*
X95832842Y-83892996D01*
X95925731Y-83961417D01*
X95970918Y-83868525D01*
X95960619Y-83616790D01*
X95955775Y-83579583D01*
X95922949Y-83307212D01*
X95903881Y-83085371D01*
X95901933Y-83029249D01*
X95846791Y-82898562D01*
X95777590Y-82871733D01*
X95685531Y-82926862D01*
G36*
X92638808Y-82309806D02*
X92674171Y-82428511D01*
X92684600Y-82448400D01*
X92724544Y-82546399D01*
X92686480Y-82597008D01*
X92537399Y-82616010D01*
X92327745Y-82619030D01*
X92073606Y-82628918D01*
X91975882Y-82658728D01*
X92007266Y-82702400D01*
X92169933Y-82755190D01*
X92415675Y-82784039D01*
X92484225Y-82785770D01*
X92709158Y-82808340D01*
X92845427Y-82895509D01*
X92914198Y-83079538D01*
X92936641Y-83392689D01*
X92937444Y-83476508D01*
X92898316Y-83730400D01*
X92780313Y-83835133D01*
X92586195Y-83789038D01*
X92503820Y-83739032D01*
X92303600Y-83603105D01*
X92464889Y-83787752D01*
X92682077Y-83944489D01*
X92896087Y-83956977D01*
X93069098Y-83846718D01*
X93163293Y-83635215D01*
X93154033Y-83395934D01*
X93137306Y-83235497D01*
X93214385Y-83172314D01*
X93360063Y-83159051D01*
X93549170Y-83179479D01*
X93614460Y-83273039D01*
X93615933Y-83300722D01*
X93667946Y-83459721D01*
X93796797Y-83664029D01*
X93835126Y-83711904D01*
X94068176Y-83897027D01*
X94337116Y-83978533D01*
X94586081Y-83946156D01*
X94699666Y-83870800D01*
X94802776Y-83662271D01*
X94801195Y-83617520D01*
X94608795Y-83617520D01*
X94598732Y-83669823D01*
X94515922Y-83834282D01*
X94345456Y-83886769D01*
X94302020Y-83887733D01*
X94090224Y-83848389D01*
X93960870Y-83768288D01*
X93880118Y-83605828D01*
X93816855Y-83370995D01*
X93813110Y-83349176D01*
X93794286Y-83145010D01*
X93846806Y-83045294D01*
X93986351Y-82993824D01*
X94200798Y-82968779D01*
X94336143Y-82987226D01*
X94491899Y-83125727D01*
X94591956Y-83359668D01*
X94608795Y-83617520D01*
X94801195Y-83617520D01*
X94793682Y-83404970D01*
X94694013Y-83152068D01*
X94525397Y-82956733D01*
X94309461Y-82872134D01*
X94293266Y-82871733D01*
X94155686Y-82836277D01*
X94123933Y-82787067D01*
X94066442Y-82709327D01*
X93935508Y-82723598D01*
X93793434Y-82820665D01*
X93777946Y-82838220D01*
X93579204Y-82995010D01*
X93338886Y-83080803D01*
X93151002Y-83071966D01*
X93035563Y-82969549D01*
X93049142Y-82850974D01*
X93180065Y-82787621D01*
X93197597Y-82787067D01*
X93314667Y-82754473D01*
X93319600Y-82702400D01*
X93199778Y-82630428D01*
X93108642Y-82617733D01*
X92957237Y-82546807D01*
X92896266Y-82448400D01*
X92800905Y-82311079D01*
X92718249Y-82279067D01*
X92638808Y-82309806D01*
X92638808Y-82309806D01*
G37*
X92638808Y-82309806D02*
X92674171Y-82428511D01*
X92684600Y-82448400D01*
X92724544Y-82546399D01*
X92686480Y-82597008D01*
X92537399Y-82616010D01*
X92327745Y-82619030D01*
X92073606Y-82628918D01*
X91975882Y-82658728D01*
X92007266Y-82702400D01*
X92169933Y-82755190D01*
X92415675Y-82784039D01*
X92484225Y-82785770D01*
X92709158Y-82808340D01*
X92845427Y-82895509D01*
X92914198Y-83079538D01*
X92936641Y-83392689D01*
X92937444Y-83476508D01*
X92898316Y-83730400D01*
X92780313Y-83835133D01*
X92586195Y-83789038D01*
X92503820Y-83739032D01*
X92303600Y-83603105D01*
X92464889Y-83787752D01*
X92682077Y-83944489D01*
X92896087Y-83956977D01*
X93069098Y-83846718D01*
X93163293Y-83635215D01*
X93154033Y-83395934D01*
X93137306Y-83235497D01*
X93214385Y-83172314D01*
X93360063Y-83159051D01*
X93549170Y-83179479D01*
X93614460Y-83273039D01*
X93615933Y-83300722D01*
X93667946Y-83459721D01*
X93796797Y-83664029D01*
X93835126Y-83711904D01*
X94068176Y-83897027D01*
X94337116Y-83978533D01*
X94586081Y-83946156D01*
X94699666Y-83870800D01*
X94802776Y-83662271D01*
X94801195Y-83617520D01*
X94608795Y-83617520D01*
X94598732Y-83669823D01*
X94515922Y-83834282D01*
X94345456Y-83886769D01*
X94302020Y-83887733D01*
X94090224Y-83848389D01*
X93960870Y-83768288D01*
X93880118Y-83605828D01*
X93816855Y-83370995D01*
X93813110Y-83349176D01*
X93794286Y-83145010D01*
X93846806Y-83045294D01*
X93986351Y-82993824D01*
X94200798Y-82968779D01*
X94336143Y-82987226D01*
X94491899Y-83125727D01*
X94591956Y-83359668D01*
X94608795Y-83617520D01*
X94801195Y-83617520D01*
X94793682Y-83404970D01*
X94694013Y-83152068D01*
X94525397Y-82956733D01*
X94309461Y-82872134D01*
X94293266Y-82871733D01*
X94155686Y-82836277D01*
X94123933Y-82787067D01*
X94066442Y-82709327D01*
X93935508Y-82723598D01*
X93793434Y-82820665D01*
X93777946Y-82838220D01*
X93579204Y-82995010D01*
X93338886Y-83080803D01*
X93151002Y-83071966D01*
X93035563Y-82969549D01*
X93049142Y-82850974D01*
X93180065Y-82787621D01*
X93197597Y-82787067D01*
X93314667Y-82754473D01*
X93319600Y-82702400D01*
X93199778Y-82630428D01*
X93108642Y-82617733D01*
X92957237Y-82546807D01*
X92896266Y-82448400D01*
X92800905Y-82311079D01*
X92718249Y-82279067D01*
X92638808Y-82309806D01*
G36*
X91237934Y-82808427D02*
X91159252Y-82863068D01*
X90888741Y-83005108D01*
X90624323Y-83059136D01*
X90617953Y-83059016D01*
X90454324Y-83062683D01*
X90441941Y-83094860D01*
X90506142Y-83136344D01*
X90707668Y-83184279D01*
X90813814Y-83170643D01*
X90940792Y-83173723D01*
X91017077Y-83308204D01*
X91030048Y-83355980D01*
X91158851Y-83633100D01*
X91367128Y-83842325D01*
X91614651Y-83964805D01*
X91861192Y-83981692D01*
X92066521Y-83874133D01*
X92087062Y-83851269D01*
X92160775Y-83683744D01*
X92187865Y-83505744D01*
X92007266Y-83505744D01*
X91986424Y-83742505D01*
X91897314Y-83855340D01*
X91700061Y-83887260D01*
X91653119Y-83887733D01*
X91470741Y-83852959D01*
X91339659Y-83719811D01*
X91268374Y-83586839D01*
X91184983Y-83299167D01*
X91243050Y-83094054D01*
X91438998Y-82981276D01*
X91493729Y-82970763D01*
X91729552Y-83011449D01*
X91912443Y-83180295D01*
X92003433Y-83436707D01*
X92007266Y-83505744D01*
X92187865Y-83505744D01*
X92195375Y-83456401D01*
X92132053Y-83188943D01*
X91957148Y-82978039D01*
X91717018Y-82874917D01*
X91666276Y-82871733D01*
X91517964Y-82820950D01*
X91476121Y-82765900D01*
X91402534Y-82727804D01*
X91237934Y-82808427D01*
X91237934Y-82808427D01*
G37*
X91237934Y-82808427D02*
X91159252Y-82863068D01*
X90888741Y-83005108D01*
X90624323Y-83059136D01*
X90617953Y-83059016D01*
X90454324Y-83062683D01*
X90441941Y-83094860D01*
X90506142Y-83136344D01*
X90707668Y-83184279D01*
X90813814Y-83170643D01*
X90940792Y-83173723D01*
X91017077Y-83308204D01*
X91030048Y-83355980D01*
X91158851Y-83633100D01*
X91367128Y-83842325D01*
X91614651Y-83964805D01*
X91861192Y-83981692D01*
X92066521Y-83874133D01*
X92087062Y-83851269D01*
X92160775Y-83683744D01*
X92187865Y-83505744D01*
X92007266Y-83505744D01*
X91986424Y-83742505D01*
X91897314Y-83855340D01*
X91700061Y-83887260D01*
X91653119Y-83887733D01*
X91470741Y-83852959D01*
X91339659Y-83719811D01*
X91268374Y-83586839D01*
X91184983Y-83299167D01*
X91243050Y-83094054D01*
X91438998Y-82981276D01*
X91493729Y-82970763D01*
X91729552Y-83011449D01*
X91912443Y-83180295D01*
X92003433Y-83436707D01*
X92007266Y-83505744D01*
X92187865Y-83505744D01*
X92195375Y-83456401D01*
X92132053Y-83188943D01*
X91957148Y-82978039D01*
X91717018Y-82874917D01*
X91666276Y-82871733D01*
X91517964Y-82820950D01*
X91476121Y-82765900D01*
X91402534Y-82727804D01*
X91237934Y-82808427D01*
G36*
X102092225Y-82326904D02*
X101890346Y-82465770D01*
X101828600Y-82666894D01*
X101883372Y-82853077D01*
X102016343Y-83059190D01*
X102180495Y-83226199D01*
X102328808Y-83295066D01*
X102328903Y-83295067D01*
X102333562Y-83244544D01*
X102237238Y-83119778D01*
X102205751Y-83087248D01*
X102043680Y-82893508D01*
X102008203Y-82728851D01*
X102085308Y-82528006D01*
X102085579Y-82527500D01*
X102242793Y-82396978D01*
X102491034Y-82367307D01*
X102786745Y-82436570D01*
X103039535Y-82569512D01*
X103213048Y-82670885D01*
X103298367Y-82686572D01*
X103298801Y-82660718D01*
X103176818Y-82529698D01*
X102947476Y-82404775D01*
X102671514Y-82312450D01*
X102424071Y-82279067D01*
X102092225Y-82326904D01*
X102092225Y-82326904D01*
G37*
X102092225Y-82326904D02*
X101890346Y-82465770D01*
X101828600Y-82666894D01*
X101883372Y-82853077D01*
X102016343Y-83059190D01*
X102180495Y-83226199D01*
X102328808Y-83295066D01*
X102328903Y-83295067D01*
X102333562Y-83244544D01*
X102237238Y-83119778D01*
X102205751Y-83087248D01*
X102043680Y-82893508D01*
X102008203Y-82728851D01*
X102085308Y-82528006D01*
X102085579Y-82527500D01*
X102242793Y-82396978D01*
X102491034Y-82367307D01*
X102786745Y-82436570D01*
X103039535Y-82569512D01*
X103213048Y-82670885D01*
X103298367Y-82686572D01*
X103298801Y-82660718D01*
X103176818Y-82529698D01*
X102947476Y-82404775D01*
X102671514Y-82312450D01*
X102424071Y-82279067D01*
X102092225Y-82326904D01*
G36*
X94857881Y-82758675D02*
X94835178Y-82869648D01*
X94912494Y-82968475D01*
X95024248Y-82982676D01*
X95164802Y-83003027D01*
X95344850Y-83115723D01*
X95368118Y-83136188D01*
X95587686Y-83337400D01*
X95447289Y-83117616D01*
X95300294Y-82950067D01*
X95115776Y-82814717D01*
X94947355Y-82744220D01*
X94857881Y-82758675D01*
X94857881Y-82758675D01*
G37*
X94857881Y-82758675D02*
X94835178Y-82869648D01*
X94912494Y-82968475D01*
X95024248Y-82982676D01*
X95164802Y-83003027D01*
X95344850Y-83115723D01*
X95368118Y-83136188D01*
X95587686Y-83337400D01*
X95447289Y-83117616D01*
X95300294Y-82950067D01*
X95115776Y-82814717D01*
X94947355Y-82744220D01*
X94857881Y-82758675D01*
G36*
X110810063Y-75265850D02*
X110640772Y-75276588D01*
X110585991Y-75296611D01*
X110627450Y-75328501D01*
X110746877Y-75374844D01*
X110752469Y-75376839D01*
X110978300Y-75477064D01*
X111132325Y-75581090D01*
X111153339Y-75605957D01*
X111172607Y-75718108D01*
X111189976Y-75975603D01*
X111204688Y-76354457D01*
X111215983Y-76830682D01*
X111223103Y-77380295D01*
X111225303Y-77881384D01*
X111224806Y-78579762D01*
X111219992Y-79128298D01*
X111207284Y-79546482D01*
X111183102Y-79853804D01*
X111143868Y-80069752D01*
X111086003Y-80213818D01*
X111005928Y-80305491D01*
X110900065Y-80364261D01*
X110764833Y-80409617D01*
X110760835Y-80410810D01*
X110709162Y-80442537D01*
X110803625Y-80465075D01*
X111051065Y-80478996D01*
X111458323Y-80484872D01*
X111649933Y-80485123D01*
X112095526Y-80480524D01*
X112397546Y-80468391D01*
X112547944Y-80449340D01*
X112538671Y-80423989D01*
X112518288Y-80418533D01*
X112312515Y-80362134D01*
X112168333Y-80288177D01*
X112074813Y-80168448D01*
X112021022Y-79974729D01*
X111996028Y-79678805D01*
X111988899Y-79252459D01*
X111988600Y-79051366D01*
X111988600Y-77961067D01*
X114443933Y-77961067D01*
X114443933Y-79056932D01*
X114442261Y-79507758D01*
X114434115Y-79819873D01*
X114414804Y-80023890D01*
X114379635Y-80150422D01*
X114323917Y-80230081D01*
X114255761Y-80284599D01*
X114058339Y-80385293D01*
X113917094Y-80416400D01*
X113790090Y-80455785D01*
X113766600Y-80501067D01*
X113782410Y-80570058D01*
X113787766Y-80568447D01*
X113875341Y-80558380D01*
X114099892Y-80543107D01*
X114429213Y-80524562D01*
X114831097Y-80504681D01*
X114909600Y-80501067D01*
X115298145Y-80481567D01*
X115597358Y-80462972D01*
X115782834Y-80447095D01*
X115830169Y-80435752D01*
X115815918Y-80433686D01*
X115620760Y-80362879D01*
X115421577Y-80216395D01*
X115419149Y-80213980D01*
X115356084Y-80147463D01*
X115307644Y-80075493D01*
X115271832Y-79976312D01*
X115246651Y-79828161D01*
X115230106Y-79609282D01*
X115220198Y-79297917D01*
X115214931Y-78872306D01*
X115212309Y-78310693D01*
X115211305Y-77949146D01*
X115210997Y-77248247D01*
X115216764Y-76696842D01*
X115232471Y-76275108D01*
X115261983Y-75963220D01*
X115309166Y-75741355D01*
X115377884Y-75589687D01*
X115472002Y-75488394D01*
X115595385Y-75417649D01*
X115713933Y-75371101D01*
X115816618Y-75328650D01*
X115836009Y-75299146D01*
X115753916Y-75280307D01*
X115552153Y-75269852D01*
X115212530Y-75265497D01*
X114867266Y-75264859D01*
X114411908Y-75267388D01*
X114110236Y-75275797D01*
X113946658Y-75291655D01*
X113905581Y-75316535D01*
X113971413Y-75352008D01*
X113978266Y-75354452D01*
X114165467Y-75426221D01*
X114294285Y-75507098D01*
X114375628Y-75627639D01*
X114420403Y-75818402D01*
X114439515Y-76109942D01*
X114443872Y-76532816D01*
X114443933Y-76659100D01*
X114443933Y-77707067D01*
X111988600Y-77707067D01*
X111989896Y-76712233D01*
X111996879Y-76309105D01*
X112014877Y-75961610D01*
X112041102Y-75708585D01*
X112070330Y-75592252D01*
X112200660Y-75478995D01*
X112410632Y-75372669D01*
X112428867Y-75365860D01*
X112521451Y-75325377D01*
X112526406Y-75297009D01*
X112425800Y-75278598D01*
X112201704Y-75267985D01*
X111836187Y-75263012D01*
X111565266Y-75261891D01*
X111112138Y-75261812D01*
X110810063Y-75265850D01*
X110810063Y-75265850D01*
G37*
X110810063Y-75265850D02*
X110640772Y-75276588D01*
X110585991Y-75296611D01*
X110627450Y-75328501D01*
X110746877Y-75374844D01*
X110752469Y-75376839D01*
X110978300Y-75477064D01*
X111132325Y-75581090D01*
X111153339Y-75605957D01*
X111172607Y-75718108D01*
X111189976Y-75975603D01*
X111204688Y-76354457D01*
X111215983Y-76830682D01*
X111223103Y-77380295D01*
X111225303Y-77881384D01*
X111224806Y-78579762D01*
X111219992Y-79128298D01*
X111207284Y-79546482D01*
X111183102Y-79853804D01*
X111143868Y-80069752D01*
X111086003Y-80213818D01*
X111005928Y-80305491D01*
X110900065Y-80364261D01*
X110764833Y-80409617D01*
X110760835Y-80410810D01*
X110709162Y-80442537D01*
X110803625Y-80465075D01*
X111051065Y-80478996D01*
X111458323Y-80484872D01*
X111649933Y-80485123D01*
X112095526Y-80480524D01*
X112397546Y-80468391D01*
X112547944Y-80449340D01*
X112538671Y-80423989D01*
X112518288Y-80418533D01*
X112312515Y-80362134D01*
X112168333Y-80288177D01*
X112074813Y-80168448D01*
X112021022Y-79974729D01*
X111996028Y-79678805D01*
X111988899Y-79252459D01*
X111988600Y-79051366D01*
X111988600Y-77961067D01*
X114443933Y-77961067D01*
X114443933Y-79056932D01*
X114442261Y-79507758D01*
X114434115Y-79819873D01*
X114414804Y-80023890D01*
X114379635Y-80150422D01*
X114323917Y-80230081D01*
X114255761Y-80284599D01*
X114058339Y-80385293D01*
X113917094Y-80416400D01*
X113790090Y-80455785D01*
X113766600Y-80501067D01*
X113782410Y-80570058D01*
X113787766Y-80568447D01*
X113875341Y-80558380D01*
X114099892Y-80543107D01*
X114429213Y-80524562D01*
X114831097Y-80504681D01*
X114909600Y-80501067D01*
X115298145Y-80481567D01*
X115597358Y-80462972D01*
X115782834Y-80447095D01*
X115830169Y-80435752D01*
X115815918Y-80433686D01*
X115620760Y-80362879D01*
X115421577Y-80216395D01*
X115419149Y-80213980D01*
X115356084Y-80147463D01*
X115307644Y-80075493D01*
X115271832Y-79976312D01*
X115246651Y-79828161D01*
X115230106Y-79609282D01*
X115220198Y-79297917D01*
X115214931Y-78872306D01*
X115212309Y-78310693D01*
X115211305Y-77949146D01*
X115210997Y-77248247D01*
X115216764Y-76696842D01*
X115232471Y-76275108D01*
X115261983Y-75963220D01*
X115309166Y-75741355D01*
X115377884Y-75589687D01*
X115472002Y-75488394D01*
X115595385Y-75417649D01*
X115713933Y-75371101D01*
X115816618Y-75328650D01*
X115836009Y-75299146D01*
X115753916Y-75280307D01*
X115552153Y-75269852D01*
X115212530Y-75265497D01*
X114867266Y-75264859D01*
X114411908Y-75267388D01*
X114110236Y-75275797D01*
X113946658Y-75291655D01*
X113905581Y-75316535D01*
X113971413Y-75352008D01*
X113978266Y-75354452D01*
X114165467Y-75426221D01*
X114294285Y-75507098D01*
X114375628Y-75627639D01*
X114420403Y-75818402D01*
X114439515Y-76109942D01*
X114443872Y-76532816D01*
X114443933Y-76659100D01*
X114443933Y-77707067D01*
X111988600Y-77707067D01*
X111989896Y-76712233D01*
X111996879Y-76309105D01*
X112014877Y-75961610D01*
X112041102Y-75708585D01*
X112070330Y-75592252D01*
X112200660Y-75478995D01*
X112410632Y-75372669D01*
X112428867Y-75365860D01*
X112521451Y-75325377D01*
X112526406Y-75297009D01*
X112425800Y-75278598D01*
X112201704Y-75267985D01*
X111836187Y-75263012D01*
X111565266Y-75261891D01*
X111112138Y-75261812D01*
X110810063Y-75265850D01*
G36*
X107945918Y-76949146D02*
X107453710Y-77120500D01*
X107078855Y-77399830D01*
X106792800Y-77809174D01*
X106767846Y-77858378D01*
X106635293Y-78164666D01*
X106580920Y-78427170D01*
X106586736Y-78741477D01*
X106591400Y-78795840D01*
X106704279Y-79336616D01*
X106927295Y-79816235D01*
X107239525Y-80202537D01*
X107620047Y-80463363D01*
X107697278Y-80495680D01*
X108015851Y-80565742D01*
X108400247Y-80580699D01*
X108774817Y-80542915D01*
X109063910Y-80454754D01*
X109067600Y-80452857D01*
X109519056Y-80135132D01*
X109829096Y-79724498D01*
X109997183Y-79221994D01*
X110022782Y-78628658D01*
X110020839Y-78603100D01*
X109941155Y-78202723D01*
X109346781Y-78202723D01*
X109341696Y-78762089D01*
X109331597Y-78857898D01*
X109212150Y-79442058D01*
X109008928Y-79903780D01*
X108755451Y-80205048D01*
X108440921Y-80376189D01*
X108101519Y-80407472D01*
X107788998Y-80294721D01*
X107773622Y-80284260D01*
X107528823Y-80036414D01*
X107374528Y-79688255D01*
X107302658Y-79217716D01*
X107295103Y-78977067D01*
X107340607Y-78369718D01*
X107477699Y-77867345D01*
X107698451Y-77482760D01*
X107994938Y-77228776D01*
X108359231Y-77118206D01*
X108447460Y-77114400D01*
X108797383Y-77188758D01*
X109068197Y-77403382D01*
X109253472Y-77745595D01*
X109346781Y-78202723D01*
X109941155Y-78202723D01*
X109906642Y-78029311D01*
X109674069Y-77559839D01*
X109338393Y-77206857D01*
X108914883Y-76982536D01*
X108418810Y-76899050D01*
X107945918Y-76949146D01*
X107945918Y-76949146D01*
G37*
X107945918Y-76949146D02*
X107453710Y-77120500D01*
X107078855Y-77399830D01*
X106792800Y-77809174D01*
X106767846Y-77858378D01*
X106635293Y-78164666D01*
X106580920Y-78427170D01*
X106586736Y-78741477D01*
X106591400Y-78795840D01*
X106704279Y-79336616D01*
X106927295Y-79816235D01*
X107239525Y-80202537D01*
X107620047Y-80463363D01*
X107697278Y-80495680D01*
X108015851Y-80565742D01*
X108400247Y-80580699D01*
X108774817Y-80542915D01*
X109063910Y-80454754D01*
X109067600Y-80452857D01*
X109519056Y-80135132D01*
X109829096Y-79724498D01*
X109997183Y-79221994D01*
X110022782Y-78628658D01*
X110020839Y-78603100D01*
X109941155Y-78202723D01*
X109346781Y-78202723D01*
X109341696Y-78762089D01*
X109331597Y-78857898D01*
X109212150Y-79442058D01*
X109008928Y-79903780D01*
X108755451Y-80205048D01*
X108440921Y-80376189D01*
X108101519Y-80407472D01*
X107788998Y-80294721D01*
X107773622Y-80284260D01*
X107528823Y-80036414D01*
X107374528Y-79688255D01*
X107302658Y-79217716D01*
X107295103Y-78977067D01*
X107340607Y-78369718D01*
X107477699Y-77867345D01*
X107698451Y-77482760D01*
X107994938Y-77228776D01*
X108359231Y-77118206D01*
X108447460Y-77114400D01*
X108797383Y-77188758D01*
X109068197Y-77403382D01*
X109253472Y-77745595D01*
X109346781Y-78202723D01*
X109941155Y-78202723D01*
X109906642Y-78029311D01*
X109674069Y-77559839D01*
X109338393Y-77206857D01*
X108914883Y-76982536D01*
X108418810Y-76899050D01*
X107945918Y-76949146D01*
G36*
X103795362Y-76992783D02*
X103698859Y-77193288D01*
X103691266Y-77289369D01*
X103739645Y-77512633D01*
X103885131Y-77597625D01*
X104128251Y-77544530D01*
X104252203Y-77485070D01*
X104549870Y-77326067D01*
X104797902Y-77602569D01*
X104899824Y-77721163D01*
X104969120Y-77831609D01*
X105012086Y-77968340D01*
X105035013Y-78165787D01*
X105044196Y-78458383D01*
X105045927Y-78880560D01*
X105045933Y-78959563D01*
X105036227Y-79507095D01*
X105003239Y-79905953D01*
X104941162Y-80175895D01*
X104844191Y-80336677D01*
X104706520Y-80408056D01*
X104617799Y-80416400D01*
X104482720Y-80443755D01*
X104453266Y-80479900D01*
X104532093Y-80505967D01*
X104745258Y-80526848D01*
X105057784Y-80540046D01*
X105342266Y-80543400D01*
X105707205Y-80537769D01*
X105999544Y-80522543D01*
X106184309Y-80500220D01*
X106231266Y-80479900D01*
X106160442Y-80427637D01*
X106067981Y-80416400D01*
X105913338Y-80398713D01*
X105800368Y-80330837D01*
X105722767Y-80190546D01*
X105674230Y-79955617D01*
X105648456Y-79603826D01*
X105639139Y-79112948D01*
X105638600Y-78902535D01*
X105642784Y-78362016D01*
X105659665Y-77966915D01*
X105695738Y-77693427D01*
X105757497Y-77517751D01*
X105851436Y-77416084D01*
X105984050Y-77364623D01*
X106061933Y-77350962D01*
X106137026Y-77323739D01*
X106082411Y-77274324D01*
X105884794Y-77194598D01*
X105705563Y-77133306D01*
X105418699Y-77040241D01*
X105199784Y-76972950D01*
X105093633Y-76945177D01*
X105091730Y-76945067D01*
X105061442Y-77019594D01*
X105046322Y-77202819D01*
X105045933Y-77241400D01*
X105033912Y-77437375D01*
X105004359Y-77535213D01*
X104998134Y-77537733D01*
X104917911Y-77479254D01*
X104780097Y-77334645D01*
X104745848Y-77294715D01*
X104484547Y-77053948D01*
X104218701Y-76923268D01*
X103978808Y-76902828D01*
X103795362Y-76992783D01*
X103795362Y-76992783D01*
G37*
X103795362Y-76992783D02*
X103698859Y-77193288D01*
X103691266Y-77289369D01*
X103739645Y-77512633D01*
X103885131Y-77597625D01*
X104128251Y-77544530D01*
X104252203Y-77485070D01*
X104549870Y-77326067D01*
X104797902Y-77602569D01*
X104899824Y-77721163D01*
X104969120Y-77831609D01*
X105012086Y-77968340D01*
X105035013Y-78165787D01*
X105044196Y-78458383D01*
X105045927Y-78880560D01*
X105045933Y-78959563D01*
X105036227Y-79507095D01*
X105003239Y-79905953D01*
X104941162Y-80175895D01*
X104844191Y-80336677D01*
X104706520Y-80408056D01*
X104617799Y-80416400D01*
X104482720Y-80443755D01*
X104453266Y-80479900D01*
X104532093Y-80505967D01*
X104745258Y-80526848D01*
X105057784Y-80540046D01*
X105342266Y-80543400D01*
X105707205Y-80537769D01*
X105999544Y-80522543D01*
X106184309Y-80500220D01*
X106231266Y-80479900D01*
X106160442Y-80427637D01*
X106067981Y-80416400D01*
X105913338Y-80398713D01*
X105800368Y-80330837D01*
X105722767Y-80190546D01*
X105674230Y-79955617D01*
X105648456Y-79603826D01*
X105639139Y-79112948D01*
X105638600Y-78902535D01*
X105642784Y-78362016D01*
X105659665Y-77966915D01*
X105695738Y-77693427D01*
X105757497Y-77517751D01*
X105851436Y-77416084D01*
X105984050Y-77364623D01*
X106061933Y-77350962D01*
X106137026Y-77323739D01*
X106082411Y-77274324D01*
X105884794Y-77194598D01*
X105705563Y-77133306D01*
X105418699Y-77040241D01*
X105199784Y-76972950D01*
X105093633Y-76945177D01*
X105091730Y-76945067D01*
X105061442Y-77019594D01*
X105046322Y-77202819D01*
X105045933Y-77241400D01*
X105033912Y-77437375D01*
X105004359Y-77535213D01*
X104998134Y-77537733D01*
X104917911Y-77479254D01*
X104780097Y-77334645D01*
X104745848Y-77294715D01*
X104484547Y-77053948D01*
X104218701Y-76923268D01*
X103978808Y-76902828D01*
X103795362Y-76992783D01*
G36*
X100771680Y-76981353D02*
X100578895Y-77085173D01*
X100435651Y-77228965D01*
X100335083Y-77436797D01*
X100270326Y-77732732D01*
X100234516Y-78140839D01*
X100220790Y-78685183D01*
X100219933Y-78915831D01*
X100215432Y-79444711D01*
X100198181Y-79829689D01*
X100162558Y-80096044D01*
X100102942Y-80269057D01*
X100013711Y-80374008D01*
X99889245Y-80436179D01*
X99881266Y-80438859D01*
X99902729Y-80459834D01*
X100063869Y-80482091D01*
X100335094Y-80502328D01*
X100537628Y-80512098D01*
X100937540Y-80520408D01*
X101201335Y-80509303D01*
X101320303Y-80480483D01*
X101285736Y-80435648D01*
X101152286Y-80392134D01*
X101015485Y-80317877D01*
X100918196Y-80164398D01*
X100856548Y-79911799D01*
X100826670Y-79540184D01*
X100824690Y-79029658D01*
X100831977Y-78745945D01*
X100850755Y-78270449D01*
X100874432Y-77934121D01*
X100907461Y-77706793D01*
X100954301Y-77558301D01*
X101019407Y-77458476D01*
X101022718Y-77454778D01*
X101252201Y-77316689D01*
X101550394Y-77292906D01*
X101871129Y-77373332D01*
X102168235Y-77547869D01*
X102356470Y-77746481D01*
X102379874Y-77860107D01*
X102399463Y-78108242D01*
X102413381Y-78456074D01*
X102419772Y-78868788D01*
X102419970Y-78937061D01*
X102410504Y-79496144D01*
X102377461Y-79905072D01*
X102316129Y-80181967D01*
X102221800Y-80344953D01*
X102089761Y-80412152D01*
X102035466Y-80416400D01*
X101925757Y-80452015D01*
X101913266Y-80479900D01*
X101991792Y-80507186D01*
X102202857Y-80528598D01*
X102509694Y-80541235D01*
X102717600Y-80543400D01*
X103063219Y-80537200D01*
X103334447Y-80520537D01*
X103494515Y-80496313D01*
X103521933Y-80479900D01*
X103450975Y-80427956D01*
X103355579Y-80416400D01*
X103233317Y-80390454D01*
X103143061Y-80298976D01*
X103080403Y-80121504D01*
X103040937Y-79837578D01*
X103020255Y-79426737D01*
X103013950Y-78868518D01*
X103013933Y-78830233D01*
X103017641Y-78297947D01*
X103032671Y-77911920D01*
X103064880Y-77649167D01*
X103120127Y-77486701D01*
X103204267Y-77401537D01*
X103323161Y-77370689D01*
X103386466Y-77368400D01*
X103492969Y-77341726D01*
X103475366Y-77294140D01*
X103354949Y-77227354D01*
X103142739Y-77142912D01*
X102893036Y-77058419D01*
X102660138Y-76991478D01*
X102498343Y-76959692D01*
X102458354Y-76964423D01*
X102424847Y-77067209D01*
X102403039Y-77227049D01*
X102381360Y-77393012D01*
X102359734Y-77453067D01*
X102283243Y-77407941D01*
X102115501Y-77292868D01*
X101997611Y-77208566D01*
X101566009Y-76970185D01*
X101154117Y-76897432D01*
X100771680Y-76981353D01*
X100771680Y-76981353D01*
G37*
X100771680Y-76981353D02*
X100578895Y-77085173D01*
X100435651Y-77228965D01*
X100335083Y-77436797D01*
X100270326Y-77732732D01*
X100234516Y-78140839D01*
X100220790Y-78685183D01*
X100219933Y-78915831D01*
X100215432Y-79444711D01*
X100198181Y-79829689D01*
X100162558Y-80096044D01*
X100102942Y-80269057D01*
X100013711Y-80374008D01*
X99889245Y-80436179D01*
X99881266Y-80438859D01*
X99902729Y-80459834D01*
X100063869Y-80482091D01*
X100335094Y-80502328D01*
X100537628Y-80512098D01*
X100937540Y-80520408D01*
X101201335Y-80509303D01*
X101320303Y-80480483D01*
X101285736Y-80435648D01*
X101152286Y-80392134D01*
X101015485Y-80317877D01*
X100918196Y-80164398D01*
X100856548Y-79911799D01*
X100826670Y-79540184D01*
X100824690Y-79029658D01*
X100831977Y-78745945D01*
X100850755Y-78270449D01*
X100874432Y-77934121D01*
X100907461Y-77706793D01*
X100954301Y-77558301D01*
X101019407Y-77458476D01*
X101022718Y-77454778D01*
X101252201Y-77316689D01*
X101550394Y-77292906D01*
X101871129Y-77373332D01*
X102168235Y-77547869D01*
X102356470Y-77746481D01*
X102379874Y-77860107D01*
X102399463Y-78108242D01*
X102413381Y-78456074D01*
X102419772Y-78868788D01*
X102419970Y-78937061D01*
X102410504Y-79496144D01*
X102377461Y-79905072D01*
X102316129Y-80181967D01*
X102221800Y-80344953D01*
X102089761Y-80412152D01*
X102035466Y-80416400D01*
X101925757Y-80452015D01*
X101913266Y-80479900D01*
X101991792Y-80507186D01*
X102202857Y-80528598D01*
X102509694Y-80541235D01*
X102717600Y-80543400D01*
X103063219Y-80537200D01*
X103334447Y-80520537D01*
X103494515Y-80496313D01*
X103521933Y-80479900D01*
X103450975Y-80427956D01*
X103355579Y-80416400D01*
X103233317Y-80390454D01*
X103143061Y-80298976D01*
X103080403Y-80121504D01*
X103040937Y-79837578D01*
X103020255Y-79426737D01*
X103013950Y-78868518D01*
X103013933Y-78830233D01*
X103017641Y-78297947D01*
X103032671Y-77911920D01*
X103064880Y-77649167D01*
X103120127Y-77486701D01*
X103204267Y-77401537D01*
X103323161Y-77370689D01*
X103386466Y-77368400D01*
X103492969Y-77341726D01*
X103475366Y-77294140D01*
X103354949Y-77227354D01*
X103142739Y-77142912D01*
X102893036Y-77058419D01*
X102660138Y-76991478D01*
X102498343Y-76959692D01*
X102458354Y-76964423D01*
X102424847Y-77067209D01*
X102403039Y-77227049D01*
X102381360Y-77393012D01*
X102359734Y-77453067D01*
X102283243Y-77407941D01*
X102115501Y-77292868D01*
X101997611Y-77208566D01*
X101566009Y-76970185D01*
X101154117Y-76897432D01*
X100771680Y-76981353D01*
G36*
X98357266Y-76279554D02*
X98354656Y-76703287D01*
X98347492Y-77058946D01*
X98336771Y-77316085D01*
X98323492Y-77444258D01*
X98318782Y-77453067D01*
X98239235Y-77399375D01*
X98095460Y-77268034D01*
X98074514Y-77247284D01*
X97724180Y-77007286D01*
X97320085Y-76904744D01*
X96904182Y-76937423D01*
X96518426Y-77103093D01*
X96247474Y-77344496D01*
X95984608Y-77787306D01*
X95854518Y-78288322D01*
X95850494Y-78812884D01*
X95965827Y-79326331D01*
X96193807Y-79794003D01*
X96527726Y-80181241D01*
X96837983Y-80395052D01*
X97271001Y-80542732D01*
X97771494Y-80586466D01*
X98272567Y-80525352D01*
X98590100Y-80418680D01*
X98949933Y-80255346D01*
X98950647Y-78932129D01*
X98357266Y-78932129D01*
X98357266Y-80080222D01*
X98082100Y-80247994D01*
X97699196Y-80396912D01*
X97312432Y-80376732D01*
X97076409Y-80283785D01*
X96827007Y-80066012D01*
X96647344Y-79732037D01*
X96538786Y-79320572D01*
X96502693Y-78870329D01*
X96540430Y-78420021D01*
X96653361Y-78008358D01*
X96842848Y-77674054D01*
X96979697Y-77537576D01*
X97277567Y-77395257D01*
X97622641Y-77364340D01*
X97950064Y-77442682D01*
X98149448Y-77576218D01*
X98232990Y-77667590D01*
X98290507Y-77766445D01*
X98326846Y-77904406D01*
X98346853Y-78113092D01*
X98355374Y-78424123D01*
X98357257Y-78869120D01*
X98357266Y-78932129D01*
X98950647Y-78932129D01*
X98951089Y-78113373D01*
X98953268Y-77518981D01*
X98958789Y-76973545D01*
X98967114Y-76502198D01*
X98977709Y-76130076D01*
X98990036Y-75882314D01*
X99000635Y-75791079D01*
X99122103Y-75628135D01*
X99307936Y-75536504D01*
X99430480Y-75496215D01*
X99458795Y-75459666D01*
X99373699Y-75412860D01*
X99156011Y-75341804D01*
X98962056Y-75284145D01*
X98357266Y-75106041D01*
X98357266Y-76279554D01*
X98357266Y-76279554D01*
G37*
X98357266Y-76279554D02*
X98354656Y-76703287D01*
X98347492Y-77058946D01*
X98336771Y-77316085D01*
X98323492Y-77444258D01*
X98318782Y-77453067D01*
X98239235Y-77399375D01*
X98095460Y-77268034D01*
X98074514Y-77247284D01*
X97724180Y-77007286D01*
X97320085Y-76904744D01*
X96904182Y-76937423D01*
X96518426Y-77103093D01*
X96247474Y-77344496D01*
X95984608Y-77787306D01*
X95854518Y-78288322D01*
X95850494Y-78812884D01*
X95965827Y-79326331D01*
X96193807Y-79794003D01*
X96527726Y-80181241D01*
X96837983Y-80395052D01*
X97271001Y-80542732D01*
X97771494Y-80586466D01*
X98272567Y-80525352D01*
X98590100Y-80418680D01*
X98949933Y-80255346D01*
X98950647Y-78932129D01*
X98357266Y-78932129D01*
X98357266Y-80080222D01*
X98082100Y-80247994D01*
X97699196Y-80396912D01*
X97312432Y-80376732D01*
X97076409Y-80283785D01*
X96827007Y-80066012D01*
X96647344Y-79732037D01*
X96538786Y-79320572D01*
X96502693Y-78870329D01*
X96540430Y-78420021D01*
X96653361Y-78008358D01*
X96842848Y-77674054D01*
X96979697Y-77537576D01*
X97277567Y-77395257D01*
X97622641Y-77364340D01*
X97950064Y-77442682D01*
X98149448Y-77576218D01*
X98232990Y-77667590D01*
X98290507Y-77766445D01*
X98326846Y-77904406D01*
X98346853Y-78113092D01*
X98355374Y-78424123D01*
X98357257Y-78869120D01*
X98357266Y-78932129D01*
X98950647Y-78932129D01*
X98951089Y-78113373D01*
X98953268Y-77518981D01*
X98958789Y-76973545D01*
X98967114Y-76502198D01*
X98977709Y-76130076D01*
X98990036Y-75882314D01*
X99000635Y-75791079D01*
X99122103Y-75628135D01*
X99307936Y-75536504D01*
X99430480Y-75496215D01*
X99458795Y-75459666D01*
X99373699Y-75412860D01*
X99156011Y-75341804D01*
X98962056Y-75284145D01*
X98357266Y-75106041D01*
X98357266Y-76279554D01*
G36*
X94171035Y-77025429D02*
X94152609Y-77249318D01*
X94137905Y-77590932D01*
X94128001Y-78024472D01*
X94123972Y-78524136D01*
X94123933Y-78579133D01*
X94121681Y-79183772D01*
X94112290Y-79639801D01*
X94091813Y-79967913D01*
X94056300Y-80188801D01*
X94001804Y-80323158D01*
X93924374Y-80391676D01*
X93820062Y-80415050D01*
X93773330Y-80416400D01*
X93618362Y-80459525D01*
X93573600Y-80501067D01*
X93541549Y-80569431D01*
X93547436Y-80569160D01*
X93637427Y-80557749D01*
X93860215Y-80539880D01*
X94179515Y-80518252D01*
X94462600Y-80501067D01*
X94805541Y-80478928D01*
X95054460Y-80458364D01*
X95182996Y-80441884D01*
X95178033Y-80432973D01*
X95044868Y-80408575D01*
X94947236Y-80349164D01*
X94879688Y-80231659D01*
X94836773Y-80032977D01*
X94813041Y-79730036D01*
X94803041Y-79299755D01*
X94801266Y-78837340D01*
X94804148Y-78284306D01*
X94817083Y-77879444D01*
X94846503Y-77601633D01*
X94898842Y-77429752D01*
X94980534Y-77342678D01*
X95098012Y-77319290D01*
X95257709Y-77338466D01*
X95257792Y-77338481D01*
X95272475Y-77328793D01*
X95152274Y-77274003D01*
X94922087Y-77185079D01*
X94848275Y-77158076D01*
X94553692Y-77054496D01*
X94321720Y-76978736D01*
X94197654Y-76945499D01*
X94192108Y-76945066D01*
X94171035Y-77025429D01*
X94171035Y-77025429D01*
G37*
X94171035Y-77025429D02*
X94152609Y-77249318D01*
X94137905Y-77590932D01*
X94128001Y-78024472D01*
X94123972Y-78524136D01*
X94123933Y-78579133D01*
X94121681Y-79183772D01*
X94112290Y-79639801D01*
X94091813Y-79967913D01*
X94056300Y-80188801D01*
X94001804Y-80323158D01*
X93924374Y-80391676D01*
X93820062Y-80415050D01*
X93773330Y-80416400D01*
X93618362Y-80459525D01*
X93573600Y-80501067D01*
X93541549Y-80569431D01*
X93547436Y-80569160D01*
X93637427Y-80557749D01*
X93860215Y-80539880D01*
X94179515Y-80518252D01*
X94462600Y-80501067D01*
X94805541Y-80478928D01*
X95054460Y-80458364D01*
X95182996Y-80441884D01*
X95178033Y-80432973D01*
X95044868Y-80408575D01*
X94947236Y-80349164D01*
X94879688Y-80231659D01*
X94836773Y-80032977D01*
X94813041Y-79730036D01*
X94803041Y-79299755D01*
X94801266Y-78837340D01*
X94804148Y-78284306D01*
X94817083Y-77879444D01*
X94846503Y-77601633D01*
X94898842Y-77429752D01*
X94980534Y-77342678D01*
X95098012Y-77319290D01*
X95257709Y-77338466D01*
X95257792Y-77338481D01*
X95272475Y-77328793D01*
X95152274Y-77274003D01*
X94922087Y-77185079D01*
X94848275Y-77158076D01*
X94553692Y-77054496D01*
X94321720Y-76978736D01*
X94197654Y-76945499D01*
X94192108Y-76945066D01*
X94171035Y-77025429D01*
G36*
X91922600Y-77629703D02*
X91921607Y-78362267D01*
X91918018Y-78943757D01*
X91910917Y-79392423D01*
X91899391Y-79726516D01*
X91882523Y-79964287D01*
X91859399Y-80123985D01*
X91829104Y-80223863D01*
X91790722Y-80282171D01*
X91789552Y-80283352D01*
X91609602Y-80392719D01*
X91493219Y-80416400D01*
X91358956Y-80453028D01*
X91329933Y-80501067D01*
X91345767Y-80570597D01*
X91351100Y-80569160D01*
X91438954Y-80558152D01*
X91659903Y-80541363D01*
X91977911Y-80521313D01*
X92261266Y-80505503D01*
X92599963Y-80483070D01*
X92840301Y-80458152D01*
X92957545Y-80433997D01*
X92940719Y-80416243D01*
X92816275Y-80378271D01*
X92718709Y-80307745D01*
X92644790Y-80185839D01*
X92591285Y-79993730D01*
X92554962Y-79712593D01*
X92532591Y-79323604D01*
X92520938Y-78807937D01*
X92516772Y-78146770D01*
X92516515Y-77945412D01*
X92519476Y-77367867D01*
X92528461Y-76837244D01*
X92542517Y-76380222D01*
X92560692Y-76023479D01*
X92582033Y-75793694D01*
X92595677Y-75728593D01*
X92714635Y-75562039D01*
X92934829Y-75492420D01*
X92955511Y-75490248D01*
X93070619Y-75471330D01*
X93072169Y-75440915D01*
X92944417Y-75390478D01*
X92671618Y-75311494D01*
X92578766Y-75286250D01*
X91922600Y-75109101D01*
X91922600Y-77629703D01*
X91922600Y-77629703D01*
G37*
X91922600Y-77629703D02*
X91921607Y-78362267D01*
X91918018Y-78943757D01*
X91910917Y-79392423D01*
X91899391Y-79726516D01*
X91882523Y-79964287D01*
X91859399Y-80123985D01*
X91829104Y-80223863D01*
X91790722Y-80282171D01*
X91789552Y-80283352D01*
X91609602Y-80392719D01*
X91493219Y-80416400D01*
X91358956Y-80453028D01*
X91329933Y-80501067D01*
X91345767Y-80570597D01*
X91351100Y-80569160D01*
X91438954Y-80558152D01*
X91659903Y-80541363D01*
X91977911Y-80521313D01*
X92261266Y-80505503D01*
X92599963Y-80483070D01*
X92840301Y-80458152D01*
X92957545Y-80433997D01*
X92940719Y-80416243D01*
X92816275Y-80378271D01*
X92718709Y-80307745D01*
X92644790Y-80185839D01*
X92591285Y-79993730D01*
X92554962Y-79712593D01*
X92532591Y-79323604D01*
X92520938Y-78807937D01*
X92516772Y-78146770D01*
X92516515Y-77945412D01*
X92519476Y-77367867D01*
X92528461Y-76837244D01*
X92542517Y-76380222D01*
X92560692Y-76023479D01*
X92582033Y-75793694D01*
X92595677Y-75728593D01*
X92714635Y-75562039D01*
X92934829Y-75492420D01*
X92955511Y-75490248D01*
X93070619Y-75471330D01*
X93072169Y-75440915D01*
X92944417Y-75390478D01*
X92671618Y-75311494D01*
X92578766Y-75286250D01*
X91922600Y-75109101D01*
X91922600Y-77629703D01*
G36*
X89721266Y-77570962D02*
X89720123Y-78300717D01*
X89716073Y-78879895D01*
X89708186Y-79327242D01*
X89695533Y-79661503D01*
X89677184Y-79901424D01*
X89652209Y-80065750D01*
X89619678Y-80173226D01*
X89589466Y-80228228D01*
X89435329Y-80369949D01*
X89298129Y-80416400D01*
X89145164Y-80445972D01*
X89099348Y-80479900D01*
X89161808Y-80505408D01*
X89361180Y-80526026D01*
X89665063Y-80539425D01*
X89983351Y-80543400D01*
X90355834Y-80537971D01*
X90656371Y-80523257D01*
X90850642Y-80501619D01*
X90906600Y-80479900D01*
X90835776Y-80427637D01*
X90743314Y-80416400D01*
X90620181Y-80409200D01*
X90523117Y-80375635D01*
X90449030Y-80297755D01*
X90394829Y-80157609D01*
X90357424Y-79937247D01*
X90333723Y-79618721D01*
X90320636Y-79184080D01*
X90315069Y-78615374D01*
X90313933Y-77923053D01*
X90314469Y-77228402D01*
X90318274Y-76684159D01*
X90328645Y-76271395D01*
X90348879Y-75971185D01*
X90382273Y-75764601D01*
X90432123Y-75632717D01*
X90501725Y-75556607D01*
X90594378Y-75517342D01*
X90713377Y-75495998D01*
X90737266Y-75492679D01*
X90801190Y-75463986D01*
X90722139Y-75411315D01*
X90490909Y-75329860D01*
X90335100Y-75282634D01*
X89721266Y-75101869D01*
X89721266Y-77570962D01*
X89721266Y-77570962D01*
G37*
X89721266Y-77570962D02*
X89720123Y-78300717D01*
X89716073Y-78879895D01*
X89708186Y-79327242D01*
X89695533Y-79661503D01*
X89677184Y-79901424D01*
X89652209Y-80065750D01*
X89619678Y-80173226D01*
X89589466Y-80228228D01*
X89435329Y-80369949D01*
X89298129Y-80416400D01*
X89145164Y-80445972D01*
X89099348Y-80479900D01*
X89161808Y-80505408D01*
X89361180Y-80526026D01*
X89665063Y-80539425D01*
X89983351Y-80543400D01*
X90355834Y-80537971D01*
X90656371Y-80523257D01*
X90850642Y-80501619D01*
X90906600Y-80479900D01*
X90835776Y-80427637D01*
X90743314Y-80416400D01*
X90620181Y-80409200D01*
X90523117Y-80375635D01*
X90449030Y-80297755D01*
X90394829Y-80157609D01*
X90357424Y-79937247D01*
X90333723Y-79618721D01*
X90320636Y-79184080D01*
X90315069Y-78615374D01*
X90313933Y-77923053D01*
X90314469Y-77228402D01*
X90318274Y-76684159D01*
X90328645Y-76271395D01*
X90348879Y-75971185D01*
X90382273Y-75764601D01*
X90432123Y-75632717D01*
X90501725Y-75556607D01*
X90594378Y-75517342D01*
X90713377Y-75495998D01*
X90737266Y-75492679D01*
X90801190Y-75463986D01*
X90722139Y-75411315D01*
X90490909Y-75329860D01*
X90335100Y-75282634D01*
X89721266Y-75101869D01*
X89721266Y-77570962D01*
G36*
X102902802Y-74020860D02*
X102899760Y-74021252D01*
X102574547Y-74080007D01*
X102281063Y-74161799D01*
X102052414Y-74253217D01*
X101921707Y-74340851D01*
X101922048Y-74411288D01*
X101927581Y-74415069D01*
X102105264Y-74456244D01*
X102168017Y-74446241D01*
X102305693Y-74441313D01*
X102563410Y-74462203D01*
X102894578Y-74504610D01*
X103034657Y-74526226D01*
X103630075Y-74665470D01*
X104098531Y-74881158D01*
X104473520Y-75195637D01*
X104788539Y-75631250D01*
X104847763Y-75735733D01*
X104933672Y-75874623D01*
X105034669Y-75968125D01*
X105190947Y-76034787D01*
X105442699Y-76093155D01*
X105736226Y-76145721D01*
X105950829Y-76166125D01*
X106057318Y-76118876D01*
X106094209Y-76042783D01*
X106101705Y-75885470D01*
X106063720Y-75680620D01*
X105997964Y-75481391D01*
X105922147Y-75340945D01*
X105853979Y-75312442D01*
X105851575Y-75314461D01*
X105817574Y-75320897D01*
X105834083Y-75285207D01*
X105822575Y-75173676D01*
X105681759Y-75010981D01*
X105403485Y-74789481D01*
X105041085Y-74541587D01*
X104556961Y-74293256D01*
X103994677Y-74112870D01*
X103421025Y-74016661D01*
X102902802Y-74020860D01*
X102902802Y-74020860D01*
G37*
X102902802Y-74020860D02*
X102899760Y-74021252D01*
X102574547Y-74080007D01*
X102281063Y-74161799D01*
X102052414Y-74253217D01*
X101921707Y-74340851D01*
X101922048Y-74411288D01*
X101927581Y-74415069D01*
X102105264Y-74456244D01*
X102168017Y-74446241D01*
X102305693Y-74441313D01*
X102563410Y-74462203D01*
X102894578Y-74504610D01*
X103034657Y-74526226D01*
X103630075Y-74665470D01*
X104098531Y-74881158D01*
X104473520Y-75195637D01*
X104788539Y-75631250D01*
X104847763Y-75735733D01*
X104933672Y-75874623D01*
X105034669Y-75968125D01*
X105190947Y-76034787D01*
X105442699Y-76093155D01*
X105736226Y-76145721D01*
X105950829Y-76166125D01*
X106057318Y-76118876D01*
X106094209Y-76042783D01*
X106101705Y-75885470D01*
X106063720Y-75680620D01*
X105997964Y-75481391D01*
X105922147Y-75340945D01*
X105853979Y-75312442D01*
X105851575Y-75314461D01*
X105817574Y-75320897D01*
X105834083Y-75285207D01*
X105822575Y-75173676D01*
X105681759Y-75010981D01*
X105403485Y-74789481D01*
X105041085Y-74541587D01*
X104556961Y-74293256D01*
X103994677Y-74112870D01*
X103421025Y-74016661D01*
X102902802Y-74020860D01*
G36*
X94353694Y-75146215D02*
X94193844Y-75276859D01*
X94167219Y-75333399D01*
X94163288Y-75561270D01*
X94274799Y-75739501D01*
X94455781Y-75837593D01*
X94660266Y-75825051D01*
X94784333Y-75742800D01*
X94876047Y-75548145D01*
X94858363Y-75320175D01*
X94760033Y-75167979D01*
X94568680Y-75102595D01*
X94353694Y-75146215D01*
X94353694Y-75146215D01*
G37*
X94353694Y-75146215D02*
X94193844Y-75276859D01*
X94167219Y-75333399D01*
X94163288Y-75561270D01*
X94274799Y-75739501D01*
X94455781Y-75837593D01*
X94660266Y-75825051D01*
X94784333Y-75742800D01*
X94876047Y-75548145D01*
X94858363Y-75320175D01*
X94760033Y-75167979D01*
X94568680Y-75102595D01*
X94353694Y-75146215D01*
G36*
X106242258Y-75152189D02*
X106177677Y-75320081D01*
X106200649Y-75463400D01*
X106315706Y-75571388D01*
X106486870Y-75583486D01*
X106634891Y-75505545D01*
X106677265Y-75428206D01*
X106658683Y-75227275D01*
X106511304Y-75102194D01*
X106392725Y-75082400D01*
X106242258Y-75152189D01*
X106242258Y-75152189D01*
G37*
X106242258Y-75152189D02*
X106177677Y-75320081D01*
X106200649Y-75463400D01*
X106315706Y-75571388D01*
X106486870Y-75583486D01*
X106634891Y-75505545D01*
X106677265Y-75428206D01*
X106658683Y-75227275D01*
X106511304Y-75102194D01*
X106392725Y-75082400D01*
X106242258Y-75152189D01*
G36*
X105804853Y-73095937D02*
X105765492Y-73233727D01*
X105760172Y-73261225D01*
X105721741Y-73415713D01*
X105656123Y-73510551D01*
X105533088Y-73551102D01*
X105322406Y-73542731D01*
X104993848Y-73490802D01*
X104737016Y-73442772D01*
X103993335Y-73377559D01*
X103281243Y-73475864D01*
X102696433Y-73684746D01*
X102412799Y-73822792D01*
X102278208Y-73908246D01*
X102294916Y-73937643D01*
X102465175Y-73907517D01*
X102569433Y-73880066D01*
X102827694Y-73839957D01*
X103168783Y-73826901D01*
X103437266Y-73838103D01*
X104190190Y-73964793D01*
X104863101Y-74221099D01*
X105495589Y-74623755D01*
X105711194Y-74799314D01*
X105907201Y-74955908D01*
X106032952Y-75010366D01*
X106139542Y-74978654D01*
X106185445Y-74947481D01*
X106340623Y-74849924D01*
X106456164Y-74854404D01*
X106604711Y-74969646D01*
X106639731Y-75002053D01*
X106800253Y-75107344D01*
X106922778Y-75115971D01*
X106979559Y-75107073D01*
X106959018Y-75153985D01*
X106960197Y-75232260D01*
X107060410Y-75251390D01*
X107201835Y-75216028D01*
X107326651Y-75130827D01*
X107332606Y-75123923D01*
X107399316Y-74929164D01*
X107391901Y-74637090D01*
X107353839Y-74452084D01*
X107276394Y-74285452D01*
X107134050Y-74100948D01*
X106901291Y-73862327D01*
X106734753Y-73703600D01*
X106385902Y-73379625D01*
X106138024Y-73165739D01*
X105971582Y-73053075D01*
X105867037Y-73032764D01*
X105804853Y-73095937D01*
X105804853Y-73095937D01*
G37*
X105804853Y-73095937D02*
X105765492Y-73233727D01*
X105760172Y-73261225D01*
X105721741Y-73415713D01*
X105656123Y-73510551D01*
X105533088Y-73551102D01*
X105322406Y-73542731D01*
X104993848Y-73490802D01*
X104737016Y-73442772D01*
X103993335Y-73377559D01*
X103281243Y-73475864D01*
X102696433Y-73684746D01*
X102412799Y-73822792D01*
X102278208Y-73908246D01*
X102294916Y-73937643D01*
X102465175Y-73907517D01*
X102569433Y-73880066D01*
X102827694Y-73839957D01*
X103168783Y-73826901D01*
X103437266Y-73838103D01*
X104190190Y-73964793D01*
X104863101Y-74221099D01*
X105495589Y-74623755D01*
X105711194Y-74799314D01*
X105907201Y-74955908D01*
X106032952Y-75010366D01*
X106139542Y-74978654D01*
X106185445Y-74947481D01*
X106340623Y-74849924D01*
X106456164Y-74854404D01*
X106604711Y-74969646D01*
X106639731Y-75002053D01*
X106800253Y-75107344D01*
X106922778Y-75115971D01*
X106979559Y-75107073D01*
X106959018Y-75153985D01*
X106960197Y-75232260D01*
X107060410Y-75251390D01*
X107201835Y-75216028D01*
X107326651Y-75130827D01*
X107332606Y-75123923D01*
X107399316Y-74929164D01*
X107391901Y-74637090D01*
X107353839Y-74452084D01*
X107276394Y-74285452D01*
X107134050Y-74100948D01*
X106901291Y-73862327D01*
X106734753Y-73703600D01*
X106385902Y-73379625D01*
X106138024Y-73165739D01*
X105971582Y-73053075D01*
X105867037Y-73032764D01*
X105804853Y-73095937D01*
M02*
