G04 #@! TF.FileFunction,Soldermask,Bot*
%FSLAX46Y46*%
G04 Gerber Fmt 4.6, Leading zero omitted, Abs format (unit mm)*
G04 Created by KiCad (PCBNEW (2015-01-16 BZR 5376)-product) date 12-May-17 12:05:33 PM*
%MOMM*%
G01*
G04 APERTURE LIST*
%ADD10C,0.100000*%
%ADD11C,0.150000*%
%ADD12O,2.100000X2.400000*%
%ADD13C,1.924000*%
%ADD14O,2.100000X2.100000*%
%ADD15C,2.400000*%
%ADD16R,2.100000X2.100000*%
%ADD17C,2.000000*%
%ADD18C,3.400000*%
%ADD19R,1.400000X2.100000*%
G04 APERTURE END LIST*
D10*
D11*
X45000000Y-52500000D02*
X45000000Y-107500000D01*
X132500000Y-50000000D02*
X47500000Y-50000000D01*
X135000000Y-107500000D02*
X135000000Y-52500000D01*
X47500000Y-110000000D02*
X132500000Y-110000000D01*
X45000000Y-107500000D02*
G75*
G03X47500000Y-110000000I2500000J0D01*
G01*
X132500000Y-110000000D02*
G75*
G03X135000000Y-107500000I0J2500000D01*
G01*
X135000000Y-52500000D02*
G75*
G03X132500000Y-50000000I-2500000J0D01*
G01*
X47500000Y-50000000D02*
G75*
G03X45000000Y-52500000I0J-2500000D01*
G01*
D12*
X128270000Y-68580000D03*
X125730000Y-68580000D03*
X123190000Y-68580000D03*
X120650000Y-68580000D03*
X118110000Y-68580000D03*
X115570000Y-68580000D03*
X113030000Y-68580000D03*
X110490000Y-68580000D03*
X107950000Y-68580000D03*
X105410000Y-68580000D03*
X102870000Y-68580000D03*
X100330000Y-68580000D03*
X97790000Y-68580000D03*
X95250000Y-68580000D03*
X92710000Y-68580000D03*
X90170000Y-68580000D03*
X87630000Y-68580000D03*
X85090000Y-68580000D03*
X82550000Y-68580000D03*
X82550000Y-91440000D03*
X85090000Y-91440000D03*
X87630000Y-91440000D03*
X90170000Y-91440000D03*
X92710000Y-91440000D03*
X95250000Y-91440000D03*
X97790000Y-91440000D03*
X100330000Y-91440000D03*
X102870000Y-91440000D03*
X105410000Y-91440000D03*
X107950000Y-91440000D03*
X110490000Y-91440000D03*
X113030000Y-91440000D03*
X115570000Y-91440000D03*
X118110000Y-91440000D03*
X120650000Y-91440000D03*
X123190000Y-91440000D03*
X125730000Y-91440000D03*
X128270000Y-91440000D03*
D13*
X87630000Y-52070000D03*
D14*
X90170000Y-52070000D03*
X92710000Y-52070000D03*
D13*
X87630000Y-54610000D03*
D14*
X90170000Y-54610000D03*
X92710000Y-54610000D03*
D13*
X87630000Y-107950000D03*
D14*
X90170000Y-107950000D03*
X92710000Y-107950000D03*
X87630000Y-105410000D03*
X90170000Y-105410000D03*
X92710000Y-105410000D03*
D15*
X49174400Y-107492800D03*
D10*
G36*
X49075405Y-105696749D02*
X47378349Y-107393805D01*
X45681293Y-105696749D01*
X47378349Y-103999693D01*
X49075405Y-105696749D01*
X49075405Y-105696749D01*
G37*
D15*
X130860800Y-107645200D03*
D10*
G36*
X132656851Y-107546205D02*
X130959795Y-105849149D01*
X132656851Y-104152093D01*
X134353907Y-105849149D01*
X132656851Y-107546205D01*
X132656851Y-107546205D01*
G37*
D15*
X131114800Y-52222400D03*
D10*
G36*
X131213795Y-54018451D02*
X132910851Y-52321395D01*
X134607907Y-54018451D01*
X132910851Y-55715507D01*
X131213795Y-54018451D01*
X131213795Y-54018451D01*
G37*
D15*
X46990000Y-53594000D03*
D10*
G36*
X48786051Y-53495005D02*
X47088995Y-51797949D01*
X48786051Y-50100893D01*
X50483107Y-51797949D01*
X48786051Y-53495005D01*
X48786051Y-53495005D01*
G37*
D13*
X85090000Y-107950000D03*
D14*
X82550000Y-107950000D03*
X80010000Y-107950000D03*
X77470000Y-107950000D03*
X74930000Y-107950000D03*
X72390000Y-107950000D03*
X69850000Y-107950000D03*
X67310000Y-107950000D03*
X64770000Y-107950000D03*
D13*
X85090000Y-105410000D03*
D14*
X82550000Y-105410000D03*
X80010000Y-105410000D03*
X77470000Y-105410000D03*
X74930000Y-105410000D03*
X72390000Y-105410000D03*
X69850000Y-105410000D03*
X67310000Y-105410000D03*
X64770000Y-105410000D03*
D13*
X80010000Y-102870000D03*
D14*
X77470000Y-102870000D03*
X74930000Y-102870000D03*
X72390000Y-102870000D03*
X69850000Y-102870000D03*
X67310000Y-102870000D03*
X64770000Y-102870000D03*
X62230000Y-102870000D03*
X59690000Y-102870000D03*
X57150000Y-102870000D03*
X54610000Y-102870000D03*
X52070000Y-102870000D03*
X49530000Y-102870000D03*
D13*
X80010000Y-100330000D03*
D14*
X77470000Y-100330000D03*
X74930000Y-100330000D03*
X72390000Y-100330000D03*
X69850000Y-100330000D03*
X67310000Y-100330000D03*
X64770000Y-100330000D03*
X62230000Y-100330000D03*
X59690000Y-100330000D03*
X57150000Y-100330000D03*
X54610000Y-100330000D03*
X52070000Y-100330000D03*
X49530000Y-100330000D03*
D13*
X80010000Y-97790000D03*
D14*
X77470000Y-97790000D03*
X74930000Y-97790000D03*
X72390000Y-97790000D03*
X69850000Y-97790000D03*
X67310000Y-97790000D03*
X64770000Y-97790000D03*
X62230000Y-97790000D03*
X59690000Y-97790000D03*
X57150000Y-97790000D03*
X54610000Y-97790000D03*
X52070000Y-97790000D03*
X49530000Y-97790000D03*
D13*
X80010000Y-95250000D03*
D14*
X77470000Y-95250000D03*
X74930000Y-95250000D03*
X72390000Y-95250000D03*
X69850000Y-95250000D03*
X67310000Y-95250000D03*
X64770000Y-95250000D03*
X62230000Y-95250000D03*
X59690000Y-95250000D03*
X57150000Y-95250000D03*
X54610000Y-95250000D03*
X52070000Y-95250000D03*
X49530000Y-95250000D03*
D13*
X69850000Y-92710000D03*
D14*
X67310000Y-92710000D03*
X64770000Y-92710000D03*
X62230000Y-92710000D03*
X59690000Y-92710000D03*
X57150000Y-92710000D03*
X54610000Y-92710000D03*
X52070000Y-92710000D03*
X49530000Y-92710000D03*
D13*
X69850000Y-90170000D03*
D14*
X67310000Y-90170000D03*
X64770000Y-90170000D03*
X62230000Y-90170000D03*
X59690000Y-90170000D03*
X57150000Y-90170000D03*
X54610000Y-90170000D03*
X52070000Y-90170000D03*
X49530000Y-90170000D03*
D13*
X69850000Y-87630000D03*
D14*
X67310000Y-87630000D03*
X64770000Y-87630000D03*
X62230000Y-87630000D03*
X59690000Y-87630000D03*
X57150000Y-87630000D03*
X54610000Y-87630000D03*
X52070000Y-87630000D03*
X49530000Y-87630000D03*
D13*
X69850000Y-85090000D03*
D14*
X67310000Y-85090000D03*
X64770000Y-85090000D03*
X62230000Y-85090000D03*
X59690000Y-85090000D03*
X57150000Y-85090000D03*
X54610000Y-85090000D03*
X52070000Y-85090000D03*
X49530000Y-85090000D03*
D13*
X69850000Y-82550000D03*
D14*
X67310000Y-82550000D03*
X64770000Y-82550000D03*
X62230000Y-82550000D03*
X59690000Y-82550000D03*
X57150000Y-82550000D03*
X54610000Y-82550000D03*
X52070000Y-82550000D03*
X49530000Y-82550000D03*
D13*
X69850000Y-80010000D03*
D14*
X67310000Y-80010000D03*
X64770000Y-80010000D03*
X62230000Y-80010000D03*
X59690000Y-80010000D03*
X57150000Y-80010000D03*
X54610000Y-80010000D03*
X52070000Y-80010000D03*
X49530000Y-80010000D03*
D13*
X69850000Y-77470000D03*
D14*
X67310000Y-77470000D03*
X64770000Y-77470000D03*
X62230000Y-77470000D03*
X59690000Y-77470000D03*
X57150000Y-77470000D03*
X54610000Y-77470000D03*
X52070000Y-77470000D03*
X49530000Y-77470000D03*
D13*
X128270000Y-107950000D03*
D14*
X125730000Y-107950000D03*
X123190000Y-107950000D03*
D13*
X128270000Y-105410000D03*
D14*
X125730000Y-105410000D03*
X123190000Y-105410000D03*
D13*
X115570000Y-107950000D03*
D14*
X113030000Y-107950000D03*
X110490000Y-107950000D03*
X107950000Y-107950000D03*
X105410000Y-107950000D03*
X102870000Y-107950000D03*
X100330000Y-107950000D03*
X97790000Y-107950000D03*
X95250000Y-107950000D03*
D13*
X115570000Y-105410000D03*
D14*
X113030000Y-105410000D03*
X110490000Y-105410000D03*
X107950000Y-105410000D03*
X105410000Y-105410000D03*
X102870000Y-105410000D03*
X100330000Y-105410000D03*
X97790000Y-105410000D03*
X95250000Y-105410000D03*
D13*
X128270000Y-102870000D03*
D14*
X125730000Y-102870000D03*
X123190000Y-102870000D03*
X120650000Y-102870000D03*
X118110000Y-102870000D03*
X115570000Y-102870000D03*
X113030000Y-102870000D03*
X110490000Y-102870000D03*
X107950000Y-102870000D03*
X105410000Y-102870000D03*
X102870000Y-102870000D03*
X100330000Y-102870000D03*
X97790000Y-102870000D03*
X95250000Y-102870000D03*
X92710000Y-102870000D03*
X90170000Y-102870000D03*
X87630000Y-102870000D03*
X85090000Y-102870000D03*
X82550000Y-102870000D03*
D13*
X128270000Y-100330000D03*
D14*
X125730000Y-100330000D03*
X123190000Y-100330000D03*
X120650000Y-100330000D03*
X118110000Y-100330000D03*
X115570000Y-100330000D03*
X113030000Y-100330000D03*
X110490000Y-100330000D03*
X107950000Y-100330000D03*
X105410000Y-100330000D03*
X102870000Y-100330000D03*
X100330000Y-100330000D03*
X97790000Y-100330000D03*
X95250000Y-100330000D03*
X92710000Y-100330000D03*
X90170000Y-100330000D03*
X87630000Y-100330000D03*
X85090000Y-100330000D03*
X82550000Y-100330000D03*
D13*
X128270000Y-97790000D03*
D14*
X125730000Y-97790000D03*
X123190000Y-97790000D03*
X120650000Y-97790000D03*
X118110000Y-97790000D03*
X115570000Y-97790000D03*
X113030000Y-97790000D03*
X110490000Y-97790000D03*
X107950000Y-97790000D03*
X105410000Y-97790000D03*
X102870000Y-97790000D03*
X100330000Y-97790000D03*
X97790000Y-97790000D03*
X95250000Y-97790000D03*
X92710000Y-97790000D03*
X90170000Y-97790000D03*
X87630000Y-97790000D03*
X85090000Y-97790000D03*
X82550000Y-97790000D03*
D13*
X128270000Y-95250000D03*
D14*
X125730000Y-95250000D03*
X123190000Y-95250000D03*
X120650000Y-95250000D03*
X118110000Y-95250000D03*
X115570000Y-95250000D03*
X113030000Y-95250000D03*
X110490000Y-95250000D03*
X107950000Y-95250000D03*
X105410000Y-95250000D03*
X102870000Y-95250000D03*
X100330000Y-95250000D03*
X97790000Y-95250000D03*
X95250000Y-95250000D03*
X92710000Y-95250000D03*
X90170000Y-95250000D03*
X87630000Y-95250000D03*
X85090000Y-95250000D03*
X82550000Y-95250000D03*
D13*
X128270000Y-64770000D03*
D14*
X125730000Y-64770000D03*
X123190000Y-64770000D03*
X120650000Y-64770000D03*
X118110000Y-64770000D03*
X115570000Y-64770000D03*
X113030000Y-64770000D03*
X110490000Y-64770000D03*
X107950000Y-64770000D03*
X105410000Y-64770000D03*
X102870000Y-64770000D03*
X100330000Y-64770000D03*
X97790000Y-64770000D03*
X95250000Y-64770000D03*
X92710000Y-64770000D03*
X90170000Y-64770000D03*
X87630000Y-64770000D03*
X85090000Y-64770000D03*
X82550000Y-64770000D03*
D13*
X128270000Y-62230000D03*
D14*
X125730000Y-62230000D03*
X123190000Y-62230000D03*
X120650000Y-62230000D03*
X118110000Y-62230000D03*
X115570000Y-62230000D03*
X113030000Y-62230000D03*
X110490000Y-62230000D03*
X107950000Y-62230000D03*
X105410000Y-62230000D03*
X102870000Y-62230000D03*
X100330000Y-62230000D03*
X97790000Y-62230000D03*
X95250000Y-62230000D03*
X92710000Y-62230000D03*
X90170000Y-62230000D03*
X87630000Y-62230000D03*
X85090000Y-62230000D03*
X82550000Y-62230000D03*
X128270000Y-59690000D03*
X125730000Y-59690000D03*
X123190000Y-59690000D03*
X120650000Y-59690000D03*
X118110000Y-59690000D03*
X115570000Y-59690000D03*
X113030000Y-59690000D03*
X110490000Y-59690000D03*
X107950000Y-59690000D03*
X105410000Y-59690000D03*
X102870000Y-59690000D03*
X100330000Y-59690000D03*
X97790000Y-59690000D03*
X95250000Y-59690000D03*
X92710000Y-59690000D03*
X90170000Y-59690000D03*
X87630000Y-59690000D03*
X85090000Y-59690000D03*
X82550000Y-59690000D03*
D13*
X128270000Y-54610000D03*
D14*
X125730000Y-54610000D03*
X123190000Y-54610000D03*
D13*
X128270000Y-52070000D03*
D14*
X125730000Y-52070000D03*
X123190000Y-52070000D03*
D13*
X128270000Y-57150000D03*
D14*
X125730000Y-57150000D03*
X123190000Y-57150000D03*
X120650000Y-57150000D03*
X118110000Y-57150000D03*
X115570000Y-57150000D03*
X113030000Y-57150000D03*
X110490000Y-57150000D03*
X107950000Y-57150000D03*
X105410000Y-57150000D03*
X102870000Y-57150000D03*
X100330000Y-57150000D03*
X97790000Y-57150000D03*
X95250000Y-57150000D03*
X92710000Y-57150000D03*
X90170000Y-57150000D03*
X87630000Y-57150000D03*
X85090000Y-57150000D03*
X82550000Y-57150000D03*
D13*
X115570000Y-52070000D03*
D14*
X113030000Y-52070000D03*
X110490000Y-52070000D03*
X107950000Y-52070000D03*
X105410000Y-52070000D03*
X102870000Y-52070000D03*
X100330000Y-52070000D03*
X97790000Y-52070000D03*
X95250000Y-52070000D03*
X115570000Y-54610000D03*
X113030000Y-54610000D03*
X110490000Y-54610000D03*
X107950000Y-54610000D03*
X105410000Y-54610000D03*
X102870000Y-54610000D03*
X100330000Y-54610000D03*
X97790000Y-54610000D03*
X95250000Y-54610000D03*
D16*
X64414400Y-52425600D03*
D14*
X66954400Y-52425600D03*
X69494400Y-52425600D03*
D17*
X49436000Y-58976000D03*
X49436000Y-66976000D03*
D18*
X120000000Y-107500000D03*
X60000000Y-107500000D03*
X120000000Y-52500000D03*
X60000000Y-52500000D03*
D19*
X76606400Y-54457600D03*
M02*
