G04 #@! TF.FileFunction,Copper,L2,Bot,Signal*
%FSLAX46Y46*%
G04 Gerber Fmt 4.6, Leading zero omitted, Abs format (unit mm)*
G04 Created by KiCad (PCBNEW 4.0.4-stable) date 12/31/16 17:00:23*
%MOMM*%
%LPD*%
G01*
G04 APERTURE LIST*
%ADD10C,0.100000*%
%ADD11C,0.150000*%
%ADD12O,1.700000X2.000000*%
%ADD13C,1.524000*%
%ADD14O,1.700000X1.700000*%
%ADD15R,1.700000X1.700000*%
%ADD16C,1.600000*%
%ADD17C,3.000000*%
%ADD18C,2.000000*%
%ADD19R,2.000000X2.000000*%
%ADD20R,1.000000X1.700000*%
%ADD21C,0.889000*%
%ADD22C,0.254000*%
%ADD23C,0.500000*%
%ADD24C,0.700000*%
%ADD25C,0.600000*%
%ADD26C,1.000000*%
%ADD27C,0.400000*%
G04 APERTURE END LIST*
D10*
D11*
X45000000Y-52500000D02*
X45000000Y-107500000D01*
X132500000Y-50000000D02*
X47500000Y-50000000D01*
X135000000Y-107500000D02*
X135000000Y-52500000D01*
X47500000Y-110000000D02*
X132500000Y-110000000D01*
X45000000Y-107500000D02*
G75*
G03X47500000Y-110000000I2500000J0D01*
G01*
X132500000Y-110000000D02*
G75*
G03X135000000Y-107500000I0J2500000D01*
G01*
X135000000Y-52500000D02*
G75*
G03X132500000Y-50000000I-2500000J0D01*
G01*
X47500000Y-50000000D02*
G75*
G03X45000000Y-52500000I0J-2500000D01*
G01*
D12*
X128270000Y-68580000D03*
X125730000Y-68580000D03*
X123190000Y-68580000D03*
X120650000Y-68580000D03*
X118110000Y-68580000D03*
X115570000Y-68580000D03*
X113030000Y-68580000D03*
X110490000Y-68580000D03*
X107950000Y-68580000D03*
X105410000Y-68580000D03*
X102870000Y-68580000D03*
X100330000Y-68580000D03*
X97790000Y-68580000D03*
X95250000Y-68580000D03*
X92710000Y-68580000D03*
X90170000Y-68580000D03*
X87630000Y-68580000D03*
X85090000Y-68580000D03*
X82550000Y-68580000D03*
X82550000Y-91440000D03*
X85090000Y-91440000D03*
X87630000Y-91440000D03*
X90170000Y-91440000D03*
X92710000Y-91440000D03*
X95250000Y-91440000D03*
X97790000Y-91440000D03*
X100330000Y-91440000D03*
X102870000Y-91440000D03*
X105410000Y-91440000D03*
X107950000Y-91440000D03*
X110490000Y-91440000D03*
X113030000Y-91440000D03*
X115570000Y-91440000D03*
X118110000Y-91440000D03*
X120650000Y-91440000D03*
X123190000Y-91440000D03*
X125730000Y-91440000D03*
X128270000Y-91440000D03*
D13*
X85090000Y-107950000D03*
D14*
X82550000Y-107950000D03*
X80010000Y-107950000D03*
X77470000Y-107950000D03*
X74930000Y-107950000D03*
X72390000Y-107950000D03*
X69850000Y-107950000D03*
X67310000Y-107950000D03*
X64770000Y-107950000D03*
D13*
X85090000Y-105410000D03*
D14*
X82550000Y-105410000D03*
X80010000Y-105410000D03*
X77470000Y-105410000D03*
X74930000Y-105410000D03*
X72390000Y-105410000D03*
X69850000Y-105410000D03*
X67310000Y-105410000D03*
X64770000Y-105410000D03*
D13*
X80010000Y-102870000D03*
D14*
X77470000Y-102870000D03*
X74930000Y-102870000D03*
X72390000Y-102870000D03*
X69850000Y-102870000D03*
X67310000Y-102870000D03*
X64770000Y-102870000D03*
X62230000Y-102870000D03*
X59690000Y-102870000D03*
X57150000Y-102870000D03*
X54610000Y-102870000D03*
X52070000Y-102870000D03*
X49530000Y-102870000D03*
D13*
X80010000Y-100330000D03*
D14*
X77470000Y-100330000D03*
X74930000Y-100330000D03*
X72390000Y-100330000D03*
X69850000Y-100330000D03*
X67310000Y-100330000D03*
X64770000Y-100330000D03*
X62230000Y-100330000D03*
X59690000Y-100330000D03*
X57150000Y-100330000D03*
X54610000Y-100330000D03*
X52070000Y-100330000D03*
X49530000Y-100330000D03*
D13*
X80010000Y-97790000D03*
D14*
X77470000Y-97790000D03*
X74930000Y-97790000D03*
X72390000Y-97790000D03*
X69850000Y-97790000D03*
X67310000Y-97790000D03*
X64770000Y-97790000D03*
X62230000Y-97790000D03*
X59690000Y-97790000D03*
X57150000Y-97790000D03*
X54610000Y-97790000D03*
X52070000Y-97790000D03*
X49530000Y-97790000D03*
D13*
X80010000Y-95250000D03*
D14*
X77470000Y-95250000D03*
X74930000Y-95250000D03*
X72390000Y-95250000D03*
X69850000Y-95250000D03*
X67310000Y-95250000D03*
X64770000Y-95250000D03*
X62230000Y-95250000D03*
X59690000Y-95250000D03*
X57150000Y-95250000D03*
X54610000Y-95250000D03*
X52070000Y-95250000D03*
X49530000Y-95250000D03*
D13*
X69850000Y-92710000D03*
D14*
X67310000Y-92710000D03*
X64770000Y-92710000D03*
X62230000Y-92710000D03*
X59690000Y-92710000D03*
X57150000Y-92710000D03*
X54610000Y-92710000D03*
X52070000Y-92710000D03*
X49530000Y-92710000D03*
D13*
X69850000Y-90170000D03*
D14*
X67310000Y-90170000D03*
X64770000Y-90170000D03*
X62230000Y-90170000D03*
X59690000Y-90170000D03*
X57150000Y-90170000D03*
X54610000Y-90170000D03*
X52070000Y-90170000D03*
X49530000Y-90170000D03*
D13*
X69850000Y-87630000D03*
D14*
X67310000Y-87630000D03*
X64770000Y-87630000D03*
X62230000Y-87630000D03*
X59690000Y-87630000D03*
X57150000Y-87630000D03*
X54610000Y-87630000D03*
X52070000Y-87630000D03*
X49530000Y-87630000D03*
D13*
X69850000Y-85090000D03*
D14*
X67310000Y-85090000D03*
X64770000Y-85090000D03*
X62230000Y-85090000D03*
X59690000Y-85090000D03*
X57150000Y-85090000D03*
X54610000Y-85090000D03*
X52070000Y-85090000D03*
X49530000Y-85090000D03*
D13*
X69850000Y-82550000D03*
D14*
X67310000Y-82550000D03*
X64770000Y-82550000D03*
X62230000Y-82550000D03*
X59690000Y-82550000D03*
X57150000Y-82550000D03*
X54610000Y-82550000D03*
X52070000Y-82550000D03*
X49530000Y-82550000D03*
D13*
X69850000Y-80010000D03*
D14*
X67310000Y-80010000D03*
X64770000Y-80010000D03*
X62230000Y-80010000D03*
X59690000Y-80010000D03*
X57150000Y-80010000D03*
X54610000Y-80010000D03*
X52070000Y-80010000D03*
X49530000Y-80010000D03*
D13*
X69850000Y-77470000D03*
D14*
X67310000Y-77470000D03*
X64770000Y-77470000D03*
X62230000Y-77470000D03*
X59690000Y-77470000D03*
X57150000Y-77470000D03*
X54610000Y-77470000D03*
X52070000Y-77470000D03*
X49530000Y-77470000D03*
D13*
X128270000Y-107950000D03*
D14*
X125730000Y-107950000D03*
X123190000Y-107950000D03*
D13*
X128270000Y-105410000D03*
D14*
X125730000Y-105410000D03*
X123190000Y-105410000D03*
D13*
X115570000Y-107950000D03*
D14*
X113030000Y-107950000D03*
X110490000Y-107950000D03*
X107950000Y-107950000D03*
X105410000Y-107950000D03*
X102870000Y-107950000D03*
X100330000Y-107950000D03*
X97790000Y-107950000D03*
X95250000Y-107950000D03*
D13*
X115570000Y-105410000D03*
D14*
X113030000Y-105410000D03*
X110490000Y-105410000D03*
X107950000Y-105410000D03*
X105410000Y-105410000D03*
X102870000Y-105410000D03*
X100330000Y-105410000D03*
X97790000Y-105410000D03*
X95250000Y-105410000D03*
D13*
X128270000Y-102870000D03*
D14*
X125730000Y-102870000D03*
X123190000Y-102870000D03*
X120650000Y-102870000D03*
X118110000Y-102870000D03*
X115570000Y-102870000D03*
X113030000Y-102870000D03*
X110490000Y-102870000D03*
X107950000Y-102870000D03*
X105410000Y-102870000D03*
X102870000Y-102870000D03*
X100330000Y-102870000D03*
X97790000Y-102870000D03*
X95250000Y-102870000D03*
X92710000Y-102870000D03*
X90170000Y-102870000D03*
X87630000Y-102870000D03*
X85090000Y-102870000D03*
X82550000Y-102870000D03*
D13*
X128270000Y-100330000D03*
D14*
X125730000Y-100330000D03*
X123190000Y-100330000D03*
X120650000Y-100330000D03*
X118110000Y-100330000D03*
X115570000Y-100330000D03*
X113030000Y-100330000D03*
X110490000Y-100330000D03*
X107950000Y-100330000D03*
X105410000Y-100330000D03*
X102870000Y-100330000D03*
X100330000Y-100330000D03*
X97790000Y-100330000D03*
X95250000Y-100330000D03*
X92710000Y-100330000D03*
X90170000Y-100330000D03*
X87630000Y-100330000D03*
X85090000Y-100330000D03*
X82550000Y-100330000D03*
D13*
X128270000Y-97790000D03*
D14*
X125730000Y-97790000D03*
X123190000Y-97790000D03*
X120650000Y-97790000D03*
X118110000Y-97790000D03*
X115570000Y-97790000D03*
X113030000Y-97790000D03*
X110490000Y-97790000D03*
X107950000Y-97790000D03*
X105410000Y-97790000D03*
X102870000Y-97790000D03*
X100330000Y-97790000D03*
X97790000Y-97790000D03*
X95250000Y-97790000D03*
X92710000Y-97790000D03*
X90170000Y-97790000D03*
X87630000Y-97790000D03*
X85090000Y-97790000D03*
X82550000Y-97790000D03*
D13*
X128270000Y-95250000D03*
D14*
X125730000Y-95250000D03*
X123190000Y-95250000D03*
X120650000Y-95250000D03*
X118110000Y-95250000D03*
X115570000Y-95250000D03*
X113030000Y-95250000D03*
X110490000Y-95250000D03*
X107950000Y-95250000D03*
X105410000Y-95250000D03*
X102870000Y-95250000D03*
X100330000Y-95250000D03*
X97790000Y-95250000D03*
X95250000Y-95250000D03*
X92710000Y-95250000D03*
X90170000Y-95250000D03*
X87630000Y-95250000D03*
X85090000Y-95250000D03*
X82550000Y-95250000D03*
D13*
X128270000Y-64770000D03*
D14*
X125730000Y-64770000D03*
X123190000Y-64770000D03*
X120650000Y-64770000D03*
X118110000Y-64770000D03*
X115570000Y-64770000D03*
X113030000Y-64770000D03*
X110490000Y-64770000D03*
X107950000Y-64770000D03*
X105410000Y-64770000D03*
X102870000Y-64770000D03*
X100330000Y-64770000D03*
X97790000Y-64770000D03*
X95250000Y-64770000D03*
X92710000Y-64770000D03*
X90170000Y-64770000D03*
X87630000Y-64770000D03*
X85090000Y-64770000D03*
X82550000Y-64770000D03*
D13*
X128270000Y-62230000D03*
D14*
X125730000Y-62230000D03*
X123190000Y-62230000D03*
X120650000Y-62230000D03*
X118110000Y-62230000D03*
X115570000Y-62230000D03*
X113030000Y-62230000D03*
X110490000Y-62230000D03*
X107950000Y-62230000D03*
X105410000Y-62230000D03*
X102870000Y-62230000D03*
X100330000Y-62230000D03*
X97790000Y-62230000D03*
X95250000Y-62230000D03*
X92710000Y-62230000D03*
X90170000Y-62230000D03*
X87630000Y-62230000D03*
X85090000Y-62230000D03*
X82550000Y-62230000D03*
X128270000Y-59690000D03*
X125730000Y-59690000D03*
X123190000Y-59690000D03*
X120650000Y-59690000D03*
X118110000Y-59690000D03*
X115570000Y-59690000D03*
X113030000Y-59690000D03*
X110490000Y-59690000D03*
X107950000Y-59690000D03*
X105410000Y-59690000D03*
X102870000Y-59690000D03*
X100330000Y-59690000D03*
X97790000Y-59690000D03*
X95250000Y-59690000D03*
X92710000Y-59690000D03*
X90170000Y-59690000D03*
X87630000Y-59690000D03*
X85090000Y-59690000D03*
X82550000Y-59690000D03*
D13*
X128270000Y-54610000D03*
D14*
X125730000Y-54610000D03*
X123190000Y-54610000D03*
D13*
X128270000Y-52070000D03*
D14*
X125730000Y-52070000D03*
X123190000Y-52070000D03*
D13*
X128270000Y-57150000D03*
D14*
X125730000Y-57150000D03*
X123190000Y-57150000D03*
X120650000Y-57150000D03*
X118110000Y-57150000D03*
X115570000Y-57150000D03*
X113030000Y-57150000D03*
X110490000Y-57150000D03*
X107950000Y-57150000D03*
X105410000Y-57150000D03*
X102870000Y-57150000D03*
X100330000Y-57150000D03*
X97790000Y-57150000D03*
X95250000Y-57150000D03*
X92710000Y-57150000D03*
X90170000Y-57150000D03*
X87630000Y-57150000D03*
X85090000Y-57150000D03*
X82550000Y-57150000D03*
D13*
X115570000Y-52070000D03*
D14*
X113030000Y-52070000D03*
X110490000Y-52070000D03*
X107950000Y-52070000D03*
X105410000Y-52070000D03*
X102870000Y-52070000D03*
X100330000Y-52070000D03*
X97790000Y-52070000D03*
X95250000Y-52070000D03*
X115570000Y-54610000D03*
X113030000Y-54610000D03*
X110490000Y-54610000D03*
X107950000Y-54610000D03*
X105410000Y-54610000D03*
X102870000Y-54610000D03*
X100330000Y-54610000D03*
X97790000Y-54610000D03*
X95250000Y-54610000D03*
D15*
X64414400Y-52425600D03*
D14*
X66954400Y-52425600D03*
X69494400Y-52425600D03*
D16*
X49436000Y-58976000D03*
X49436000Y-66976000D03*
D17*
X120000000Y-107500000D03*
X60000000Y-107500000D03*
X120000000Y-52500000D03*
X60000000Y-52500000D03*
D10*
G36*
X49174400Y-106078586D02*
X50588614Y-107492800D01*
X49174400Y-108907014D01*
X47760186Y-107492800D01*
X49174400Y-106078586D01*
X49174400Y-106078586D01*
G37*
D18*
X47378349Y-105696749D03*
D10*
G36*
X48404214Y-53594000D02*
X46990000Y-55008214D01*
X45575786Y-53594000D01*
X46990000Y-52179786D01*
X48404214Y-53594000D01*
X48404214Y-53594000D01*
G37*
D18*
X48786051Y-51797949D03*
D19*
X88900000Y-106781600D03*
D18*
X91440000Y-106781600D03*
D19*
X88696800Y-52984400D03*
D18*
X91236800Y-52984400D03*
D10*
G36*
X132275014Y-107645200D02*
X130860800Y-109059414D01*
X129446586Y-107645200D01*
X130860800Y-106230986D01*
X132275014Y-107645200D01*
X132275014Y-107645200D01*
G37*
D18*
X132656851Y-105849149D03*
D10*
G36*
X131114800Y-53636614D02*
X129700586Y-52222400D01*
X131114800Y-50808186D01*
X132529014Y-52222400D01*
X131114800Y-53636614D01*
X131114800Y-53636614D01*
G37*
D18*
X132910851Y-54018451D03*
D20*
X76606400Y-54457600D03*
D21*
X79756000Y-58115200D03*
X69088000Y-55676800D03*
X58369200Y-64058800D03*
X74726800Y-81178400D03*
X54559200Y-59131200D03*
X61823600Y-70967600D03*
X76250800Y-66700400D03*
X74523600Y-57200800D03*
X83312000Y-55575200D03*
X46278800Y-58420000D03*
X52374800Y-54660800D03*
X121158000Y-105156000D03*
X73660000Y-93878400D03*
X73558400Y-76301600D03*
X73761600Y-73152000D03*
X61417200Y-56337200D03*
X75336400Y-78892400D03*
X105308400Y-72034400D03*
X79756000Y-70815200D03*
X75336400Y-62534800D03*
X61417200Y-67665600D03*
X74523600Y-77368400D03*
X107746800Y-74066400D03*
X109372400Y-72898000D03*
X81940400Y-71323200D03*
X62026800Y-61722000D03*
X83616800Y-70459600D03*
X62738000Y-59486800D03*
X82092800Y-53238400D03*
X79298800Y-62331600D03*
X64160400Y-66090800D03*
X73914000Y-71628000D03*
X74930000Y-68427600D03*
D22*
X78181200Y-58115200D02*
X79756000Y-58115200D01*
X78130400Y-58166000D02*
X78181200Y-58115200D01*
X71577200Y-58166000D02*
X78130400Y-58166000D01*
X69088000Y-55676800D02*
X71577200Y-58166000D01*
X58420000Y-64109600D02*
X58369200Y-64058800D01*
X58420000Y-81026000D02*
X58420000Y-64109600D01*
X58674000Y-81280000D02*
X58420000Y-81026000D01*
X74625200Y-81280000D02*
X58674000Y-81280000D01*
X74726800Y-81178400D02*
X74625200Y-81280000D01*
D23*
X66954400Y-52425600D02*
X66954400Y-54000400D01*
X54559200Y-58013600D02*
X54559200Y-59131200D01*
X57251600Y-55321200D02*
X54559200Y-58013600D01*
X65633600Y-55321200D02*
X57251600Y-55321200D01*
X66954400Y-54000400D02*
X65633600Y-55321200D01*
X61823600Y-69850000D02*
X61823600Y-70967600D01*
X60045600Y-68072000D02*
X61823600Y-69850000D01*
X60045600Y-65430400D02*
X60045600Y-68072000D01*
X60706000Y-64770000D02*
X60045600Y-65430400D01*
X74320400Y-64770000D02*
X60706000Y-64770000D01*
X76250800Y-66700400D02*
X74320400Y-64770000D01*
D24*
X97790000Y-68580000D02*
X97790000Y-70408800D01*
X115570000Y-88188800D02*
X115570000Y-91440000D01*
X97790000Y-70408800D02*
X115570000Y-88188800D01*
D25*
X74523600Y-57200800D02*
X74574400Y-57150000D01*
X74574400Y-57150000D02*
X75539600Y-57150000D01*
X75539600Y-57150000D02*
X76606400Y-56083200D01*
D23*
X76606400Y-56083200D02*
X76606400Y-54457600D01*
X77216000Y-56692800D02*
X76606400Y-56083200D01*
X78181200Y-56692800D02*
X77216000Y-56692800D01*
X79349600Y-55524400D02*
X78181200Y-56692800D01*
X83261200Y-55524400D02*
X79349600Y-55524400D01*
X83312000Y-55575200D02*
X83261200Y-55524400D01*
D24*
X82550000Y-64770000D02*
X82550000Y-65379600D01*
X82550000Y-65379600D02*
X83718400Y-66548000D01*
X96012000Y-66548000D02*
X97790000Y-64770000D01*
X83718400Y-66548000D02*
X96012000Y-66548000D01*
D25*
X76606400Y-54457600D02*
X67259200Y-54457600D01*
X66954400Y-54152800D02*
X66954400Y-52425600D01*
X67259200Y-54457600D02*
X66954400Y-54152800D01*
D26*
X82550000Y-64770000D02*
X82550000Y-68580000D01*
X115570000Y-91440000D02*
X115570000Y-95250000D01*
X97790000Y-68580000D02*
X97790000Y-64770000D01*
D24*
X50393600Y-53405498D02*
X48786051Y-51797949D01*
X50393600Y-54305200D02*
X50393600Y-53405498D01*
X46278800Y-58420000D02*
X50393600Y-54305200D01*
D22*
X91236800Y-52984400D02*
X91236800Y-51714400D01*
X62230000Y-54660800D02*
X52374800Y-54660800D01*
X62433200Y-54457600D02*
X62230000Y-54660800D01*
X62433200Y-51612800D02*
X62433200Y-54457600D01*
X63042800Y-51003200D02*
X62433200Y-51612800D01*
X70104000Y-51003200D02*
X63042800Y-51003200D01*
X70510400Y-51409600D02*
X70104000Y-51003200D01*
X90932000Y-51409600D02*
X70510400Y-51409600D01*
X91236800Y-51714400D02*
X90932000Y-51409600D01*
X88696800Y-52984400D02*
X88696800Y-55016400D01*
X132910851Y-55252349D02*
X132910851Y-54018451D01*
X132283200Y-55880000D02*
X132910851Y-55252349D01*
X129489200Y-55880000D02*
X132283200Y-55880000D01*
X125984000Y-55880000D02*
X129489200Y-55880000D01*
X119075200Y-55880000D02*
X125984000Y-55880000D01*
X89560400Y-55880000D02*
X119075200Y-55880000D01*
X88696800Y-55016400D02*
X89560400Y-55880000D01*
X121158000Y-105156000D02*
X120142000Y-104140000D01*
X120142000Y-104140000D02*
X74117200Y-104140000D01*
X74117200Y-104140000D02*
X73660000Y-103682800D01*
X73660000Y-103682800D02*
X73660000Y-93878400D01*
X73558400Y-76301600D02*
X73761600Y-76098400D01*
X73761600Y-76098400D02*
X73761600Y-73152000D01*
X59283600Y-58470800D02*
X61417200Y-56337200D01*
X59283600Y-68275200D02*
X59283600Y-58470800D01*
X60909200Y-69900800D02*
X59283600Y-68275200D01*
X60909200Y-78435200D02*
X60909200Y-69900800D01*
X61214000Y-78740000D02*
X60909200Y-78435200D01*
X68834000Y-78740000D02*
X61214000Y-78740000D01*
X68884800Y-78689200D02*
X68834000Y-78740000D01*
X75133200Y-78689200D02*
X68884800Y-78689200D01*
D27*
X75336400Y-78892400D02*
X75133200Y-78689200D01*
D22*
X120650000Y-72644000D02*
X120650000Y-68580000D01*
X118313200Y-74980800D02*
X120650000Y-72644000D01*
X106527600Y-74980800D02*
X118313200Y-74980800D01*
X105257600Y-73710800D02*
X106527600Y-74980800D01*
X105257600Y-72085200D02*
X105257600Y-73710800D01*
X105308400Y-72034400D02*
X105257600Y-72085200D01*
X79756000Y-66954400D02*
X79756000Y-70815200D01*
X75336400Y-62534800D02*
X79756000Y-66954400D01*
X62179200Y-67665600D02*
X61417200Y-67665600D01*
X71882000Y-77368400D02*
X62179200Y-67665600D01*
X74523600Y-77368400D02*
X71882000Y-77368400D01*
X115570000Y-72694800D02*
X115570000Y-68580000D01*
X114147600Y-74117200D02*
X115570000Y-72694800D01*
X107797600Y-74117200D02*
X114147600Y-74117200D01*
X107746800Y-74066400D02*
X107797600Y-74117200D01*
X113030000Y-72034400D02*
X113030000Y-68580000D01*
X112166400Y-72898000D02*
X113030000Y-72034400D01*
X109372400Y-72898000D02*
X112166400Y-72898000D01*
X81432400Y-71323200D02*
X81940400Y-71323200D01*
X80365600Y-70256400D02*
X81432400Y-71323200D01*
X80365600Y-65887600D02*
X80365600Y-70256400D01*
X76149200Y-61671200D02*
X80365600Y-65887600D01*
X62077600Y-61671200D02*
X76149200Y-61671200D01*
X62026800Y-61722000D02*
X62077600Y-61671200D01*
X81635600Y-70459600D02*
X83616800Y-70459600D01*
X81178400Y-70002400D02*
X81635600Y-70459600D01*
X81178400Y-65582800D02*
X81178400Y-70002400D01*
X78486000Y-62890400D02*
X81178400Y-65582800D01*
X78486000Y-60960000D02*
X78486000Y-62890400D01*
X76962000Y-59436000D02*
X78486000Y-60960000D01*
X62788800Y-59436000D02*
X76962000Y-59436000D01*
X62738000Y-59486800D02*
X62788800Y-59436000D01*
X93980000Y-63500000D02*
X95250000Y-64770000D01*
X89408000Y-63500000D02*
X93980000Y-63500000D01*
X88849200Y-62941200D02*
X89408000Y-63500000D01*
X88849200Y-56438800D02*
X88849200Y-62941200D01*
X87528400Y-55118000D02*
X88849200Y-56438800D01*
X83972400Y-55118000D02*
X87528400Y-55118000D01*
X82092800Y-53238400D02*
X83972400Y-55118000D01*
X87630000Y-64770000D02*
X87630000Y-63957200D01*
X87630000Y-63957200D02*
X87172800Y-63500000D01*
X80467200Y-63500000D02*
X79298800Y-62331600D01*
X87172800Y-63500000D02*
X80467200Y-63500000D01*
X85090000Y-71424800D02*
X85090000Y-68580000D01*
X84378800Y-72136000D02*
X85090000Y-71424800D01*
X79857600Y-72136000D02*
X84378800Y-72136000D01*
X75336400Y-67614800D02*
X79857600Y-72136000D01*
X74320400Y-67614800D02*
X75336400Y-67614800D01*
X74218800Y-67716400D02*
X74320400Y-67614800D01*
X68021200Y-67716400D02*
X74218800Y-67716400D01*
X66395600Y-66090800D02*
X68021200Y-67716400D01*
X64160400Y-66090800D02*
X66395600Y-66090800D01*
X73914000Y-69443600D02*
X73914000Y-71628000D01*
X74930000Y-68427600D02*
X73914000Y-69443600D01*
M02*
