M48
;DRILL file {KiCad 4.0.4-stable} date 04/27/17 17:41:08
;FORMAT={-:-/ absolute / metric / decimal}
FMAT,2
METRIC,TZ
T1C0.500
T2C0.635
T3C0.762
T4C0.800
T5C1.000
T6C1.001
T7C1.500
%
G90
G05
M71
T1
X62.103Y-62.103
X62.611Y-65.913
X63.754Y-65.151
X69.469Y-67.437
X71.755Y-67.564
X74.93Y-66.167
X78.359Y-65.659
X80.01Y-71.882
X80.645Y-60.452
X81.28Y-73.025
X82.296Y-53.34
X103.251Y-73.787
T2
X46.279Y-58.42
X52.375Y-54.661
X54.559Y-59.131
X58.369Y-64.059
X69.088Y-55.677
X73.558Y-76.302
X73.66Y-93.878
X73.762Y-73.152
X74.524Y-57.201
X74.727Y-81.178
X75.336Y-62.535
X79.756Y-58.115
X83.312Y-55.575
X121.158Y-105.156
T3
X69.85Y-77.47
X69.85Y-80.01
X69.85Y-82.55
X69.85Y-85.09
X69.85Y-87.63
X69.85Y-90.17
X69.85Y-92.71
X80.01Y-95.25
X80.01Y-97.79
X80.01Y-100.33
X80.01Y-102.87
X82.55Y-68.58
X82.55Y-91.44
X85.09Y-68.58
X85.09Y-91.44
X85.09Y-105.41
X85.09Y-107.95
X87.63Y-52.07
X87.63Y-54.61
X87.63Y-68.58
X87.63Y-91.44
X87.63Y-107.95
X90.17Y-68.58
X90.17Y-91.44
X92.71Y-68.58
X92.71Y-91.44
X95.25Y-68.58
X95.25Y-91.44
X97.79Y-68.58
X97.79Y-91.44
X100.33Y-68.58
X100.33Y-91.44
X102.87Y-68.58
X102.87Y-91.44
X105.41Y-68.58
X105.41Y-91.44
X107.95Y-68.58
X107.95Y-91.44
X110.49Y-68.58
X110.49Y-91.44
X113.03Y-68.58
X113.03Y-91.44
X115.57Y-52.07
X115.57Y-68.58
X115.57Y-91.44
X115.57Y-105.41
X115.57Y-107.95
X118.11Y-68.58
X118.11Y-91.44
X120.65Y-68.58
X120.65Y-91.44
X123.19Y-68.58
X123.19Y-91.44
X125.73Y-68.58
X125.73Y-91.44
X128.27Y-52.07
X128.27Y-54.61
X128.27Y-57.15
X128.27Y-62.23
X128.27Y-64.77
X128.27Y-68.58
X128.27Y-91.44
X128.27Y-95.25
X128.27Y-97.79
X128.27Y-100.33
X128.27Y-102.87
X128.27Y-105.41
X128.27Y-107.95
T4
X76.606Y-54.458
T5
X49.53Y-77.47
X49.53Y-80.01
X49.53Y-82.55
X49.53Y-85.09
X49.53Y-87.63
X49.53Y-90.17
X49.53Y-92.71
X49.53Y-95.25
X49.53Y-97.79
X49.53Y-100.33
X49.53Y-102.87
X52.07Y-77.47
X52.07Y-80.01
X52.07Y-82.55
X52.07Y-85.09
X52.07Y-87.63
X52.07Y-90.17
X52.07Y-92.71
X52.07Y-95.25
X52.07Y-97.79
X52.07Y-100.33
X52.07Y-102.87
X54.61Y-77.47
X54.61Y-80.01
X54.61Y-82.55
X54.61Y-85.09
X54.61Y-87.63
X54.61Y-90.17
X54.61Y-92.71
X54.61Y-95.25
X54.61Y-97.79
X54.61Y-100.33
X54.61Y-102.87
X57.15Y-77.47
X57.15Y-80.01
X57.15Y-82.55
X57.15Y-85.09
X57.15Y-87.63
X57.15Y-90.17
X57.15Y-92.71
X57.15Y-95.25
X57.15Y-97.79
X57.15Y-100.33
X57.15Y-102.87
X59.69Y-77.47
X59.69Y-80.01
X59.69Y-82.55
X59.69Y-85.09
X59.69Y-87.63
X59.69Y-90.17
X59.69Y-92.71
X59.69Y-95.25
X59.69Y-97.79
X59.69Y-100.33
X59.69Y-102.87
X62.23Y-77.47
X62.23Y-80.01
X62.23Y-82.55
X62.23Y-85.09
X62.23Y-87.63
X62.23Y-90.17
X62.23Y-92.71
X62.23Y-95.25
X62.23Y-97.79
X62.23Y-100.33
X62.23Y-102.87
X64.414Y-52.426
X64.77Y-77.47
X64.77Y-80.01
X64.77Y-82.55
X64.77Y-85.09
X64.77Y-87.63
X64.77Y-90.17
X64.77Y-92.71
X64.77Y-95.25
X64.77Y-97.79
X64.77Y-100.33
X64.77Y-102.87
X64.77Y-105.41
X64.77Y-107.95
X66.954Y-52.426
X67.31Y-77.47
X67.31Y-80.01
X67.31Y-82.55
X67.31Y-85.09
X67.31Y-87.63
X67.31Y-90.17
X67.31Y-92.71
X67.31Y-95.25
X67.31Y-97.79
X67.31Y-100.33
X67.31Y-102.87
X67.31Y-105.41
X67.31Y-107.95
X69.494Y-52.426
X69.85Y-95.25
X69.85Y-97.79
X69.85Y-100.33
X69.85Y-102.87
X69.85Y-105.41
X69.85Y-107.95
X72.39Y-95.25
X72.39Y-97.79
X72.39Y-100.33
X72.39Y-102.87
X72.39Y-105.41
X72.39Y-107.95
X74.93Y-95.25
X74.93Y-97.79
X74.93Y-100.33
X74.93Y-102.87
X74.93Y-105.41
X74.93Y-107.95
X77.47Y-95.25
X77.47Y-97.79
X77.47Y-100.33
X77.47Y-102.87
X77.47Y-105.41
X77.47Y-107.95
X80.01Y-105.41
X80.01Y-107.95
X82.55Y-57.15
X82.55Y-59.69
X82.55Y-62.23
X82.55Y-64.77
X82.55Y-95.25
X82.55Y-97.79
X82.55Y-100.33
X82.55Y-102.87
X82.55Y-105.41
X82.55Y-107.95
X85.09Y-57.15
X85.09Y-59.69
X85.09Y-62.23
X85.09Y-64.77
X85.09Y-95.25
X85.09Y-97.79
X85.09Y-100.33
X85.09Y-102.87
X87.63Y-57.15
X87.63Y-59.69
X87.63Y-62.23
X87.63Y-64.77
X87.63Y-95.25
X87.63Y-97.79
X87.63Y-100.33
X87.63Y-102.87
X87.63Y-105.41
X90.17Y-52.07
X90.17Y-54.61
X90.17Y-57.15
X90.17Y-59.69
X90.17Y-62.23
X90.17Y-64.77
X90.17Y-95.25
X90.17Y-97.79
X90.17Y-100.33
X90.17Y-102.87
X90.17Y-105.41
X90.17Y-107.95
X92.71Y-52.07
X92.71Y-54.61
X92.71Y-57.15
X92.71Y-59.69
X92.71Y-62.23
X92.71Y-64.77
X92.71Y-95.25
X92.71Y-97.79
X92.71Y-100.33
X92.71Y-102.87
X92.71Y-105.41
X92.71Y-107.95
X95.25Y-52.07
X95.25Y-54.61
X95.25Y-57.15
X95.25Y-59.69
X95.25Y-62.23
X95.25Y-64.77
X95.25Y-95.25
X95.25Y-97.79
X95.25Y-100.33
X95.25Y-102.87
X95.25Y-105.41
X95.25Y-107.95
X97.79Y-52.07
X97.79Y-54.61
X97.79Y-57.15
X97.79Y-59.69
X97.79Y-62.23
X97.79Y-64.77
X97.79Y-95.25
X97.79Y-97.79
X97.79Y-100.33
X97.79Y-102.87
X97.79Y-105.41
X97.79Y-107.95
X100.33Y-52.07
X100.33Y-54.61
X100.33Y-57.15
X100.33Y-59.69
X100.33Y-62.23
X100.33Y-64.77
X100.33Y-95.25
X100.33Y-97.79
X100.33Y-100.33
X100.33Y-102.87
X100.33Y-105.41
X100.33Y-107.95
X102.87Y-52.07
X102.87Y-54.61
X102.87Y-57.15
X102.87Y-59.69
X102.87Y-62.23
X102.87Y-64.77
X102.87Y-95.25
X102.87Y-97.79
X102.87Y-100.33
X102.87Y-102.87
X102.87Y-105.41
X102.87Y-107.95
X105.41Y-52.07
X105.41Y-54.61
X105.41Y-57.15
X105.41Y-59.69
X105.41Y-62.23
X105.41Y-64.77
X105.41Y-95.25
X105.41Y-97.79
X105.41Y-100.33
X105.41Y-102.87
X105.41Y-105.41
X105.41Y-107.95
X107.95Y-52.07
X107.95Y-54.61
X107.95Y-57.15
X107.95Y-59.69
X107.95Y-62.23
X107.95Y-64.77
X107.95Y-95.25
X107.95Y-97.79
X107.95Y-100.33
X107.95Y-102.87
X107.95Y-105.41
X107.95Y-107.95
X110.49Y-52.07
X110.49Y-54.61
X110.49Y-57.15
X110.49Y-59.69
X110.49Y-62.23
X110.49Y-64.77
X110.49Y-95.25
X110.49Y-97.79
X110.49Y-100.33
X110.49Y-102.87
X110.49Y-105.41
X110.49Y-107.95
X113.03Y-52.07
X113.03Y-54.61
X113.03Y-57.15
X113.03Y-59.69
X113.03Y-62.23
X113.03Y-64.77
X113.03Y-95.25
X113.03Y-97.79
X113.03Y-100.33
X113.03Y-102.87
X113.03Y-105.41
X113.03Y-107.95
X115.57Y-54.61
X115.57Y-57.15
X115.57Y-59.69
X115.57Y-62.23
X115.57Y-64.77
X115.57Y-95.25
X115.57Y-97.79
X115.57Y-100.33
X115.57Y-102.87
X118.11Y-57.15
X118.11Y-59.69
X118.11Y-62.23
X118.11Y-64.77
X118.11Y-95.25
X118.11Y-97.79
X118.11Y-100.33
X118.11Y-102.87
X120.65Y-57.15
X120.65Y-59.69
X120.65Y-62.23
X120.65Y-64.77
X120.65Y-95.25
X120.65Y-97.79
X120.65Y-100.33
X120.65Y-102.87
X123.19Y-52.07
X123.19Y-54.61
X123.19Y-57.15
X123.19Y-59.69
X123.19Y-62.23
X123.19Y-64.77
X123.19Y-95.25
X123.19Y-97.79
X123.19Y-100.33
X123.19Y-102.87
X123.19Y-105.41
X123.19Y-107.95
X125.73Y-52.07
X125.73Y-54.61
X125.73Y-57.15
X125.73Y-59.69
X125.73Y-62.23
X125.73Y-64.77
X125.73Y-95.25
X125.73Y-97.79
X125.73Y-100.33
X125.73Y-102.87
X125.73Y-105.41
X125.73Y-107.95
X128.27Y-59.69
T6
X46.99Y-53.594
X47.378Y-105.697
X48.786Y-51.798
X49.174Y-107.493
X130.861Y-107.645
X131.115Y-52.222
X132.657Y-105.849
X132.911Y-54.018
T7
X49.436Y-58.976
X49.436Y-66.976
T0
M30
