G04 #@! TF.FileFunction,Copper,L2,Bot,Signal*
%FSLAX46Y46*%
G04 Gerber Fmt 4.6, Leading zero omitted, Abs format (unit mm)*
G04 Created by KiCad (PCBNEW 4.0.4-stable) date 04/27/17 17:41:05*
%MOMM*%
%LPD*%
G01*
G04 APERTURE LIST*
%ADD10C,0.100000*%
%ADD11C,0.150000*%
%ADD12O,1.700000X2.000000*%
%ADD13C,1.524000*%
%ADD14O,1.700000X1.700000*%
%ADD15C,2.000000*%
%ADD16R,1.700000X1.700000*%
%ADD17C,1.600000*%
%ADD18C,3.000000*%
%ADD19R,1.000000X1.700000*%
%ADD20C,0.889000*%
%ADD21C,0.910000*%
%ADD22C,0.400000*%
%ADD23C,0.254000*%
%ADD24C,0.600000*%
%ADD25C,0.500000*%
%ADD26C,0.700000*%
%ADD27C,1.000000*%
%ADD28C,0.250000*%
G04 APERTURE END LIST*
D10*
D11*
X45000000Y-52500000D02*
X45000000Y-107500000D01*
X132500000Y-50000000D02*
X47500000Y-50000000D01*
X135000000Y-107500000D02*
X135000000Y-52500000D01*
X47500000Y-110000000D02*
X132500000Y-110000000D01*
X45000000Y-107500000D02*
G75*
G03X47500000Y-110000000I2500000J0D01*
G01*
X132500000Y-110000000D02*
G75*
G03X135000000Y-107500000I0J2500000D01*
G01*
X135000000Y-52500000D02*
G75*
G03X132500000Y-50000000I-2500000J0D01*
G01*
X47500000Y-50000000D02*
G75*
G03X45000000Y-52500000I0J-2500000D01*
G01*
D12*
X128270000Y-68580000D03*
X125730000Y-68580000D03*
X123190000Y-68580000D03*
X120650000Y-68580000D03*
X118110000Y-68580000D03*
X115570000Y-68580000D03*
X113030000Y-68580000D03*
X110490000Y-68580000D03*
X107950000Y-68580000D03*
X105410000Y-68580000D03*
X102870000Y-68580000D03*
X100330000Y-68580000D03*
X97790000Y-68580000D03*
X95250000Y-68580000D03*
X92710000Y-68580000D03*
X90170000Y-68580000D03*
X87630000Y-68580000D03*
X85090000Y-68580000D03*
X82550000Y-68580000D03*
X82550000Y-91440000D03*
X85090000Y-91440000D03*
X87630000Y-91440000D03*
X90170000Y-91440000D03*
X92710000Y-91440000D03*
X95250000Y-91440000D03*
X97790000Y-91440000D03*
X100330000Y-91440000D03*
X102870000Y-91440000D03*
X105410000Y-91440000D03*
X107950000Y-91440000D03*
X110490000Y-91440000D03*
X113030000Y-91440000D03*
X115570000Y-91440000D03*
X118110000Y-91440000D03*
X120650000Y-91440000D03*
X123190000Y-91440000D03*
X125730000Y-91440000D03*
X128270000Y-91440000D03*
D13*
X87630000Y-52070000D03*
D14*
X90170000Y-52070000D03*
X92710000Y-52070000D03*
D13*
X87630000Y-54610000D03*
D14*
X90170000Y-54610000D03*
X92710000Y-54610000D03*
D13*
X87630000Y-107950000D03*
D14*
X90170000Y-107950000D03*
X92710000Y-107950000D03*
X87630000Y-105410000D03*
X90170000Y-105410000D03*
X92710000Y-105410000D03*
D15*
X49174400Y-107492800D03*
D10*
G36*
X48792563Y-105696749D02*
X47378349Y-107110963D01*
X45964135Y-105696749D01*
X47378349Y-104282535D01*
X48792563Y-105696749D01*
X48792563Y-105696749D01*
G37*
D15*
X130860800Y-107645200D03*
D10*
G36*
X132656851Y-107263363D02*
X131242637Y-105849149D01*
X132656851Y-104434935D01*
X134071065Y-105849149D01*
X132656851Y-107263363D01*
X132656851Y-107263363D01*
G37*
D15*
X131114800Y-52222400D03*
D10*
G36*
X131496637Y-54018451D02*
X132910851Y-52604237D01*
X134325065Y-54018451D01*
X132910851Y-55432665D01*
X131496637Y-54018451D01*
X131496637Y-54018451D01*
G37*
D15*
X46990000Y-53594000D03*
D10*
G36*
X48786051Y-53212163D02*
X47371837Y-51797949D01*
X48786051Y-50383735D01*
X50200265Y-51797949D01*
X48786051Y-53212163D01*
X48786051Y-53212163D01*
G37*
D13*
X85090000Y-107950000D03*
D14*
X82550000Y-107950000D03*
X80010000Y-107950000D03*
X77470000Y-107950000D03*
X74930000Y-107950000D03*
X72390000Y-107950000D03*
X69850000Y-107950000D03*
X67310000Y-107950000D03*
X64770000Y-107950000D03*
D13*
X85090000Y-105410000D03*
D14*
X82550000Y-105410000D03*
X80010000Y-105410000D03*
X77470000Y-105410000D03*
X74930000Y-105410000D03*
X72390000Y-105410000D03*
X69850000Y-105410000D03*
X67310000Y-105410000D03*
X64770000Y-105410000D03*
D13*
X80010000Y-102870000D03*
D14*
X77470000Y-102870000D03*
X74930000Y-102870000D03*
X72390000Y-102870000D03*
X69850000Y-102870000D03*
X67310000Y-102870000D03*
X64770000Y-102870000D03*
X62230000Y-102870000D03*
X59690000Y-102870000D03*
X57150000Y-102870000D03*
X54610000Y-102870000D03*
X52070000Y-102870000D03*
X49530000Y-102870000D03*
D13*
X80010000Y-100330000D03*
D14*
X77470000Y-100330000D03*
X74930000Y-100330000D03*
X72390000Y-100330000D03*
X69850000Y-100330000D03*
X67310000Y-100330000D03*
X64770000Y-100330000D03*
X62230000Y-100330000D03*
X59690000Y-100330000D03*
X57150000Y-100330000D03*
X54610000Y-100330000D03*
X52070000Y-100330000D03*
X49530000Y-100330000D03*
D13*
X80010000Y-97790000D03*
D14*
X77470000Y-97790000D03*
X74930000Y-97790000D03*
X72390000Y-97790000D03*
X69850000Y-97790000D03*
X67310000Y-97790000D03*
X64770000Y-97790000D03*
X62230000Y-97790000D03*
X59690000Y-97790000D03*
X57150000Y-97790000D03*
X54610000Y-97790000D03*
X52070000Y-97790000D03*
X49530000Y-97790000D03*
D13*
X80010000Y-95250000D03*
D14*
X77470000Y-95250000D03*
X74930000Y-95250000D03*
X72390000Y-95250000D03*
X69850000Y-95250000D03*
X67310000Y-95250000D03*
X64770000Y-95250000D03*
X62230000Y-95250000D03*
X59690000Y-95250000D03*
X57150000Y-95250000D03*
X54610000Y-95250000D03*
X52070000Y-95250000D03*
X49530000Y-95250000D03*
D13*
X69850000Y-92710000D03*
D14*
X67310000Y-92710000D03*
X64770000Y-92710000D03*
X62230000Y-92710000D03*
X59690000Y-92710000D03*
X57150000Y-92710000D03*
X54610000Y-92710000D03*
X52070000Y-92710000D03*
X49530000Y-92710000D03*
D13*
X69850000Y-90170000D03*
D14*
X67310000Y-90170000D03*
X64770000Y-90170000D03*
X62230000Y-90170000D03*
X59690000Y-90170000D03*
X57150000Y-90170000D03*
X54610000Y-90170000D03*
X52070000Y-90170000D03*
X49530000Y-90170000D03*
D13*
X69850000Y-87630000D03*
D14*
X67310000Y-87630000D03*
X64770000Y-87630000D03*
X62230000Y-87630000D03*
X59690000Y-87630000D03*
X57150000Y-87630000D03*
X54610000Y-87630000D03*
X52070000Y-87630000D03*
X49530000Y-87630000D03*
D13*
X69850000Y-85090000D03*
D14*
X67310000Y-85090000D03*
X64770000Y-85090000D03*
X62230000Y-85090000D03*
X59690000Y-85090000D03*
X57150000Y-85090000D03*
X54610000Y-85090000D03*
X52070000Y-85090000D03*
X49530000Y-85090000D03*
D13*
X69850000Y-82550000D03*
D14*
X67310000Y-82550000D03*
X64770000Y-82550000D03*
X62230000Y-82550000D03*
X59690000Y-82550000D03*
X57150000Y-82550000D03*
X54610000Y-82550000D03*
X52070000Y-82550000D03*
X49530000Y-82550000D03*
D13*
X69850000Y-80010000D03*
D14*
X67310000Y-80010000D03*
X64770000Y-80010000D03*
X62230000Y-80010000D03*
X59690000Y-80010000D03*
X57150000Y-80010000D03*
X54610000Y-80010000D03*
X52070000Y-80010000D03*
X49530000Y-80010000D03*
D13*
X69850000Y-77470000D03*
D14*
X67310000Y-77470000D03*
X64770000Y-77470000D03*
X62230000Y-77470000D03*
X59690000Y-77470000D03*
X57150000Y-77470000D03*
X54610000Y-77470000D03*
X52070000Y-77470000D03*
X49530000Y-77470000D03*
D13*
X128270000Y-107950000D03*
D14*
X125730000Y-107950000D03*
X123190000Y-107950000D03*
D13*
X128270000Y-105410000D03*
D14*
X125730000Y-105410000D03*
X123190000Y-105410000D03*
D13*
X115570000Y-107950000D03*
D14*
X113030000Y-107950000D03*
X110490000Y-107950000D03*
X107950000Y-107950000D03*
X105410000Y-107950000D03*
X102870000Y-107950000D03*
X100330000Y-107950000D03*
X97790000Y-107950000D03*
X95250000Y-107950000D03*
D13*
X115570000Y-105410000D03*
D14*
X113030000Y-105410000D03*
X110490000Y-105410000D03*
X107950000Y-105410000D03*
X105410000Y-105410000D03*
X102870000Y-105410000D03*
X100330000Y-105410000D03*
X97790000Y-105410000D03*
X95250000Y-105410000D03*
D13*
X128270000Y-102870000D03*
D14*
X125730000Y-102870000D03*
X123190000Y-102870000D03*
X120650000Y-102870000D03*
X118110000Y-102870000D03*
X115570000Y-102870000D03*
X113030000Y-102870000D03*
X110490000Y-102870000D03*
X107950000Y-102870000D03*
X105410000Y-102870000D03*
X102870000Y-102870000D03*
X100330000Y-102870000D03*
X97790000Y-102870000D03*
X95250000Y-102870000D03*
X92710000Y-102870000D03*
X90170000Y-102870000D03*
X87630000Y-102870000D03*
X85090000Y-102870000D03*
X82550000Y-102870000D03*
D13*
X128270000Y-100330000D03*
D14*
X125730000Y-100330000D03*
X123190000Y-100330000D03*
X120650000Y-100330000D03*
X118110000Y-100330000D03*
X115570000Y-100330000D03*
X113030000Y-100330000D03*
X110490000Y-100330000D03*
X107950000Y-100330000D03*
X105410000Y-100330000D03*
X102870000Y-100330000D03*
X100330000Y-100330000D03*
X97790000Y-100330000D03*
X95250000Y-100330000D03*
X92710000Y-100330000D03*
X90170000Y-100330000D03*
X87630000Y-100330000D03*
X85090000Y-100330000D03*
X82550000Y-100330000D03*
D13*
X128270000Y-97790000D03*
D14*
X125730000Y-97790000D03*
X123190000Y-97790000D03*
X120650000Y-97790000D03*
X118110000Y-97790000D03*
X115570000Y-97790000D03*
X113030000Y-97790000D03*
X110490000Y-97790000D03*
X107950000Y-97790000D03*
X105410000Y-97790000D03*
X102870000Y-97790000D03*
X100330000Y-97790000D03*
X97790000Y-97790000D03*
X95250000Y-97790000D03*
X92710000Y-97790000D03*
X90170000Y-97790000D03*
X87630000Y-97790000D03*
X85090000Y-97790000D03*
X82550000Y-97790000D03*
D13*
X128270000Y-95250000D03*
D14*
X125730000Y-95250000D03*
X123190000Y-95250000D03*
X120650000Y-95250000D03*
X118110000Y-95250000D03*
X115570000Y-95250000D03*
X113030000Y-95250000D03*
X110490000Y-95250000D03*
X107950000Y-95250000D03*
X105410000Y-95250000D03*
X102870000Y-95250000D03*
X100330000Y-95250000D03*
X97790000Y-95250000D03*
X95250000Y-95250000D03*
X92710000Y-95250000D03*
X90170000Y-95250000D03*
X87630000Y-95250000D03*
X85090000Y-95250000D03*
X82550000Y-95250000D03*
D13*
X128270000Y-64770000D03*
D14*
X125730000Y-64770000D03*
X123190000Y-64770000D03*
X120650000Y-64770000D03*
X118110000Y-64770000D03*
X115570000Y-64770000D03*
X113030000Y-64770000D03*
X110490000Y-64770000D03*
X107950000Y-64770000D03*
X105410000Y-64770000D03*
X102870000Y-64770000D03*
X100330000Y-64770000D03*
X97790000Y-64770000D03*
X95250000Y-64770000D03*
X92710000Y-64770000D03*
X90170000Y-64770000D03*
X87630000Y-64770000D03*
X85090000Y-64770000D03*
X82550000Y-64770000D03*
D13*
X128270000Y-62230000D03*
D14*
X125730000Y-62230000D03*
X123190000Y-62230000D03*
X120650000Y-62230000D03*
X118110000Y-62230000D03*
X115570000Y-62230000D03*
X113030000Y-62230000D03*
X110490000Y-62230000D03*
X107950000Y-62230000D03*
X105410000Y-62230000D03*
X102870000Y-62230000D03*
X100330000Y-62230000D03*
X97790000Y-62230000D03*
X95250000Y-62230000D03*
X92710000Y-62230000D03*
X90170000Y-62230000D03*
X87630000Y-62230000D03*
X85090000Y-62230000D03*
X82550000Y-62230000D03*
X128270000Y-59690000D03*
X125730000Y-59690000D03*
X123190000Y-59690000D03*
X120650000Y-59690000D03*
X118110000Y-59690000D03*
X115570000Y-59690000D03*
X113030000Y-59690000D03*
X110490000Y-59690000D03*
X107950000Y-59690000D03*
X105410000Y-59690000D03*
X102870000Y-59690000D03*
X100330000Y-59690000D03*
X97790000Y-59690000D03*
X95250000Y-59690000D03*
X92710000Y-59690000D03*
X90170000Y-59690000D03*
X87630000Y-59690000D03*
X85090000Y-59690000D03*
X82550000Y-59690000D03*
D13*
X128270000Y-54610000D03*
D14*
X125730000Y-54610000D03*
X123190000Y-54610000D03*
D13*
X128270000Y-52070000D03*
D14*
X125730000Y-52070000D03*
X123190000Y-52070000D03*
D13*
X128270000Y-57150000D03*
D14*
X125730000Y-57150000D03*
X123190000Y-57150000D03*
X120650000Y-57150000D03*
X118110000Y-57150000D03*
X115570000Y-57150000D03*
X113030000Y-57150000D03*
X110490000Y-57150000D03*
X107950000Y-57150000D03*
X105410000Y-57150000D03*
X102870000Y-57150000D03*
X100330000Y-57150000D03*
X97790000Y-57150000D03*
X95250000Y-57150000D03*
X92710000Y-57150000D03*
X90170000Y-57150000D03*
X87630000Y-57150000D03*
X85090000Y-57150000D03*
X82550000Y-57150000D03*
D13*
X115570000Y-52070000D03*
D14*
X113030000Y-52070000D03*
X110490000Y-52070000D03*
X107950000Y-52070000D03*
X105410000Y-52070000D03*
X102870000Y-52070000D03*
X100330000Y-52070000D03*
X97790000Y-52070000D03*
X95250000Y-52070000D03*
X115570000Y-54610000D03*
X113030000Y-54610000D03*
X110490000Y-54610000D03*
X107950000Y-54610000D03*
X105410000Y-54610000D03*
X102870000Y-54610000D03*
X100330000Y-54610000D03*
X97790000Y-54610000D03*
X95250000Y-54610000D03*
D16*
X64414400Y-52425600D03*
D14*
X66954400Y-52425600D03*
X69494400Y-52425600D03*
D17*
X49436000Y-58976000D03*
X49436000Y-66976000D03*
D18*
X120000000Y-107500000D03*
X60000000Y-107500000D03*
X120000000Y-52500000D03*
X60000000Y-52500000D03*
D19*
X76606400Y-54457600D03*
D20*
X69088000Y-55676800D03*
X79756000Y-58115200D03*
X58369200Y-64058800D03*
X74726800Y-81178400D03*
X54559200Y-59131200D03*
X74523600Y-57200800D03*
X83312000Y-55575200D03*
X46278800Y-58420000D03*
X52374800Y-54660800D03*
X121158000Y-105156000D03*
X73660000Y-93878400D03*
X73558400Y-76301600D03*
X73761600Y-73152000D03*
D21*
X81280000Y-73025000D03*
D20*
X75336400Y-62534800D03*
D21*
X103251000Y-73787000D03*
X69469000Y-67437000D03*
X71755000Y-67564000D03*
X74930000Y-66167000D03*
X82296000Y-53340000D03*
X80645000Y-60452000D03*
X78359000Y-65659000D03*
X80010000Y-71882000D03*
X62611000Y-65913000D03*
X63754000Y-65151000D03*
X62103000Y-62103000D03*
D22*
X58369200Y-64058800D02*
X58369200Y-63576200D01*
X67995800Y-56769000D02*
X69088000Y-55676800D01*
X60071000Y-56769000D02*
X67995800Y-56769000D01*
X57912000Y-58928000D02*
X60071000Y-56769000D01*
X57912000Y-63119000D02*
X57912000Y-58928000D01*
X58369200Y-63576200D02*
X57912000Y-63119000D01*
D23*
X69088000Y-55676800D02*
X71577200Y-58166000D01*
X71577200Y-58166000D02*
X78130400Y-58166000D01*
X78130400Y-58166000D02*
X78181200Y-58115200D01*
X78181200Y-58115200D02*
X79756000Y-58115200D01*
X58420000Y-64109600D02*
X58369200Y-64058800D01*
X58420000Y-81026000D02*
X58420000Y-64109600D01*
X58674000Y-81280000D02*
X58420000Y-81026000D01*
X74625200Y-81280000D02*
X58674000Y-81280000D01*
X74726800Y-81178400D02*
X74625200Y-81280000D01*
D24*
X82550000Y-64770000D02*
X81661000Y-64770000D01*
X80899000Y-56261000D02*
X80162400Y-55524400D01*
X80899000Y-58420000D02*
X80899000Y-56261000D01*
X79248000Y-60071000D02*
X80899000Y-58420000D01*
X79248000Y-62357000D02*
X79248000Y-60071000D01*
X81661000Y-64770000D02*
X79248000Y-62357000D01*
D25*
X66954400Y-52425600D02*
X66954400Y-54000400D01*
X54559200Y-58013600D02*
X54559200Y-59131200D01*
X57251600Y-55321200D02*
X54559200Y-58013600D01*
X65633600Y-55321200D02*
X57251600Y-55321200D01*
X66954400Y-54000400D02*
X65633600Y-55321200D01*
D26*
X97790000Y-68580000D02*
X97790000Y-70408800D01*
X115570000Y-88188800D02*
X115570000Y-91440000D01*
X97790000Y-70408800D02*
X115570000Y-88188800D01*
D24*
X74523600Y-57200800D02*
X74574400Y-57150000D01*
X74574400Y-57150000D02*
X75539600Y-57150000D01*
X75539600Y-57150000D02*
X76606400Y-56083200D01*
D25*
X83312000Y-55575200D02*
X83261200Y-55524400D01*
X83261200Y-55524400D02*
X80162400Y-55524400D01*
X76606400Y-56083200D02*
X76606400Y-54457600D01*
X77216000Y-56692800D02*
X76606400Y-56083200D01*
X80162400Y-55524400D02*
X79349600Y-55524400D01*
X79349600Y-55524400D02*
X78181200Y-56692800D01*
X78181200Y-56692800D02*
X77216000Y-56692800D01*
D26*
X82550000Y-64770000D02*
X82550000Y-65379600D01*
X82550000Y-65379600D02*
X83718400Y-66548000D01*
X96012000Y-66548000D02*
X97790000Y-64770000D01*
X83718400Y-66548000D02*
X96012000Y-66548000D01*
D24*
X76606400Y-54457600D02*
X67259200Y-54457600D01*
X66954400Y-54152800D02*
X66954400Y-52425600D01*
X67259200Y-54457600D02*
X66954400Y-54152800D01*
D27*
X82550000Y-64770000D02*
X82550000Y-68580000D01*
X115570000Y-91440000D02*
X115570000Y-95250000D01*
X97790000Y-68580000D02*
X97790000Y-64770000D01*
D26*
X50393600Y-53405498D02*
X48786051Y-51797949D01*
X50393600Y-54305200D02*
X50393600Y-53405498D01*
X46278800Y-58420000D02*
X50393600Y-54305200D01*
D28*
X84429600Y-51409600D02*
X70510400Y-51409600D01*
D23*
X62230000Y-54660800D02*
X52374800Y-54660800D01*
X62433200Y-54457600D02*
X62230000Y-54660800D01*
X62433200Y-51612800D02*
X62433200Y-54457600D01*
X63042800Y-51003200D02*
X62433200Y-51612800D01*
X70104000Y-51003200D02*
X63042800Y-51003200D01*
X70510400Y-51409600D02*
X70104000Y-51003200D01*
D28*
X84709000Y-51689000D02*
X84429600Y-51409600D01*
D23*
X95377000Y-55880000D02*
X119075200Y-55880000D01*
X119075200Y-55880000D02*
X125984000Y-55880000D01*
X125984000Y-55880000D02*
X129489200Y-55880000D01*
X129489200Y-55880000D02*
X132283200Y-55880000D01*
X132910851Y-55252349D02*
X132283200Y-55880000D01*
D28*
X95377000Y-55880000D02*
X93345000Y-55880000D01*
X91821000Y-55880000D02*
X91440000Y-55499000D01*
X91440000Y-55499000D02*
X91440000Y-53721000D01*
X91440000Y-53721000D02*
X91059000Y-53340000D01*
X91059000Y-53340000D02*
X86360000Y-53340000D01*
X84709000Y-51689000D02*
X84429600Y-51409600D01*
X86360000Y-53340000D02*
X84709000Y-51689000D01*
X93345000Y-55880000D02*
X91821000Y-55880000D01*
D23*
X132910851Y-55252349D02*
X132910851Y-54018451D01*
X121158000Y-105156000D02*
X120142000Y-104140000D01*
X120142000Y-104140000D02*
X74117200Y-104140000D01*
X74117200Y-104140000D02*
X73660000Y-103682800D01*
X73660000Y-103682800D02*
X73660000Y-93878400D01*
X73558400Y-76301600D02*
X73761600Y-76098400D01*
X73761600Y-76098400D02*
X73761600Y-73152000D01*
D28*
X77520800Y-62534800D02*
X75336400Y-62534800D01*
X80772000Y-65786000D02*
X77520800Y-62534800D01*
X80772000Y-72517000D02*
X80772000Y-65786000D01*
X81280000Y-73025000D02*
X80772000Y-72517000D01*
D22*
X106553000Y-74980800D02*
X104444800Y-74980800D01*
X104444800Y-74980800D02*
X103251000Y-73787000D01*
X120650000Y-72644000D02*
X120650000Y-68580000D01*
X118313200Y-74980800D02*
X120650000Y-72644000D01*
D23*
X106527600Y-74980800D02*
X106553000Y-74980800D01*
D22*
X106553000Y-74980800D02*
X118313200Y-74980800D01*
X75819000Y-70358000D02*
X75819000Y-70104000D01*
X70612000Y-68580000D02*
X69469000Y-67437000D01*
X74295000Y-68580000D02*
X70612000Y-68580000D01*
X75819000Y-70104000D02*
X74295000Y-68580000D01*
X102870000Y-91440000D02*
X102870000Y-83566000D01*
X75819000Y-74295000D02*
X75819000Y-70358000D01*
X75819000Y-70358000D02*
X75819000Y-70231000D01*
X79502000Y-77978000D02*
X75819000Y-74295000D01*
X97282000Y-77978000D02*
X79502000Y-77978000D01*
X102870000Y-83566000D02*
X97282000Y-77978000D01*
X76708000Y-70358000D02*
X76708000Y-69723000D01*
X74549000Y-67564000D02*
X71755000Y-67564000D01*
X76708000Y-69723000D02*
X74549000Y-67564000D01*
X105410000Y-91440000D02*
X105410000Y-84709000D01*
X76708000Y-73533000D02*
X76708000Y-70358000D01*
X76708000Y-70358000D02*
X76708000Y-70231000D01*
X80010000Y-76835000D02*
X76708000Y-73533000D01*
X97536000Y-76835000D02*
X80010000Y-76835000D01*
X105410000Y-84709000D02*
X97536000Y-76835000D01*
X77470000Y-70231000D02*
X77470000Y-68707000D01*
X107950000Y-85852000D02*
X97790000Y-75692000D01*
X97790000Y-75692000D02*
X80137000Y-75692000D01*
X80137000Y-75692000D02*
X77470000Y-73025000D01*
X77470000Y-73025000D02*
X77470000Y-70231000D01*
X107950000Y-91440000D02*
X107950000Y-85852000D01*
X77470000Y-68707000D02*
X74930000Y-66167000D01*
D28*
X83820000Y-53848000D02*
X82804000Y-53848000D01*
X85852000Y-55880000D02*
X83820000Y-53848000D01*
X88849200Y-56464200D02*
X88849200Y-56642000D01*
X88265000Y-55880000D02*
X87503000Y-55880000D01*
X88849200Y-56464200D02*
X88265000Y-55880000D01*
X87503000Y-55880000D02*
X85852000Y-55880000D01*
X82804000Y-53848000D02*
X82296000Y-53340000D01*
D23*
X93980000Y-63500000D02*
X95250000Y-64770000D01*
X88849200Y-56642000D02*
X88849200Y-62941200D01*
X88849200Y-62941200D02*
X89408000Y-63500000D01*
X89408000Y-63500000D02*
X93980000Y-63500000D01*
X88849200Y-56438800D02*
X88849200Y-56642000D01*
D28*
X82169000Y-63500000D02*
X81788000Y-63500000D01*
X80645000Y-62357000D02*
X80645000Y-60452000D01*
X81788000Y-63500000D02*
X80645000Y-62357000D01*
D23*
X87630000Y-64770000D02*
X87630000Y-63957200D01*
X87630000Y-63957200D02*
X87172800Y-63500000D01*
X87172800Y-63500000D02*
X82169000Y-63500000D01*
D28*
X79121000Y-68072000D02*
X79121000Y-66421000D01*
X79121000Y-66421000D02*
X78359000Y-65659000D01*
X79121000Y-68072000D02*
X79121000Y-67945000D01*
X79121000Y-70993000D02*
X79121000Y-68072000D01*
X80010000Y-71882000D02*
X79121000Y-70993000D01*
X66040000Y-66548000D02*
X63246000Y-66548000D01*
X78359000Y-67818000D02*
X75565000Y-65024000D01*
X75565000Y-65024000D02*
X69342000Y-65024000D01*
X69342000Y-65024000D02*
X67818000Y-66548000D01*
X67818000Y-66548000D02*
X66040000Y-66548000D01*
X78359000Y-68707000D02*
X78359000Y-67818000D01*
X63246000Y-66548000D02*
X62611000Y-65913000D01*
X85090000Y-68580000D02*
X85090000Y-73533000D01*
X78359000Y-72390000D02*
X78359000Y-68707000D01*
X78359000Y-68707000D02*
X78359000Y-68580000D01*
X80645000Y-74676000D02*
X78359000Y-72390000D01*
X83947000Y-74676000D02*
X80645000Y-74676000D01*
X85090000Y-73533000D02*
X83947000Y-74676000D01*
X62103000Y-63500000D02*
X62103000Y-62103000D01*
X63754000Y-65151000D02*
X62103000Y-63500000D01*
M02*
