G04 #@! TF.FileFunction,Legend,Top*
%FSLAX46Y46*%
G04 Gerber Fmt 4.6, Leading zero omitted, Abs format (unit mm)*
G04 Created by KiCad (PCBNEW 4.0.4-stable) date 04/27/17 17:41:05*
%MOMM*%
%LPD*%
G01*
G04 APERTURE LIST*
%ADD10C,0.100000*%
%ADD11C,0.300000*%
%ADD12C,0.250000*%
%ADD13C,0.500000*%
%ADD14C,0.200000*%
%ADD15C,0.150000*%
%ADD16C,0.120000*%
%ADD17C,0.002540*%
G04 APERTURE END LIST*
D10*
D11*
X96315143Y-79725057D02*
X96815143Y-79725057D01*
X97029429Y-80510771D02*
X96315143Y-80510771D01*
X96315143Y-79010771D01*
X97029429Y-79010771D01*
X97529429Y-80510771D02*
X98315143Y-79510771D01*
X97529429Y-79510771D02*
X98315143Y-80510771D01*
X98886572Y-79510771D02*
X98886572Y-81010771D01*
X98886572Y-79582200D02*
X99029429Y-79510771D01*
X99315143Y-79510771D01*
X99458000Y-79582200D01*
X99529429Y-79653629D01*
X99600858Y-79796486D01*
X99600858Y-80225057D01*
X99529429Y-80367914D01*
X99458000Y-80439343D01*
X99315143Y-80510771D01*
X99029429Y-80510771D01*
X98886572Y-80439343D01*
X100458001Y-80510771D02*
X100315143Y-80439343D01*
X100243715Y-80296486D01*
X100243715Y-79010771D01*
X101243715Y-80510771D02*
X101100857Y-80439343D01*
X101029429Y-80367914D01*
X100958000Y-80225057D01*
X100958000Y-79796486D01*
X101029429Y-79653629D01*
X101100857Y-79582200D01*
X101243715Y-79510771D01*
X101458000Y-79510771D01*
X101600857Y-79582200D01*
X101672286Y-79653629D01*
X101743715Y-79796486D01*
X101743715Y-80225057D01*
X101672286Y-80367914D01*
X101600857Y-80439343D01*
X101458000Y-80510771D01*
X101243715Y-80510771D01*
X102386572Y-80510771D02*
X102386572Y-79510771D01*
X102386572Y-79796486D02*
X102458000Y-79653629D01*
X102529429Y-79582200D01*
X102672286Y-79510771D01*
X102815143Y-79510771D01*
X103886571Y-80439343D02*
X103743714Y-80510771D01*
X103458000Y-80510771D01*
X103315143Y-80439343D01*
X103243714Y-80296486D01*
X103243714Y-79725057D01*
X103315143Y-79582200D01*
X103458000Y-79510771D01*
X103743714Y-79510771D01*
X103886571Y-79582200D01*
X103958000Y-79725057D01*
X103958000Y-79867914D01*
X103243714Y-80010771D01*
X104600857Y-79725057D02*
X105100857Y-79725057D01*
X105315143Y-80510771D02*
X104600857Y-80510771D01*
X104600857Y-79010771D01*
X105315143Y-79010771D01*
X105958000Y-80510771D02*
X105958000Y-79510771D01*
X105958000Y-79653629D02*
X106029428Y-79582200D01*
X106172286Y-79510771D01*
X106386571Y-79510771D01*
X106529428Y-79582200D01*
X106600857Y-79725057D01*
X106600857Y-80510771D01*
X106600857Y-79725057D02*
X106672286Y-79582200D01*
X106815143Y-79510771D01*
X107029428Y-79510771D01*
X107172286Y-79582200D01*
X107243714Y-79725057D01*
X107243714Y-80510771D01*
X107958000Y-80510771D02*
X107958000Y-79010771D01*
X107958000Y-79582200D02*
X108100857Y-79510771D01*
X108386571Y-79510771D01*
X108529428Y-79582200D01*
X108600857Y-79653629D01*
X108672286Y-79796486D01*
X108672286Y-80225057D01*
X108600857Y-80367914D01*
X108529428Y-80439343D01*
X108386571Y-80510771D01*
X108100857Y-80510771D01*
X107958000Y-80439343D01*
X109886571Y-80439343D02*
X109743714Y-80510771D01*
X109458000Y-80510771D01*
X109315143Y-80439343D01*
X109243714Y-80296486D01*
X109243714Y-79725057D01*
X109315143Y-79582200D01*
X109458000Y-79510771D01*
X109743714Y-79510771D01*
X109886571Y-79582200D01*
X109958000Y-79725057D01*
X109958000Y-79867914D01*
X109243714Y-80010771D01*
X111243714Y-80510771D02*
X111243714Y-79010771D01*
X111243714Y-80439343D02*
X111100857Y-80510771D01*
X110815143Y-80510771D01*
X110672285Y-80439343D01*
X110600857Y-80367914D01*
X110529428Y-80225057D01*
X110529428Y-79796486D01*
X110600857Y-79653629D01*
X110672285Y-79582200D01*
X110815143Y-79510771D01*
X111100857Y-79510771D01*
X111243714Y-79582200D01*
X112600857Y-80510771D02*
X112600857Y-79010771D01*
X112600857Y-80439343D02*
X112458000Y-80510771D01*
X112172286Y-80510771D01*
X112029428Y-80439343D01*
X111958000Y-80367914D01*
X111886571Y-80225057D01*
X111886571Y-79796486D01*
X111958000Y-79653629D01*
X112029428Y-79582200D01*
X112172286Y-79510771D01*
X112458000Y-79510771D01*
X112600857Y-79582200D01*
X113886571Y-80439343D02*
X113743714Y-80510771D01*
X113458000Y-80510771D01*
X113315143Y-80439343D01*
X113243714Y-80296486D01*
X113243714Y-79725057D01*
X113315143Y-79582200D01*
X113458000Y-79510771D01*
X113743714Y-79510771D01*
X113886571Y-79582200D01*
X113958000Y-79725057D01*
X113958000Y-79867914D01*
X113243714Y-80010771D01*
X115243714Y-80510771D02*
X115243714Y-79010771D01*
X115243714Y-80439343D02*
X115100857Y-80510771D01*
X114815143Y-80510771D01*
X114672285Y-80439343D01*
X114600857Y-80367914D01*
X114529428Y-80225057D01*
X114529428Y-79796486D01*
X114600857Y-79653629D01*
X114672285Y-79582200D01*
X114815143Y-79510771D01*
X115100857Y-79510771D01*
X115243714Y-79582200D01*
X115958000Y-80367914D02*
X116029428Y-80439343D01*
X115958000Y-80510771D01*
X115886571Y-80439343D01*
X115958000Y-80367914D01*
X115958000Y-80510771D01*
X117315143Y-80439343D02*
X117172286Y-80510771D01*
X116886572Y-80510771D01*
X116743714Y-80439343D01*
X116672286Y-80367914D01*
X116600857Y-80225057D01*
X116600857Y-79796486D01*
X116672286Y-79653629D01*
X116743714Y-79582200D01*
X116886572Y-79510771D01*
X117172286Y-79510771D01*
X117315143Y-79582200D01*
X118172286Y-80510771D02*
X118029428Y-80439343D01*
X117958000Y-80367914D01*
X117886571Y-80225057D01*
X117886571Y-79796486D01*
X117958000Y-79653629D01*
X118029428Y-79582200D01*
X118172286Y-79510771D01*
X118386571Y-79510771D01*
X118529428Y-79582200D01*
X118600857Y-79653629D01*
X118672286Y-79796486D01*
X118672286Y-80225057D01*
X118600857Y-80367914D01*
X118529428Y-80439343D01*
X118386571Y-80510771D01*
X118172286Y-80510771D01*
X119315143Y-80510771D02*
X119315143Y-79510771D01*
X119315143Y-79653629D02*
X119386571Y-79582200D01*
X119529429Y-79510771D01*
X119743714Y-79510771D01*
X119886571Y-79582200D01*
X119958000Y-79725057D01*
X119958000Y-80510771D01*
X119958000Y-79725057D02*
X120029429Y-79582200D01*
X120172286Y-79510771D01*
X120386571Y-79510771D01*
X120529429Y-79582200D01*
X120600857Y-79725057D01*
X120600857Y-80510771D01*
X83117429Y-86098287D02*
X83117429Y-87026858D01*
X82546000Y-86526858D01*
X82546000Y-86741144D01*
X82474571Y-86884001D01*
X82403143Y-86955430D01*
X82260286Y-87026858D01*
X81903143Y-87026858D01*
X81760286Y-86955430D01*
X81688857Y-86884001D01*
X81617429Y-86741144D01*
X81617429Y-86312572D01*
X81688857Y-86169715D01*
X81760286Y-86098287D01*
X82617429Y-87526858D02*
X81617429Y-87884001D01*
X82617429Y-88241143D01*
X83117429Y-88669715D02*
X83117429Y-89598286D01*
X82546000Y-89098286D01*
X82546000Y-89312572D01*
X82474571Y-89455429D01*
X82403143Y-89526858D01*
X82260286Y-89598286D01*
X81903143Y-89598286D01*
X81760286Y-89526858D01*
X81688857Y-89455429D01*
X81617429Y-89312572D01*
X81617429Y-88884000D01*
X81688857Y-88741143D01*
X81760286Y-88669715D01*
X84943143Y-87284857D02*
X84943143Y-87784857D01*
X84157429Y-87999143D02*
X84157429Y-87284857D01*
X85657429Y-87284857D01*
X85657429Y-87999143D01*
X84157429Y-88642000D02*
X85657429Y-88642000D01*
X84157429Y-89499143D01*
X85657429Y-89499143D01*
X88197429Y-87177715D02*
X88197429Y-88106286D01*
X87626000Y-87606286D01*
X87626000Y-87820572D01*
X87554571Y-87963429D01*
X87483143Y-88034858D01*
X87340286Y-88106286D01*
X86983143Y-88106286D01*
X86840286Y-88034858D01*
X86768857Y-87963429D01*
X86697429Y-87820572D01*
X86697429Y-87392000D01*
X86768857Y-87249143D01*
X86840286Y-87177715D01*
X88197429Y-89392000D02*
X88197429Y-89106286D01*
X88126000Y-88963429D01*
X88054571Y-88892000D01*
X87840286Y-88749143D01*
X87554571Y-88677714D01*
X86983143Y-88677714D01*
X86840286Y-88749143D01*
X86768857Y-88820571D01*
X86697429Y-88963429D01*
X86697429Y-89249143D01*
X86768857Y-89392000D01*
X86840286Y-89463429D01*
X86983143Y-89534857D01*
X87340286Y-89534857D01*
X87483143Y-89463429D01*
X87554571Y-89392000D01*
X87626000Y-89249143D01*
X87626000Y-88963429D01*
X87554571Y-88820571D01*
X87483143Y-88749143D01*
X87340286Y-88677714D01*
X90737429Y-87177715D02*
X90737429Y-88106286D01*
X90166000Y-87606286D01*
X90166000Y-87820572D01*
X90094571Y-87963429D01*
X90023143Y-88034858D01*
X89880286Y-88106286D01*
X89523143Y-88106286D01*
X89380286Y-88034858D01*
X89308857Y-87963429D01*
X89237429Y-87820572D01*
X89237429Y-87392000D01*
X89308857Y-87249143D01*
X89380286Y-87177715D01*
X89237429Y-88820571D02*
X89237429Y-89106286D01*
X89308857Y-89249143D01*
X89380286Y-89320571D01*
X89594571Y-89463429D01*
X89880286Y-89534857D01*
X90451714Y-89534857D01*
X90594571Y-89463429D01*
X90666000Y-89392000D01*
X90737429Y-89249143D01*
X90737429Y-88963429D01*
X90666000Y-88820571D01*
X90594571Y-88749143D01*
X90451714Y-88677714D01*
X90094571Y-88677714D01*
X89951714Y-88749143D01*
X89880286Y-88820571D01*
X89808857Y-88963429D01*
X89808857Y-89249143D01*
X89880286Y-89392000D01*
X89951714Y-89463429D01*
X90094571Y-89534857D01*
X93277429Y-87177715D02*
X93277429Y-88106286D01*
X92706000Y-87606286D01*
X92706000Y-87820572D01*
X92634571Y-87963429D01*
X92563143Y-88034858D01*
X92420286Y-88106286D01*
X92063143Y-88106286D01*
X91920286Y-88034858D01*
X91848857Y-87963429D01*
X91777429Y-87820572D01*
X91777429Y-87392000D01*
X91848857Y-87249143D01*
X91920286Y-87177715D01*
X92777429Y-89392000D02*
X91777429Y-89392000D01*
X93348857Y-89034857D02*
X92277429Y-88677714D01*
X92277429Y-89606286D01*
X95817429Y-87177715D02*
X95817429Y-88106286D01*
X95246000Y-87606286D01*
X95246000Y-87820572D01*
X95174571Y-87963429D01*
X95103143Y-88034858D01*
X94960286Y-88106286D01*
X94603143Y-88106286D01*
X94460286Y-88034858D01*
X94388857Y-87963429D01*
X94317429Y-87820572D01*
X94317429Y-87392000D01*
X94388857Y-87249143D01*
X94460286Y-87177715D01*
X95817429Y-89463429D02*
X95817429Y-88749143D01*
X95103143Y-88677714D01*
X95174571Y-88749143D01*
X95246000Y-88892000D01*
X95246000Y-89249143D01*
X95174571Y-89392000D01*
X95103143Y-89463429D01*
X94960286Y-89534857D01*
X94603143Y-89534857D01*
X94460286Y-89463429D01*
X94388857Y-89392000D01*
X94317429Y-89249143D01*
X94317429Y-88892000D01*
X94388857Y-88749143D01*
X94460286Y-88677714D01*
X98357429Y-87177715D02*
X98357429Y-88106286D01*
X97786000Y-87606286D01*
X97786000Y-87820572D01*
X97714571Y-87963429D01*
X97643143Y-88034858D01*
X97500286Y-88106286D01*
X97143143Y-88106286D01*
X97000286Y-88034858D01*
X96928857Y-87963429D01*
X96857429Y-87820572D01*
X96857429Y-87392000D01*
X96928857Y-87249143D01*
X97000286Y-87177715D01*
X98214571Y-88677714D02*
X98286000Y-88749143D01*
X98357429Y-88892000D01*
X98357429Y-89249143D01*
X98286000Y-89392000D01*
X98214571Y-89463429D01*
X98071714Y-89534857D01*
X97928857Y-89534857D01*
X97714571Y-89463429D01*
X96857429Y-88606286D01*
X96857429Y-89534857D01*
X100897429Y-87177715D02*
X100897429Y-88106286D01*
X100326000Y-87606286D01*
X100326000Y-87820572D01*
X100254571Y-87963429D01*
X100183143Y-88034858D01*
X100040286Y-88106286D01*
X99683143Y-88106286D01*
X99540286Y-88034858D01*
X99468857Y-87963429D01*
X99397429Y-87820572D01*
X99397429Y-87392000D01*
X99468857Y-87249143D01*
X99540286Y-87177715D01*
X100897429Y-88606286D02*
X100897429Y-89534857D01*
X100326000Y-89034857D01*
X100326000Y-89249143D01*
X100254571Y-89392000D01*
X100183143Y-89463429D01*
X100040286Y-89534857D01*
X99683143Y-89534857D01*
X99540286Y-89463429D01*
X99468857Y-89392000D01*
X99397429Y-89249143D01*
X99397429Y-88820571D01*
X99468857Y-88677714D01*
X99540286Y-88606286D01*
X103294571Y-87249143D02*
X103366000Y-87320572D01*
X103437429Y-87463429D01*
X103437429Y-87820572D01*
X103366000Y-87963429D01*
X103294571Y-88034858D01*
X103151714Y-88106286D01*
X103008857Y-88106286D01*
X102794571Y-88034858D01*
X101937429Y-87177715D01*
X101937429Y-88106286D01*
X103437429Y-89463429D02*
X103437429Y-88749143D01*
X102723143Y-88677714D01*
X102794571Y-88749143D01*
X102866000Y-88892000D01*
X102866000Y-89249143D01*
X102794571Y-89392000D01*
X102723143Y-89463429D01*
X102580286Y-89534857D01*
X102223143Y-89534857D01*
X102080286Y-89463429D01*
X102008857Y-89392000D01*
X101937429Y-89249143D01*
X101937429Y-88892000D01*
X102008857Y-88749143D01*
X102080286Y-88677714D01*
X106088571Y-87249143D02*
X106160000Y-87320572D01*
X106231429Y-87463429D01*
X106231429Y-87820572D01*
X106160000Y-87963429D01*
X106088571Y-88034858D01*
X105945714Y-88106286D01*
X105802857Y-88106286D01*
X105588571Y-88034858D01*
X104731429Y-87177715D01*
X104731429Y-88106286D01*
X106231429Y-89392000D02*
X106231429Y-89106286D01*
X106160000Y-88963429D01*
X106088571Y-88892000D01*
X105874286Y-88749143D01*
X105588571Y-88677714D01*
X105017143Y-88677714D01*
X104874286Y-88749143D01*
X104802857Y-88820571D01*
X104731429Y-88963429D01*
X104731429Y-89249143D01*
X104802857Y-89392000D01*
X104874286Y-89463429D01*
X105017143Y-89534857D01*
X105374286Y-89534857D01*
X105517143Y-89463429D01*
X105588571Y-89392000D01*
X105660000Y-89249143D01*
X105660000Y-88963429D01*
X105588571Y-88820571D01*
X105517143Y-88749143D01*
X105374286Y-88677714D01*
X108374571Y-87249143D02*
X108446000Y-87320572D01*
X108517429Y-87463429D01*
X108517429Y-87820572D01*
X108446000Y-87963429D01*
X108374571Y-88034858D01*
X108231714Y-88106286D01*
X108088857Y-88106286D01*
X107874571Y-88034858D01*
X107017429Y-87177715D01*
X107017429Y-88106286D01*
X108517429Y-88606286D02*
X108517429Y-89606286D01*
X107017429Y-88963429D01*
X109557429Y-88106286D02*
X109557429Y-87249143D01*
X109557429Y-87677715D02*
X111057429Y-87677715D01*
X110843143Y-87534858D01*
X110700286Y-87392000D01*
X110628857Y-87249143D01*
X110557429Y-89392000D02*
X109557429Y-89392000D01*
X111128857Y-89034857D02*
X110057429Y-88677714D01*
X110057429Y-89606286D01*
X112097429Y-88106286D02*
X112097429Y-87249143D01*
X112097429Y-87677715D02*
X113597429Y-87677715D01*
X113383143Y-87534858D01*
X113240286Y-87392000D01*
X113168857Y-87249143D01*
X113454571Y-88677714D02*
X113526000Y-88749143D01*
X113597429Y-88892000D01*
X113597429Y-89249143D01*
X113526000Y-89392000D01*
X113454571Y-89463429D01*
X113311714Y-89534857D01*
X113168857Y-89534857D01*
X112954571Y-89463429D01*
X112097429Y-88606286D01*
X112097429Y-89534857D01*
X116066000Y-86487143D02*
X116137429Y-86344286D01*
X116137429Y-86130000D01*
X116066000Y-85915715D01*
X115923143Y-85772857D01*
X115780286Y-85701429D01*
X115494571Y-85630000D01*
X115280286Y-85630000D01*
X114994571Y-85701429D01*
X114851714Y-85772857D01*
X114708857Y-85915715D01*
X114637429Y-86130000D01*
X114637429Y-86272857D01*
X114708857Y-86487143D01*
X114780286Y-86558572D01*
X115280286Y-86558572D01*
X115280286Y-86272857D01*
X114637429Y-87201429D02*
X116137429Y-87201429D01*
X114637429Y-88058572D01*
X116137429Y-88058572D01*
X114637429Y-88772858D02*
X116137429Y-88772858D01*
X116137429Y-89130001D01*
X116066000Y-89344286D01*
X115923143Y-89487144D01*
X115780286Y-89558572D01*
X115494571Y-89630001D01*
X115280286Y-89630001D01*
X114994571Y-89558572D01*
X114851714Y-89487144D01*
X114708857Y-89344286D01*
X114637429Y-89130001D01*
X114637429Y-88772858D01*
X117177429Y-88106286D02*
X117177429Y-87249143D01*
X117177429Y-87677715D02*
X118677429Y-87677715D01*
X118463143Y-87534858D01*
X118320286Y-87392000D01*
X118248857Y-87249143D01*
X118677429Y-88606286D02*
X118677429Y-89534857D01*
X118106000Y-89034857D01*
X118106000Y-89249143D01*
X118034571Y-89392000D01*
X117963143Y-89463429D01*
X117820286Y-89534857D01*
X117463143Y-89534857D01*
X117320286Y-89463429D01*
X117248857Y-89392000D01*
X117177429Y-89249143D01*
X117177429Y-88820571D01*
X117248857Y-88677714D01*
X117320286Y-88606286D01*
X119717429Y-88868286D02*
X119717429Y-89154001D01*
X119788857Y-89296858D01*
X119860286Y-89368286D01*
X120074571Y-89511144D01*
X120360286Y-89582572D01*
X120931714Y-89582572D01*
X121074571Y-89511144D01*
X121146000Y-89439715D01*
X121217429Y-89296858D01*
X121217429Y-89011144D01*
X121146000Y-88868286D01*
X121074571Y-88796858D01*
X120931714Y-88725429D01*
X120574571Y-88725429D01*
X120431714Y-88796858D01*
X120360286Y-88868286D01*
X120288857Y-89011144D01*
X120288857Y-89296858D01*
X120360286Y-89439715D01*
X120431714Y-89511144D01*
X120574571Y-89582572D01*
X122257429Y-88106286D02*
X122257429Y-87249143D01*
X122257429Y-87677715D02*
X123757429Y-87677715D01*
X123543143Y-87534858D01*
X123400286Y-87392000D01*
X123328857Y-87249143D01*
X123757429Y-89034857D02*
X123757429Y-89177714D01*
X123686000Y-89320571D01*
X123614571Y-89392000D01*
X123471714Y-89463429D01*
X123186000Y-89534857D01*
X122828857Y-89534857D01*
X122543143Y-89463429D01*
X122400286Y-89392000D01*
X122328857Y-89320571D01*
X122257429Y-89177714D01*
X122257429Y-89034857D01*
X122328857Y-88892000D01*
X122400286Y-88820571D01*
X122543143Y-88749143D01*
X122828857Y-88677714D01*
X123186000Y-88677714D01*
X123471714Y-88749143D01*
X123614571Y-88820571D01*
X123686000Y-88892000D01*
X123757429Y-89034857D01*
X124797429Y-88106286D02*
X124797429Y-87249143D01*
X124797429Y-87677715D02*
X126297429Y-87677715D01*
X126083143Y-87534858D01*
X125940286Y-87392000D01*
X125868857Y-87249143D01*
X124797429Y-89534857D02*
X124797429Y-88677714D01*
X124797429Y-89106286D02*
X126297429Y-89106286D01*
X126083143Y-88963429D01*
X125940286Y-88820571D01*
X125868857Y-88677714D01*
X128837429Y-88106287D02*
X128837429Y-87392001D01*
X128123143Y-87320572D01*
X128194571Y-87392001D01*
X128266000Y-87534858D01*
X128266000Y-87892001D01*
X128194571Y-88034858D01*
X128123143Y-88106287D01*
X127980286Y-88177715D01*
X127623143Y-88177715D01*
X127480286Y-88106287D01*
X127408857Y-88034858D01*
X127337429Y-87892001D01*
X127337429Y-87534858D01*
X127408857Y-87392001D01*
X127480286Y-87320572D01*
X128837429Y-88606286D02*
X127337429Y-89106286D01*
X128837429Y-89606286D01*
X83452400Y-71602743D02*
X83523829Y-71459886D01*
X83523829Y-71245600D01*
X83452400Y-71031315D01*
X83309543Y-70888457D01*
X83166686Y-70817029D01*
X82880971Y-70745600D01*
X82666686Y-70745600D01*
X82380971Y-70817029D01*
X82238114Y-70888457D01*
X82095257Y-71031315D01*
X82023829Y-71245600D01*
X82023829Y-71388457D01*
X82095257Y-71602743D01*
X82166686Y-71674172D01*
X82666686Y-71674172D01*
X82666686Y-71388457D01*
X82023829Y-72317029D02*
X83523829Y-72317029D01*
X82023829Y-73174172D01*
X83523829Y-73174172D01*
X82023829Y-73888458D02*
X83523829Y-73888458D01*
X83523829Y-74245601D01*
X83452400Y-74459886D01*
X83309543Y-74602744D01*
X83166686Y-74674172D01*
X82880971Y-74745601D01*
X82666686Y-74745601D01*
X82380971Y-74674172D01*
X82238114Y-74602744D01*
X82095257Y-74459886D01*
X82023829Y-74245601D01*
X82023829Y-73888458D01*
X85768571Y-70739143D02*
X85840000Y-70810572D01*
X85911429Y-70953429D01*
X85911429Y-71310572D01*
X85840000Y-71453429D01*
X85768571Y-71524858D01*
X85625714Y-71596286D01*
X85482857Y-71596286D01*
X85268571Y-71524858D01*
X84411429Y-70667715D01*
X84411429Y-71596286D01*
X85911429Y-72096286D02*
X85911429Y-73024857D01*
X85340000Y-72524857D01*
X85340000Y-72739143D01*
X85268571Y-72882000D01*
X85197143Y-72953429D01*
X85054286Y-73024857D01*
X84697143Y-73024857D01*
X84554286Y-72953429D01*
X84482857Y-72882000D01*
X84411429Y-72739143D01*
X84411429Y-72310571D01*
X84482857Y-72167714D01*
X84554286Y-72096286D01*
X88359371Y-70789943D02*
X88430800Y-70861372D01*
X88502229Y-71004229D01*
X88502229Y-71361372D01*
X88430800Y-71504229D01*
X88359371Y-71575658D01*
X88216514Y-71647086D01*
X88073657Y-71647086D01*
X87859371Y-71575658D01*
X87002229Y-70718515D01*
X87002229Y-71647086D01*
X88359371Y-72218514D02*
X88430800Y-72289943D01*
X88502229Y-72432800D01*
X88502229Y-72789943D01*
X88430800Y-72932800D01*
X88359371Y-73004229D01*
X88216514Y-73075657D01*
X88073657Y-73075657D01*
X87859371Y-73004229D01*
X87002229Y-72147086D01*
X87002229Y-73075657D01*
X89491429Y-71650172D02*
X89491429Y-70793029D01*
X89491429Y-71221601D02*
X90991429Y-71221601D01*
X90777143Y-71078744D01*
X90634286Y-70935886D01*
X90562857Y-70793029D01*
X93480629Y-70620001D02*
X93480629Y-71548572D01*
X92909200Y-71048572D01*
X92909200Y-71262858D01*
X92837771Y-71405715D01*
X92766343Y-71477144D01*
X92623486Y-71548572D01*
X92266343Y-71548572D01*
X92123486Y-71477144D01*
X92052057Y-71405715D01*
X91980629Y-71262858D01*
X91980629Y-70834286D01*
X92052057Y-70691429D01*
X92123486Y-70620001D01*
X95928571Y-70739143D02*
X96000000Y-70810572D01*
X96071429Y-70953429D01*
X96071429Y-71310572D01*
X96000000Y-71453429D01*
X95928571Y-71524858D01*
X95785714Y-71596286D01*
X95642857Y-71596286D01*
X95428571Y-71524858D01*
X94571429Y-70667715D01*
X94571429Y-71596286D01*
X94571429Y-73024857D02*
X94571429Y-72167714D01*
X94571429Y-72596286D02*
X96071429Y-72596286D01*
X95857143Y-72453429D01*
X95714286Y-72310571D01*
X95642857Y-72167714D01*
X98540000Y-71501143D02*
X98611429Y-71358286D01*
X98611429Y-71144000D01*
X98540000Y-70929715D01*
X98397143Y-70786857D01*
X98254286Y-70715429D01*
X97968571Y-70644000D01*
X97754286Y-70644000D01*
X97468571Y-70715429D01*
X97325714Y-70786857D01*
X97182857Y-70929715D01*
X97111429Y-71144000D01*
X97111429Y-71286857D01*
X97182857Y-71501143D01*
X97254286Y-71572572D01*
X97754286Y-71572572D01*
X97754286Y-71286857D01*
X97111429Y-72215429D02*
X98611429Y-72215429D01*
X97111429Y-73072572D01*
X98611429Y-73072572D01*
X97111429Y-73786858D02*
X98611429Y-73786858D01*
X98611429Y-74144001D01*
X98540000Y-74358286D01*
X98397143Y-74501144D01*
X98254286Y-74572572D01*
X97968571Y-74644001D01*
X97754286Y-74644001D01*
X97468571Y-74572572D01*
X97325714Y-74501144D01*
X97182857Y-74358286D01*
X97111429Y-74144001D01*
X97111429Y-73786858D01*
X99651429Y-71596286D02*
X99651429Y-70739143D01*
X99651429Y-71167715D02*
X101151429Y-71167715D01*
X100937143Y-71024858D01*
X100794286Y-70882000D01*
X100722857Y-70739143D01*
X99651429Y-72310571D02*
X99651429Y-72596286D01*
X99722857Y-72739143D01*
X99794286Y-72810571D01*
X100008571Y-72953429D01*
X100294286Y-73024857D01*
X100865714Y-73024857D01*
X101008571Y-72953429D01*
X101080000Y-72882000D01*
X101151429Y-72739143D01*
X101151429Y-72453429D01*
X101080000Y-72310571D01*
X101008571Y-72239143D01*
X100865714Y-72167714D01*
X100508571Y-72167714D01*
X100365714Y-72239143D01*
X100294286Y-72310571D01*
X100222857Y-72453429D01*
X100222857Y-72739143D01*
X100294286Y-72882000D01*
X100365714Y-72953429D01*
X100508571Y-73024857D01*
X102191429Y-71596286D02*
X102191429Y-70739143D01*
X102191429Y-71167715D02*
X103691429Y-71167715D01*
X103477143Y-71024858D01*
X103334286Y-70882000D01*
X103262857Y-70739143D01*
X103048571Y-72453429D02*
X103120000Y-72310571D01*
X103191429Y-72239143D01*
X103334286Y-72167714D01*
X103405714Y-72167714D01*
X103548571Y-72239143D01*
X103620000Y-72310571D01*
X103691429Y-72453429D01*
X103691429Y-72739143D01*
X103620000Y-72882000D01*
X103548571Y-72953429D01*
X103405714Y-73024857D01*
X103334286Y-73024857D01*
X103191429Y-72953429D01*
X103120000Y-72882000D01*
X103048571Y-72739143D01*
X103048571Y-72453429D01*
X102977143Y-72310571D01*
X102905714Y-72239143D01*
X102762857Y-72167714D01*
X102477143Y-72167714D01*
X102334286Y-72239143D01*
X102262857Y-72310571D01*
X102191429Y-72453429D01*
X102191429Y-72739143D01*
X102262857Y-72882000D01*
X102334286Y-72953429D01*
X102477143Y-73024857D01*
X102762857Y-73024857D01*
X102905714Y-72953429D01*
X102977143Y-72882000D01*
X103048571Y-72739143D01*
X106231429Y-71477144D02*
X106231429Y-70762858D01*
X105517143Y-70691429D01*
X105588571Y-70762858D01*
X105660000Y-70905715D01*
X105660000Y-71262858D01*
X105588571Y-71405715D01*
X105517143Y-71477144D01*
X105374286Y-71548572D01*
X105017143Y-71548572D01*
X104874286Y-71477144D01*
X104802857Y-71405715D01*
X104731429Y-71262858D01*
X104731429Y-70905715D01*
X104802857Y-70762858D01*
X104874286Y-70691429D01*
X107271429Y-71596286D02*
X107271429Y-70739143D01*
X107271429Y-71167715D02*
X108771429Y-71167715D01*
X108557143Y-71024858D01*
X108414286Y-70882000D01*
X108342857Y-70739143D01*
X108771429Y-72096286D02*
X108771429Y-73096286D01*
X107271429Y-72453429D01*
X110065429Y-71596286D02*
X110065429Y-70739143D01*
X110065429Y-71167715D02*
X111565429Y-71167715D01*
X111351143Y-71024858D01*
X111208286Y-70882000D01*
X111136857Y-70739143D01*
X111565429Y-72882000D02*
X111565429Y-72596286D01*
X111494000Y-72453429D01*
X111422571Y-72382000D01*
X111208286Y-72239143D01*
X110922571Y-72167714D01*
X110351143Y-72167714D01*
X110208286Y-72239143D01*
X110136857Y-72310571D01*
X110065429Y-72453429D01*
X110065429Y-72739143D01*
X110136857Y-72882000D01*
X110208286Y-72953429D01*
X110351143Y-73024857D01*
X110708286Y-73024857D01*
X110851143Y-72953429D01*
X110922571Y-72882000D01*
X110994000Y-72739143D01*
X110994000Y-72453429D01*
X110922571Y-72310571D01*
X110851143Y-72239143D01*
X110708286Y-72167714D01*
X113351429Y-71405715D02*
X112351429Y-71405715D01*
X113922857Y-71048572D02*
X112851429Y-70691429D01*
X112851429Y-71620001D01*
X114799371Y-71242228D02*
X114799371Y-71099371D01*
X114870800Y-70956514D01*
X114942229Y-70885085D01*
X115085086Y-70813656D01*
X115370800Y-70742228D01*
X115727943Y-70742228D01*
X116013657Y-70813656D01*
X116156514Y-70885085D01*
X116227943Y-70956514D01*
X116299371Y-71099371D01*
X116299371Y-71242228D01*
X116227943Y-71385085D01*
X116156514Y-71456514D01*
X116013657Y-71527942D01*
X115727943Y-71599371D01*
X115370800Y-71599371D01*
X115085086Y-71527942D01*
X114942229Y-71456514D01*
X114870800Y-71385085D01*
X114799371Y-71242228D01*
X118839371Y-70793029D02*
X118910800Y-70864458D01*
X118982229Y-71007315D01*
X118982229Y-71364458D01*
X118910800Y-71507315D01*
X118839371Y-71578744D01*
X118696514Y-71650172D01*
X118553657Y-71650172D01*
X118339371Y-71578744D01*
X117482229Y-70721601D01*
X117482229Y-71650172D01*
X120225429Y-71596286D02*
X120225429Y-70739143D01*
X120225429Y-71167715D02*
X121725429Y-71167715D01*
X121511143Y-71024858D01*
X121368286Y-70882000D01*
X121296857Y-70739143D01*
X121725429Y-72953429D02*
X121725429Y-72239143D01*
X121011143Y-72167714D01*
X121082571Y-72239143D01*
X121154000Y-72382000D01*
X121154000Y-72739143D01*
X121082571Y-72882000D01*
X121011143Y-72953429D01*
X120868286Y-73024857D01*
X120511143Y-73024857D01*
X120368286Y-72953429D01*
X120296857Y-72882000D01*
X120225429Y-72739143D01*
X120225429Y-72382000D01*
X120296857Y-72239143D01*
X120368286Y-72167714D01*
X123470171Y-71027944D02*
X123541600Y-70885086D01*
X123613029Y-70813658D01*
X123755886Y-70742229D01*
X123827314Y-70742229D01*
X123970171Y-70813658D01*
X124041600Y-70885086D01*
X124113029Y-71027944D01*
X124113029Y-71313658D01*
X124041600Y-71456515D01*
X123970171Y-71527944D01*
X123827314Y-71599372D01*
X123755886Y-71599372D01*
X123613029Y-71527944D01*
X123541600Y-71456515D01*
X123470171Y-71313658D01*
X123470171Y-71027944D01*
X123398743Y-70885086D01*
X123327314Y-70813658D01*
X123184457Y-70742229D01*
X122898743Y-70742229D01*
X122755886Y-70813658D01*
X122684457Y-70885086D01*
X122613029Y-71027944D01*
X122613029Y-71313658D01*
X122684457Y-71456515D01*
X122755886Y-71527944D01*
X122898743Y-71599372D01*
X123184457Y-71599372D01*
X123327314Y-71527944D01*
X123398743Y-71456515D01*
X123470171Y-71313658D01*
X126500629Y-70620001D02*
X126500629Y-71620001D01*
X125000629Y-70977144D01*
X129040629Y-71456515D02*
X129040629Y-71170801D01*
X128969200Y-71027944D01*
X128897771Y-70956515D01*
X128683486Y-70813658D01*
X128397771Y-70742229D01*
X127826343Y-70742229D01*
X127683486Y-70813658D01*
X127612057Y-70885086D01*
X127540629Y-71027944D01*
X127540629Y-71313658D01*
X127612057Y-71456515D01*
X127683486Y-71527944D01*
X127826343Y-71599372D01*
X128183486Y-71599372D01*
X128326343Y-71527944D01*
X128397771Y-71456515D01*
X128469200Y-71313658D01*
X128469200Y-71027944D01*
X128397771Y-70885086D01*
X128326343Y-70813658D01*
X128183486Y-70742229D01*
X51252229Y-75608571D02*
X51252229Y-74108571D01*
X51752229Y-75180000D01*
X52252229Y-74108571D01*
X52252229Y-75608571D01*
X52966515Y-75608571D02*
X52966515Y-74608571D01*
X52966515Y-74108571D02*
X52895086Y-74180000D01*
X52966515Y-74251429D01*
X53037943Y-74180000D01*
X52966515Y-74108571D01*
X52966515Y-74251429D01*
X54323658Y-75537143D02*
X54180801Y-75608571D01*
X53895087Y-75608571D01*
X53752229Y-75537143D01*
X53680801Y-75465714D01*
X53609372Y-75322857D01*
X53609372Y-74894286D01*
X53680801Y-74751429D01*
X53752229Y-74680000D01*
X53895087Y-74608571D01*
X54180801Y-74608571D01*
X54323658Y-74680000D01*
X54966515Y-75608571D02*
X54966515Y-74608571D01*
X54966515Y-74894286D02*
X55037943Y-74751429D01*
X55109372Y-74680000D01*
X55252229Y-74608571D01*
X55395086Y-74608571D01*
X56109372Y-75608571D02*
X55966514Y-75537143D01*
X55895086Y-75465714D01*
X55823657Y-75322857D01*
X55823657Y-74894286D01*
X55895086Y-74751429D01*
X55966514Y-74680000D01*
X56109372Y-74608571D01*
X56323657Y-74608571D01*
X56466514Y-74680000D01*
X56537943Y-74751429D01*
X56609372Y-74894286D01*
X56609372Y-75322857D01*
X56537943Y-75465714D01*
X56466514Y-75537143D01*
X56323657Y-75608571D01*
X56109372Y-75608571D01*
X58323657Y-75537143D02*
X58537943Y-75608571D01*
X58895086Y-75608571D01*
X59037943Y-75537143D01*
X59109372Y-75465714D01*
X59180800Y-75322857D01*
X59180800Y-75180000D01*
X59109372Y-75037143D01*
X59037943Y-74965714D01*
X58895086Y-74894286D01*
X58609372Y-74822857D01*
X58466514Y-74751429D01*
X58395086Y-74680000D01*
X58323657Y-74537143D01*
X58323657Y-74394286D01*
X58395086Y-74251429D01*
X58466514Y-74180000D01*
X58609372Y-74108571D01*
X58966514Y-74108571D01*
X59180800Y-74180000D01*
X59823657Y-75608571D02*
X59823657Y-74108571D01*
X60180800Y-74108571D01*
X60395085Y-74180000D01*
X60537943Y-74322857D01*
X60609371Y-74465714D01*
X60680800Y-74751429D01*
X60680800Y-74965714D01*
X60609371Y-75251429D01*
X60537943Y-75394286D01*
X60395085Y-75537143D01*
X60180800Y-75608571D01*
X59823657Y-75608571D01*
X131123715Y-103243771D02*
X131123715Y-101743771D01*
X132695144Y-103243771D02*
X132195144Y-102529486D01*
X131838001Y-103243771D02*
X131838001Y-101743771D01*
X132409429Y-101743771D01*
X132552287Y-101815200D01*
X132623715Y-101886629D01*
X132695144Y-102029486D01*
X132695144Y-102243771D01*
X132623715Y-102386629D01*
X132552287Y-102458057D01*
X132409429Y-102529486D01*
X131838001Y-102529486D01*
X133980858Y-102243771D02*
X133980858Y-103243771D01*
X133623715Y-101672343D02*
X133266572Y-102743771D01*
X134195144Y-102743771D01*
X130310915Y-58184171D02*
X130310915Y-56684171D01*
X131882344Y-58184171D02*
X131382344Y-57469886D01*
X131025201Y-58184171D02*
X131025201Y-56684171D01*
X131596629Y-56684171D01*
X131739487Y-56755600D01*
X131810915Y-56827029D01*
X131882344Y-56969886D01*
X131882344Y-57184171D01*
X131810915Y-57327029D01*
X131739487Y-57398457D01*
X131596629Y-57469886D01*
X131025201Y-57469886D01*
X132382344Y-56684171D02*
X133310915Y-56684171D01*
X132810915Y-57255600D01*
X133025201Y-57255600D01*
X133168058Y-57327029D01*
X133239487Y-57398457D01*
X133310915Y-57541314D01*
X133310915Y-57898457D01*
X133239487Y-58041314D01*
X133168058Y-58112743D01*
X133025201Y-58184171D01*
X132596629Y-58184171D01*
X132453772Y-58112743D01*
X132382344Y-58041314D01*
X51367715Y-54577371D02*
X51367715Y-53077371D01*
X52939144Y-54577371D02*
X52439144Y-53863086D01*
X52082001Y-54577371D02*
X52082001Y-53077371D01*
X52653429Y-53077371D01*
X52796287Y-53148800D01*
X52867715Y-53220229D01*
X52939144Y-53363086D01*
X52939144Y-53577371D01*
X52867715Y-53720229D01*
X52796287Y-53791657D01*
X52653429Y-53863086D01*
X52082001Y-53863086D01*
X53510572Y-53220229D02*
X53582001Y-53148800D01*
X53724858Y-53077371D01*
X54082001Y-53077371D01*
X54224858Y-53148800D01*
X54296287Y-53220229D01*
X54367715Y-53363086D01*
X54367715Y-53505943D01*
X54296287Y-53720229D01*
X53439144Y-54577371D01*
X54367715Y-54577371D01*
X51977315Y-107002971D02*
X51977315Y-105502971D01*
X53548744Y-107002971D02*
X53048744Y-106288686D01*
X52691601Y-107002971D02*
X52691601Y-105502971D01*
X53263029Y-105502971D01*
X53405887Y-105574400D01*
X53477315Y-105645829D01*
X53548744Y-105788686D01*
X53548744Y-106002971D01*
X53477315Y-106145829D01*
X53405887Y-106217257D01*
X53263029Y-106288686D01*
X52691601Y-106288686D01*
X54977315Y-107002971D02*
X54120172Y-107002971D01*
X54548744Y-107002971D02*
X54548744Y-105502971D01*
X54405887Y-105717257D01*
X54263029Y-105860114D01*
X54120172Y-105931543D01*
D12*
X62671486Y-50922229D02*
X63433391Y-50922229D01*
X63052439Y-51303181D02*
X63052439Y-50541276D01*
X64385772Y-50303181D02*
X63909581Y-50303181D01*
X63861962Y-50779371D01*
X63909581Y-50731752D01*
X64004819Y-50684133D01*
X64242915Y-50684133D01*
X64338153Y-50731752D01*
X64385772Y-50779371D01*
X64433391Y-50874610D01*
X64433391Y-51112705D01*
X64385772Y-51207943D01*
X64338153Y-51255562D01*
X64242915Y-51303181D01*
X64004819Y-51303181D01*
X63909581Y-51255562D01*
X63861962Y-51207943D01*
X64719105Y-50303181D02*
X65052438Y-51303181D01*
X65385772Y-50303181D01*
X65281467Y-54859181D02*
X64948133Y-54382990D01*
X64710038Y-54859181D02*
X64710038Y-53859181D01*
X65090991Y-53859181D01*
X65186229Y-53906800D01*
X65233848Y-53954419D01*
X65281467Y-54049657D01*
X65281467Y-54192514D01*
X65233848Y-54287752D01*
X65186229Y-54335371D01*
X65090991Y-54382990D01*
X64710038Y-54382990D01*
X66090991Y-54811562D02*
X65995753Y-54859181D01*
X65805276Y-54859181D01*
X65710038Y-54811562D01*
X65662419Y-54716324D01*
X65662419Y-54335371D01*
X65710038Y-54240133D01*
X65805276Y-54192514D01*
X65995753Y-54192514D01*
X66090991Y-54240133D01*
X66138610Y-54335371D01*
X66138610Y-54430610D01*
X65662419Y-54525848D01*
X66995753Y-54811562D02*
X66900515Y-54859181D01*
X66710038Y-54859181D01*
X66614800Y-54811562D01*
X66567181Y-54763943D01*
X66519562Y-54668705D01*
X66519562Y-54382990D01*
X66567181Y-54287752D01*
X66614800Y-54240133D01*
X66710038Y-54192514D01*
X66900515Y-54192514D01*
X66995753Y-54240133D01*
X67805277Y-54811562D02*
X67710039Y-54859181D01*
X67519562Y-54859181D01*
X67424324Y-54811562D01*
X67376705Y-54716324D01*
X67376705Y-54335371D01*
X67424324Y-54240133D01*
X67519562Y-54192514D01*
X67710039Y-54192514D01*
X67805277Y-54240133D01*
X67852896Y-54335371D01*
X67852896Y-54430610D01*
X67376705Y-54525848D01*
X68281467Y-54859181D02*
X68281467Y-54192514D01*
X68281467Y-53859181D02*
X68233848Y-53906800D01*
X68281467Y-53954419D01*
X68329086Y-53906800D01*
X68281467Y-53859181D01*
X68281467Y-53954419D01*
X68662419Y-54192514D02*
X68900514Y-54859181D01*
X69138610Y-54192514D01*
X69900515Y-54811562D02*
X69805277Y-54859181D01*
X69614800Y-54859181D01*
X69519562Y-54811562D01*
X69471943Y-54716324D01*
X69471943Y-54335371D01*
X69519562Y-54240133D01*
X69614800Y-54192514D01*
X69805277Y-54192514D01*
X69900515Y-54240133D01*
X69948134Y-54335371D01*
X69948134Y-54430610D01*
X69471943Y-54525848D01*
X70376705Y-54859181D02*
X70376705Y-54192514D01*
X70376705Y-54382990D02*
X70424324Y-54287752D01*
X70471943Y-54240133D01*
X70567181Y-54192514D01*
X70662420Y-54192514D01*
D13*
X128270000Y-92608400D02*
X128270000Y-94284800D01*
X125730000Y-92608400D02*
X125730000Y-94183200D01*
X123190000Y-92659200D02*
X123190000Y-94183200D01*
X120650000Y-92608400D02*
X120650000Y-94183200D01*
X118110000Y-92608400D02*
X118110000Y-94183200D01*
X115570000Y-92608400D02*
X115570000Y-94132400D01*
X113030000Y-92608400D02*
X113030000Y-94132400D01*
D14*
X110490000Y-94183200D02*
X110540800Y-94183200D01*
D13*
X110490000Y-92659200D02*
X110490000Y-94183200D01*
X107950000Y-92608400D02*
X107950000Y-94132400D01*
X105410000Y-92608400D02*
X105410000Y-94132400D01*
X102870000Y-92608400D02*
X102870000Y-94132400D01*
X100330000Y-92608400D02*
X100330000Y-94132400D01*
X97790000Y-92608400D02*
X97790000Y-94132400D01*
X95250000Y-92608400D02*
X95250000Y-94183200D01*
X92710000Y-92659200D02*
X92710000Y-94183200D01*
D14*
X90119200Y-94132400D02*
X90170000Y-94132400D01*
D13*
X90119200Y-92608400D02*
X90119200Y-94132400D01*
D14*
X87630000Y-94183200D02*
X87579200Y-94183200D01*
D13*
X87630000Y-92608400D02*
X87630000Y-94183200D01*
X85090000Y-92608400D02*
X85090000Y-94183200D01*
X82550000Y-92608400D02*
X82550000Y-94183200D01*
X128270000Y-65735200D02*
X128270000Y-67310000D01*
D14*
X125730000Y-67310000D02*
X125679200Y-67310000D01*
D13*
X125730000Y-65786000D02*
X125730000Y-67310000D01*
X123139200Y-65786000D02*
X123139200Y-67310000D01*
X120650000Y-65786000D02*
X120650000Y-67310000D01*
D14*
X118110000Y-67310000D02*
X118059200Y-67310000D01*
D13*
X118110000Y-65786000D02*
X118110000Y-67310000D01*
X115570000Y-65786000D02*
X115570000Y-67310000D01*
D14*
X113030000Y-67310000D02*
X112979200Y-67310000D01*
D13*
X113030000Y-65786000D02*
X113030000Y-67310000D01*
X110490000Y-65786000D02*
X110490000Y-67310000D01*
X107899200Y-65786000D02*
X107899200Y-67360800D01*
X105410000Y-65786000D02*
X105410000Y-67310000D01*
X102870000Y-65786000D02*
X102870000Y-67310000D01*
X100279200Y-65786000D02*
X100279200Y-67310000D01*
D14*
X97790000Y-67360800D02*
X97840800Y-67360800D01*
D13*
X97790000Y-65786000D02*
X97790000Y-67360800D01*
D14*
X95199200Y-67310000D02*
X95250000Y-67310000D01*
D13*
X95199200Y-65786000D02*
X95199200Y-67310000D01*
D14*
X92710000Y-67310000D02*
X92760800Y-67310000D01*
D13*
X92710000Y-65836800D02*
X92710000Y-67310000D01*
D14*
X90119200Y-67310000D02*
X90170000Y-67310000D01*
D13*
X90119200Y-65786000D02*
X90119200Y-67310000D01*
X87579200Y-65836800D02*
X87579200Y-67310000D01*
D14*
X85039200Y-67360800D02*
X84988400Y-67360800D01*
D13*
X85039200Y-65786000D02*
X85039200Y-67360800D01*
X82550000Y-65836800D02*
X82550000Y-67310000D01*
D15*
X45000000Y-52500000D02*
X45000000Y-107500000D01*
X132500000Y-50000000D02*
X47500000Y-50000000D01*
X135000000Y-107500000D02*
X135000000Y-52500000D01*
X47500000Y-110000000D02*
X132500000Y-110000000D01*
X45000000Y-107500000D02*
G75*
G03X47500000Y-110000000I2500000J0D01*
G01*
X132500000Y-110000000D02*
G75*
G03X135000000Y-107500000I0J2500000D01*
G01*
X135000000Y-52500000D02*
G75*
G03X132500000Y-50000000I-2500000J0D01*
G01*
X47500000Y-50000000D02*
G75*
G03X45000000Y-52500000I0J-2500000D01*
G01*
D13*
X76835000Y-92710000D02*
X82550000Y-92710000D01*
X76200000Y-92075000D02*
X76200000Y-91440000D01*
X133985000Y-92710000D02*
X82550000Y-92710000D01*
X134620000Y-67945000D02*
X134620000Y-92075000D01*
X133985000Y-67310000D02*
X125095000Y-67310000D01*
X76835000Y-67310000D02*
X125730000Y-67310000D01*
X76200000Y-67945000D02*
X76200000Y-69215000D01*
X76835000Y-67310000D02*
G75*
G03X76200000Y-67945000I0J-635000D01*
G01*
X76200000Y-92075000D02*
G75*
G03X76835000Y-92710000I635000J0D01*
G01*
X133985000Y-92710000D02*
G75*
G03X134620000Y-92075000I0J635000D01*
G01*
X134620000Y-67945000D02*
G75*
G03X133985000Y-67310000I-635000J0D01*
G01*
X76200000Y-69215000D02*
X74295000Y-71120000D01*
X74295000Y-71120000D02*
X74295000Y-73660000D01*
X76200000Y-91440000D02*
X76200000Y-90805000D01*
X76200000Y-90805000D02*
X74295000Y-89535000D01*
X74295000Y-89535000D02*
X74295000Y-73660000D01*
D15*
X50244253Y-106704376D02*
X50102831Y-106845797D01*
X48410018Y-108538611D02*
X48537297Y-108411332D01*
X46347113Y-106036795D02*
G75*
G03X48405775Y-108542854I1931383J-512017D01*
G01*
X46733416Y-106606132D02*
G75*
G03X48219806Y-108093841I1545080J57320D01*
G01*
X50254114Y-106676440D02*
G75*
G03X47719881Y-104632553I-1982689J134699D01*
G01*
X49758569Y-106502592D02*
G75*
G03X48296880Y-105068131I-1480073J-46220D01*
G01*
X131649224Y-108715053D02*
X131507803Y-108573631D01*
X129814989Y-106880818D02*
X129942268Y-107008097D01*
X132316805Y-104817913D02*
G75*
G03X129810746Y-106876575I-512017J-1931383D01*
G01*
X131747468Y-105204216D02*
G75*
G03X130259759Y-106690606I57320J-1545080D01*
G01*
X131677160Y-108724914D02*
G75*
G03X133721047Y-106190681I134699J1982689D01*
G01*
X131851008Y-108229369D02*
G75*
G03X133285469Y-106767680I-46220J1480073D01*
G01*
X130044947Y-53010824D02*
X130186369Y-52869403D01*
X131879182Y-51176589D02*
X131751903Y-51303868D01*
X133942087Y-53678405D02*
G75*
G03X131883425Y-51172346I-1931383J512017D01*
G01*
X133555784Y-53109068D02*
G75*
G03X132069394Y-51621359I-1545080J-57320D01*
G01*
X130035086Y-53038760D02*
G75*
G03X132569319Y-55082647I1982689J-134699D01*
G01*
X130530631Y-53212608D02*
G75*
G03X131992320Y-54647069I1480073J46220D01*
G01*
X47778424Y-54663853D02*
X47637003Y-54522431D01*
X45944189Y-52829618D02*
X46071468Y-52956897D01*
X48446005Y-50766713D02*
G75*
G03X45939946Y-52825375I-512017J-1931383D01*
G01*
X47876668Y-51153016D02*
G75*
G03X46388959Y-52639406I57320J-1545080D01*
G01*
X47806360Y-54673714D02*
G75*
G03X49850247Y-52139481I134699J1982689D01*
G01*
X47980208Y-54178169D02*
G75*
G03X49414669Y-52716480I-46220J1480073D01*
G01*
X70535800Y-57073800D02*
X70535800Y-55651400D01*
X70535800Y-55651400D02*
X68173600Y-55651400D01*
X68173600Y-55651400D02*
X67716400Y-56108600D01*
X67716400Y-56108600D02*
X67716400Y-57048400D01*
X67716400Y-57048400D02*
X70561200Y-57048400D01*
X83978000Y-50809600D02*
X84678000Y-50809600D01*
X84678000Y-52009600D02*
X83978000Y-52009600D01*
X64866000Y-63719000D02*
X64166000Y-63719000D01*
X64166000Y-62519000D02*
X64866000Y-62519000D01*
X64866000Y-61560000D02*
X64166000Y-61560000D01*
X64166000Y-60360000D02*
X64866000Y-60360000D01*
D16*
X65684400Y-53815600D02*
X70884400Y-53815600D01*
X70884400Y-53815600D02*
X70884400Y-51035600D01*
X70884400Y-51035600D02*
X65684400Y-51035600D01*
X65684400Y-51035600D02*
X65684400Y-53815600D01*
X64414400Y-53815600D02*
X63024400Y-53815600D01*
X63024400Y-53815600D02*
X63024400Y-52425600D01*
D15*
X79425000Y-55400000D02*
X79425000Y-54400000D01*
X80775000Y-54400000D02*
X80775000Y-55400000D01*
X72680200Y-55211600D02*
X72680200Y-54211600D01*
X74030200Y-54211600D02*
X74030200Y-55211600D01*
X69200000Y-73875000D02*
X68200000Y-73875000D01*
X68200000Y-72525000D02*
X69200000Y-72525000D01*
X76462000Y-57948200D02*
X77462000Y-57948200D01*
X77462000Y-59298200D02*
X76462000Y-59298200D01*
X71625000Y-72500000D02*
X71625000Y-71500000D01*
X72975000Y-71500000D02*
X72975000Y-72500000D01*
X77716000Y-64632200D02*
X76716000Y-64632200D01*
X76716000Y-63282200D02*
X77716000Y-63282200D01*
X68300000Y-70225000D02*
X69300000Y-70225000D01*
X69300000Y-71575000D02*
X68300000Y-71575000D01*
X79662400Y-50785400D02*
X80662400Y-50785400D01*
X80662400Y-52135400D02*
X79662400Y-52135400D01*
X72625000Y-65500000D02*
X72625000Y-64500000D01*
X73975000Y-64500000D02*
X73975000Y-65500000D01*
X70225000Y-65500000D02*
X70225000Y-64500000D01*
X71575000Y-64500000D02*
X71575000Y-65500000D01*
X67625000Y-65500000D02*
X67625000Y-64500000D01*
X68975000Y-64500000D02*
X68975000Y-65500000D01*
X72825000Y-61000000D02*
X72825000Y-60000000D01*
X74175000Y-60000000D02*
X74175000Y-61000000D01*
X70225000Y-60900000D02*
X70225000Y-59900000D01*
X71575000Y-59900000D02*
X71575000Y-60900000D01*
X67625000Y-60900000D02*
X67625000Y-59900000D01*
X68975000Y-59900000D02*
X68975000Y-60900000D01*
X69232400Y-75757400D02*
X68232400Y-75757400D01*
X68232400Y-74407400D02*
X69232400Y-74407400D01*
X76614400Y-60132600D02*
X77614400Y-60132600D01*
X77614400Y-61482600D02*
X76614400Y-61482600D01*
X45436000Y-71976000D02*
X45436000Y-56876000D01*
X57836000Y-71976000D02*
X45436000Y-71976000D01*
X57836000Y-70776000D02*
X57836000Y-71976000D01*
X59436000Y-70776000D02*
X57836000Y-70776000D01*
X59436000Y-56876000D02*
X45436000Y-56876000D01*
X59436000Y-64176000D02*
X59436000Y-56876000D01*
X59436000Y-56876000D02*
X59036000Y-56876000D01*
X59436000Y-64176000D02*
X59436000Y-70776000D01*
X77856400Y-53207600D02*
X77856400Y-52707600D01*
X75356400Y-53207600D02*
X75356400Y-52707600D01*
X77856400Y-55707600D02*
X77856400Y-56207600D01*
X75356400Y-55707600D02*
X75356400Y-56207600D01*
X75356400Y-55707600D02*
X77856400Y-55707600D01*
X75356400Y-53207600D02*
X77856400Y-53207600D01*
X74930007Y-52907600D02*
G75*
G03X74930007Y-52907600I-223607J0D01*
G01*
X75446000Y-50785400D02*
X76446000Y-50785400D01*
X76446000Y-52135400D02*
X75446000Y-52135400D01*
D17*
G36*
X95366840Y-79438500D02*
X95359220Y-79766160D01*
X95343980Y-79999840D01*
X95308420Y-80180180D01*
X95252540Y-80345280D01*
X95209360Y-80439260D01*
X94909640Y-80939640D01*
X94825820Y-81028540D01*
X94825820Y-78277720D01*
X94498160Y-78277720D01*
X94305120Y-78280260D01*
X94211140Y-78305660D01*
X94175580Y-78371700D01*
X94170500Y-78460600D01*
X94188280Y-78623160D01*
X94256860Y-78701900D01*
X94406720Y-78719680D01*
X94523560Y-78714600D01*
X94691200Y-78694280D01*
X94772480Y-78640940D01*
X94800420Y-78524100D01*
X94805500Y-78486000D01*
X94825820Y-78277720D01*
X94825820Y-81028540D01*
X94818200Y-81038700D01*
X94818200Y-80469740D01*
X94818200Y-80246220D01*
X94818200Y-80020160D01*
X94818200Y-79890620D01*
X94818200Y-79664560D01*
X94818200Y-79438500D01*
X94818200Y-79308960D01*
X94818200Y-79085440D01*
X94818200Y-78859380D01*
X94495620Y-78859380D01*
X94170500Y-78859380D01*
X94170500Y-79085440D01*
X94170500Y-79308960D01*
X94495620Y-79308960D01*
X94818200Y-79308960D01*
X94818200Y-79438500D01*
X94495620Y-79438500D01*
X94170500Y-79438500D01*
X94170500Y-79664560D01*
X94170500Y-79890620D01*
X94495620Y-79890620D01*
X94818200Y-79890620D01*
X94818200Y-80020160D01*
X94495620Y-80020160D01*
X94170500Y-80020160D01*
X94170500Y-80246220D01*
X94170500Y-80469740D01*
X94495620Y-80469740D01*
X94818200Y-80469740D01*
X94818200Y-81038700D01*
X94536260Y-81338420D01*
X94107000Y-81625440D01*
X94107000Y-80827880D01*
X94107000Y-78214220D01*
X94107000Y-77886560D01*
X94107000Y-77558900D01*
X93898720Y-77579220D01*
X93771720Y-77599540D01*
X93705680Y-77655420D01*
X93677740Y-77779880D01*
X93667580Y-77906880D01*
X93649800Y-78214220D01*
X93878400Y-78214220D01*
X94107000Y-78214220D01*
X94107000Y-80827880D01*
X94101920Y-80647540D01*
X94068900Y-80563720D01*
X93982540Y-80535780D01*
X93880940Y-80535780D01*
X93741240Y-80540860D01*
X93677740Y-80581500D01*
X93657420Y-80695800D01*
X93657420Y-80827880D01*
X93659960Y-81005680D01*
X93692980Y-81086960D01*
X93779340Y-81114900D01*
X93880940Y-81117440D01*
X94020640Y-81109820D01*
X94086680Y-81069180D01*
X94104460Y-80954880D01*
X94107000Y-80827880D01*
X94107000Y-81625440D01*
X94076520Y-81648300D01*
X93675200Y-81826100D01*
X93527880Y-81869280D01*
X93527880Y-80827880D01*
X93527880Y-78214220D01*
X93527880Y-77891640D01*
X93527880Y-77566520D01*
X93301820Y-77566520D01*
X93075760Y-77566520D01*
X93075760Y-77891640D01*
X93075760Y-78214220D01*
X93301820Y-78214220D01*
X93527880Y-78214220D01*
X93527880Y-80827880D01*
X93520260Y-80647540D01*
X93487240Y-80563720D01*
X93400880Y-80535780D01*
X93301820Y-80535780D01*
X93162120Y-80540860D01*
X93096080Y-80581500D01*
X93075760Y-80695800D01*
X93075760Y-80827880D01*
X93080840Y-81005680D01*
X93113860Y-81086960D01*
X93200220Y-81114900D01*
X93301820Y-81117440D01*
X93438980Y-81109820D01*
X93505020Y-81069180D01*
X93525340Y-80954880D01*
X93527880Y-80827880D01*
X93527880Y-81869280D01*
X93438980Y-81899760D01*
X93228160Y-81940400D01*
X92981780Y-81950560D01*
X92930980Y-81948020D01*
X92930980Y-80827880D01*
X92925900Y-80647540D01*
X92913200Y-80606900D01*
X92913200Y-78000860D01*
X92913200Y-77891640D01*
X92908120Y-77711300D01*
X92872560Y-77622400D01*
X92783660Y-77589380D01*
X92704920Y-77579220D01*
X92496640Y-77558900D01*
X92496640Y-77891640D01*
X92496640Y-78221840D01*
X92704920Y-78198980D01*
X92834460Y-78181200D01*
X92892880Y-78127860D01*
X92913200Y-78000860D01*
X92913200Y-80606900D01*
X92897960Y-80563720D01*
X92811600Y-80535780D01*
X92715080Y-80535780D01*
X92577920Y-80540860D01*
X92514420Y-80584040D01*
X92496640Y-80698340D01*
X92496640Y-80827880D01*
X92499180Y-81005680D01*
X92532200Y-81086960D01*
X92618560Y-81114900D01*
X92710000Y-81117440D01*
X92842080Y-81109820D01*
X92905580Y-81064100D01*
X92925900Y-80949800D01*
X92930980Y-80827880D01*
X92930980Y-81948020D01*
X92699840Y-81942940D01*
X92379800Y-81920080D01*
X92318840Y-81907380D01*
X92318840Y-80957420D01*
X92316300Y-80924400D01*
X92316300Y-77647800D01*
X92273120Y-77609700D01*
X92143580Y-77581760D01*
X92128340Y-77581760D01*
X91920060Y-77558900D01*
X91902280Y-77932280D01*
X91881960Y-78305660D01*
X91848940Y-78303120D01*
X91848940Y-77988160D01*
X91848940Y-77729080D01*
X91818460Y-77696060D01*
X91785440Y-77729080D01*
X91818460Y-77759560D01*
X91848940Y-77729080D01*
X91848940Y-77988160D01*
X91818460Y-77955140D01*
X91785440Y-77988160D01*
X91818460Y-78021180D01*
X91848940Y-77988160D01*
X91848940Y-78303120D01*
X91544140Y-78285340D01*
X91346020Y-78277720D01*
X91244420Y-78295500D01*
X91208860Y-78353920D01*
X91203780Y-78460600D01*
X91213940Y-78585060D01*
X91269820Y-78646020D01*
X91406980Y-78671420D01*
X91478100Y-78676500D01*
X91688920Y-78686660D01*
X91800680Y-78671420D01*
X91843860Y-78618080D01*
X91848940Y-78564740D01*
X91876880Y-78483460D01*
X91897200Y-78478380D01*
X92047060Y-78473300D01*
X92097860Y-78392020D01*
X92087700Y-78341220D01*
X92090240Y-78239620D01*
X92179140Y-78214220D01*
X92260420Y-78188820D01*
X92293440Y-78094840D01*
X92301060Y-77955140D01*
X92303600Y-77777340D01*
X92313760Y-77663040D01*
X92316300Y-77647800D01*
X92316300Y-80924400D01*
X92311220Y-80827880D01*
X92290900Y-80647540D01*
X92247720Y-80561180D01*
X92161360Y-80535780D01*
X92100400Y-80535780D01*
X91986100Y-80543400D01*
X91932760Y-80594200D01*
X91914980Y-80721200D01*
X91914980Y-80827880D01*
X91917520Y-81005680D01*
X91950540Y-81086960D01*
X92036900Y-81114900D01*
X92123260Y-81117440D01*
X92250260Y-81109820D01*
X92308680Y-81069180D01*
X92318840Y-80957420D01*
X92318840Y-81907380D01*
X92138500Y-81879440D01*
X91917520Y-81808320D01*
X91856560Y-81777840D01*
X91856560Y-78859380D01*
X91531440Y-78859380D01*
X91338400Y-78861920D01*
X91241880Y-78887320D01*
X91208860Y-78953360D01*
X91203780Y-79044800D01*
X91221560Y-79176880D01*
X91295220Y-79245460D01*
X91447620Y-79273400D01*
X91617800Y-79270860D01*
X91760040Y-79248000D01*
X91821000Y-79169260D01*
X91836240Y-79062580D01*
X91856560Y-78859380D01*
X91856560Y-81777840D01*
X91818460Y-81762600D01*
X91818460Y-80246220D01*
X91818460Y-79664560D01*
X91808300Y-79547720D01*
X91760040Y-79486760D01*
X91635580Y-79461360D01*
X91511120Y-79451200D01*
X91203780Y-79430880D01*
X91203780Y-79664560D01*
X91203780Y-79898240D01*
X91511120Y-79877920D01*
X91696540Y-79860140D01*
X91785440Y-79824580D01*
X91813380Y-79745840D01*
X91818460Y-79664560D01*
X91818460Y-80246220D01*
X91808300Y-80126840D01*
X91760040Y-80068420D01*
X91635580Y-80040480D01*
X91511120Y-80030320D01*
X91203780Y-80012540D01*
X91203780Y-80246220D01*
X91203780Y-80477360D01*
X91511120Y-80459580D01*
X91696540Y-80441800D01*
X91785440Y-80403700D01*
X91813380Y-80324960D01*
X91818460Y-80246220D01*
X91818460Y-81762600D01*
X91706700Y-81711800D01*
X91480640Y-81589880D01*
X91292680Y-81470500D01*
X91178380Y-81379060D01*
X91107260Y-81313020D01*
X91041220Y-81297780D01*
X90947240Y-81338420D01*
X90947240Y-78646020D01*
X90904060Y-78295500D01*
X90759280Y-77962760D01*
X90512900Y-77670660D01*
X90375740Y-77561440D01*
X90225880Y-77475080D01*
X90063320Y-77426820D01*
X89842340Y-77409040D01*
X89682320Y-77406500D01*
X89428320Y-77411580D01*
X89255600Y-77434440D01*
X89120980Y-77492860D01*
X88981280Y-77594460D01*
X88968580Y-77604620D01*
X88750140Y-77825600D01*
X88572340Y-78099920D01*
X88458040Y-78379320D01*
X88430100Y-78564740D01*
X88458040Y-78826360D01*
X88526620Y-79085440D01*
X88625680Y-79288640D01*
X88671400Y-79347060D01*
X88737440Y-79428340D01*
X88712040Y-79494380D01*
X88618060Y-79568040D01*
X88516460Y-79659480D01*
X88348820Y-79824580D01*
X88140540Y-80037940D01*
X87911940Y-80281780D01*
X87884000Y-80312260D01*
X87307420Y-80939640D01*
X87462360Y-81064100D01*
X87617300Y-81191100D01*
X88041480Y-80751680D01*
X88267540Y-80510380D01*
X88496140Y-80266540D01*
X88686640Y-80053180D01*
X88729820Y-80002380D01*
X88993980Y-79695040D01*
X89225120Y-79794100D01*
X89601040Y-79883000D01*
X89984580Y-79847440D01*
X90157300Y-79791560D01*
X90495120Y-79588360D01*
X90738960Y-79314040D01*
X90891360Y-78994000D01*
X90947240Y-78646020D01*
X90947240Y-81338420D01*
X90944700Y-81340960D01*
X90779600Y-81452720D01*
X90764360Y-81467960D01*
X90291920Y-81729580D01*
X89768680Y-81894680D01*
X89225120Y-81960720D01*
X88694260Y-81922620D01*
X88300560Y-81813400D01*
X87787480Y-81554320D01*
X87355680Y-81206340D01*
X87020400Y-80782160D01*
X86784180Y-80297020D01*
X86654640Y-79768700D01*
X86641940Y-79204820D01*
X86685120Y-78910180D01*
X86796880Y-78491080D01*
X86969600Y-78132940D01*
X87223600Y-77792580D01*
X87340440Y-77663040D01*
X87746840Y-77320140D01*
X88216740Y-77068680D01*
X88724740Y-76921360D01*
X89250520Y-76870560D01*
X89771220Y-76923900D01*
X90269060Y-77078840D01*
X90718640Y-77337920D01*
X90820240Y-77419200D01*
X91008200Y-77576680D01*
X91219020Y-77419200D01*
X91683840Y-77134720D01*
X92202000Y-76954380D01*
X92422980Y-76911200D01*
X92984320Y-76875640D01*
X93525340Y-76964540D01*
X94030800Y-77160120D01*
X94482920Y-77459840D01*
X94866460Y-77858620D01*
X95163640Y-78338680D01*
X95166180Y-78341220D01*
X95257620Y-78544420D01*
X95316040Y-78714600D01*
X95349060Y-78894940D01*
X95361760Y-79121000D01*
X95366840Y-79438500D01*
X95366840Y-79438500D01*
X95366840Y-79438500D01*
G37*
X95366840Y-79438500D02*
X95359220Y-79766160D01*
X95343980Y-79999840D01*
X95308420Y-80180180D01*
X95252540Y-80345280D01*
X95209360Y-80439260D01*
X94909640Y-80939640D01*
X94825820Y-81028540D01*
X94825820Y-78277720D01*
X94498160Y-78277720D01*
X94305120Y-78280260D01*
X94211140Y-78305660D01*
X94175580Y-78371700D01*
X94170500Y-78460600D01*
X94188280Y-78623160D01*
X94256860Y-78701900D01*
X94406720Y-78719680D01*
X94523560Y-78714600D01*
X94691200Y-78694280D01*
X94772480Y-78640940D01*
X94800420Y-78524100D01*
X94805500Y-78486000D01*
X94825820Y-78277720D01*
X94825820Y-81028540D01*
X94818200Y-81038700D01*
X94818200Y-80469740D01*
X94818200Y-80246220D01*
X94818200Y-80020160D01*
X94818200Y-79890620D01*
X94818200Y-79664560D01*
X94818200Y-79438500D01*
X94818200Y-79308960D01*
X94818200Y-79085440D01*
X94818200Y-78859380D01*
X94495620Y-78859380D01*
X94170500Y-78859380D01*
X94170500Y-79085440D01*
X94170500Y-79308960D01*
X94495620Y-79308960D01*
X94818200Y-79308960D01*
X94818200Y-79438500D01*
X94495620Y-79438500D01*
X94170500Y-79438500D01*
X94170500Y-79664560D01*
X94170500Y-79890620D01*
X94495620Y-79890620D01*
X94818200Y-79890620D01*
X94818200Y-80020160D01*
X94495620Y-80020160D01*
X94170500Y-80020160D01*
X94170500Y-80246220D01*
X94170500Y-80469740D01*
X94495620Y-80469740D01*
X94818200Y-80469740D01*
X94818200Y-81038700D01*
X94536260Y-81338420D01*
X94107000Y-81625440D01*
X94107000Y-80827880D01*
X94107000Y-78214220D01*
X94107000Y-77886560D01*
X94107000Y-77558900D01*
X93898720Y-77579220D01*
X93771720Y-77599540D01*
X93705680Y-77655420D01*
X93677740Y-77779880D01*
X93667580Y-77906880D01*
X93649800Y-78214220D01*
X93878400Y-78214220D01*
X94107000Y-78214220D01*
X94107000Y-80827880D01*
X94101920Y-80647540D01*
X94068900Y-80563720D01*
X93982540Y-80535780D01*
X93880940Y-80535780D01*
X93741240Y-80540860D01*
X93677740Y-80581500D01*
X93657420Y-80695800D01*
X93657420Y-80827880D01*
X93659960Y-81005680D01*
X93692980Y-81086960D01*
X93779340Y-81114900D01*
X93880940Y-81117440D01*
X94020640Y-81109820D01*
X94086680Y-81069180D01*
X94104460Y-80954880D01*
X94107000Y-80827880D01*
X94107000Y-81625440D01*
X94076520Y-81648300D01*
X93675200Y-81826100D01*
X93527880Y-81869280D01*
X93527880Y-80827880D01*
X93527880Y-78214220D01*
X93527880Y-77891640D01*
X93527880Y-77566520D01*
X93301820Y-77566520D01*
X93075760Y-77566520D01*
X93075760Y-77891640D01*
X93075760Y-78214220D01*
X93301820Y-78214220D01*
X93527880Y-78214220D01*
X93527880Y-80827880D01*
X93520260Y-80647540D01*
X93487240Y-80563720D01*
X93400880Y-80535780D01*
X93301820Y-80535780D01*
X93162120Y-80540860D01*
X93096080Y-80581500D01*
X93075760Y-80695800D01*
X93075760Y-80827880D01*
X93080840Y-81005680D01*
X93113860Y-81086960D01*
X93200220Y-81114900D01*
X93301820Y-81117440D01*
X93438980Y-81109820D01*
X93505020Y-81069180D01*
X93525340Y-80954880D01*
X93527880Y-80827880D01*
X93527880Y-81869280D01*
X93438980Y-81899760D01*
X93228160Y-81940400D01*
X92981780Y-81950560D01*
X92930980Y-81948020D01*
X92930980Y-80827880D01*
X92925900Y-80647540D01*
X92913200Y-80606900D01*
X92913200Y-78000860D01*
X92913200Y-77891640D01*
X92908120Y-77711300D01*
X92872560Y-77622400D01*
X92783660Y-77589380D01*
X92704920Y-77579220D01*
X92496640Y-77558900D01*
X92496640Y-77891640D01*
X92496640Y-78221840D01*
X92704920Y-78198980D01*
X92834460Y-78181200D01*
X92892880Y-78127860D01*
X92913200Y-78000860D01*
X92913200Y-80606900D01*
X92897960Y-80563720D01*
X92811600Y-80535780D01*
X92715080Y-80535780D01*
X92577920Y-80540860D01*
X92514420Y-80584040D01*
X92496640Y-80698340D01*
X92496640Y-80827880D01*
X92499180Y-81005680D01*
X92532200Y-81086960D01*
X92618560Y-81114900D01*
X92710000Y-81117440D01*
X92842080Y-81109820D01*
X92905580Y-81064100D01*
X92925900Y-80949800D01*
X92930980Y-80827880D01*
X92930980Y-81948020D01*
X92699840Y-81942940D01*
X92379800Y-81920080D01*
X92318840Y-81907380D01*
X92318840Y-80957420D01*
X92316300Y-80924400D01*
X92316300Y-77647800D01*
X92273120Y-77609700D01*
X92143580Y-77581760D01*
X92128340Y-77581760D01*
X91920060Y-77558900D01*
X91902280Y-77932280D01*
X91881960Y-78305660D01*
X91848940Y-78303120D01*
X91848940Y-77988160D01*
X91848940Y-77729080D01*
X91818460Y-77696060D01*
X91785440Y-77729080D01*
X91818460Y-77759560D01*
X91848940Y-77729080D01*
X91848940Y-77988160D01*
X91818460Y-77955140D01*
X91785440Y-77988160D01*
X91818460Y-78021180D01*
X91848940Y-77988160D01*
X91848940Y-78303120D01*
X91544140Y-78285340D01*
X91346020Y-78277720D01*
X91244420Y-78295500D01*
X91208860Y-78353920D01*
X91203780Y-78460600D01*
X91213940Y-78585060D01*
X91269820Y-78646020D01*
X91406980Y-78671420D01*
X91478100Y-78676500D01*
X91688920Y-78686660D01*
X91800680Y-78671420D01*
X91843860Y-78618080D01*
X91848940Y-78564740D01*
X91876880Y-78483460D01*
X91897200Y-78478380D01*
X92047060Y-78473300D01*
X92097860Y-78392020D01*
X92087700Y-78341220D01*
X92090240Y-78239620D01*
X92179140Y-78214220D01*
X92260420Y-78188820D01*
X92293440Y-78094840D01*
X92301060Y-77955140D01*
X92303600Y-77777340D01*
X92313760Y-77663040D01*
X92316300Y-77647800D01*
X92316300Y-80924400D01*
X92311220Y-80827880D01*
X92290900Y-80647540D01*
X92247720Y-80561180D01*
X92161360Y-80535780D01*
X92100400Y-80535780D01*
X91986100Y-80543400D01*
X91932760Y-80594200D01*
X91914980Y-80721200D01*
X91914980Y-80827880D01*
X91917520Y-81005680D01*
X91950540Y-81086960D01*
X92036900Y-81114900D01*
X92123260Y-81117440D01*
X92250260Y-81109820D01*
X92308680Y-81069180D01*
X92318840Y-80957420D01*
X92318840Y-81907380D01*
X92138500Y-81879440D01*
X91917520Y-81808320D01*
X91856560Y-81777840D01*
X91856560Y-78859380D01*
X91531440Y-78859380D01*
X91338400Y-78861920D01*
X91241880Y-78887320D01*
X91208860Y-78953360D01*
X91203780Y-79044800D01*
X91221560Y-79176880D01*
X91295220Y-79245460D01*
X91447620Y-79273400D01*
X91617800Y-79270860D01*
X91760040Y-79248000D01*
X91821000Y-79169260D01*
X91836240Y-79062580D01*
X91856560Y-78859380D01*
X91856560Y-81777840D01*
X91818460Y-81762600D01*
X91818460Y-80246220D01*
X91818460Y-79664560D01*
X91808300Y-79547720D01*
X91760040Y-79486760D01*
X91635580Y-79461360D01*
X91511120Y-79451200D01*
X91203780Y-79430880D01*
X91203780Y-79664560D01*
X91203780Y-79898240D01*
X91511120Y-79877920D01*
X91696540Y-79860140D01*
X91785440Y-79824580D01*
X91813380Y-79745840D01*
X91818460Y-79664560D01*
X91818460Y-80246220D01*
X91808300Y-80126840D01*
X91760040Y-80068420D01*
X91635580Y-80040480D01*
X91511120Y-80030320D01*
X91203780Y-80012540D01*
X91203780Y-80246220D01*
X91203780Y-80477360D01*
X91511120Y-80459580D01*
X91696540Y-80441800D01*
X91785440Y-80403700D01*
X91813380Y-80324960D01*
X91818460Y-80246220D01*
X91818460Y-81762600D01*
X91706700Y-81711800D01*
X91480640Y-81589880D01*
X91292680Y-81470500D01*
X91178380Y-81379060D01*
X91107260Y-81313020D01*
X91041220Y-81297780D01*
X90947240Y-81338420D01*
X90947240Y-78646020D01*
X90904060Y-78295500D01*
X90759280Y-77962760D01*
X90512900Y-77670660D01*
X90375740Y-77561440D01*
X90225880Y-77475080D01*
X90063320Y-77426820D01*
X89842340Y-77409040D01*
X89682320Y-77406500D01*
X89428320Y-77411580D01*
X89255600Y-77434440D01*
X89120980Y-77492860D01*
X88981280Y-77594460D01*
X88968580Y-77604620D01*
X88750140Y-77825600D01*
X88572340Y-78099920D01*
X88458040Y-78379320D01*
X88430100Y-78564740D01*
X88458040Y-78826360D01*
X88526620Y-79085440D01*
X88625680Y-79288640D01*
X88671400Y-79347060D01*
X88737440Y-79428340D01*
X88712040Y-79494380D01*
X88618060Y-79568040D01*
X88516460Y-79659480D01*
X88348820Y-79824580D01*
X88140540Y-80037940D01*
X87911940Y-80281780D01*
X87884000Y-80312260D01*
X87307420Y-80939640D01*
X87462360Y-81064100D01*
X87617300Y-81191100D01*
X88041480Y-80751680D01*
X88267540Y-80510380D01*
X88496140Y-80266540D01*
X88686640Y-80053180D01*
X88729820Y-80002380D01*
X88993980Y-79695040D01*
X89225120Y-79794100D01*
X89601040Y-79883000D01*
X89984580Y-79847440D01*
X90157300Y-79791560D01*
X90495120Y-79588360D01*
X90738960Y-79314040D01*
X90891360Y-78994000D01*
X90947240Y-78646020D01*
X90947240Y-81338420D01*
X90944700Y-81340960D01*
X90779600Y-81452720D01*
X90764360Y-81467960D01*
X90291920Y-81729580D01*
X89768680Y-81894680D01*
X89225120Y-81960720D01*
X88694260Y-81922620D01*
X88300560Y-81813400D01*
X87787480Y-81554320D01*
X87355680Y-81206340D01*
X87020400Y-80782160D01*
X86784180Y-80297020D01*
X86654640Y-79768700D01*
X86641940Y-79204820D01*
X86685120Y-78910180D01*
X86796880Y-78491080D01*
X86969600Y-78132940D01*
X87223600Y-77792580D01*
X87340440Y-77663040D01*
X87746840Y-77320140D01*
X88216740Y-77068680D01*
X88724740Y-76921360D01*
X89250520Y-76870560D01*
X89771220Y-76923900D01*
X90269060Y-77078840D01*
X90718640Y-77337920D01*
X90820240Y-77419200D01*
X91008200Y-77576680D01*
X91219020Y-77419200D01*
X91683840Y-77134720D01*
X92202000Y-76954380D01*
X92422980Y-76911200D01*
X92984320Y-76875640D01*
X93525340Y-76964540D01*
X94030800Y-77160120D01*
X94482920Y-77459840D01*
X94866460Y-77858620D01*
X95163640Y-78338680D01*
X95166180Y-78341220D01*
X95257620Y-78544420D01*
X95316040Y-78714600D01*
X95349060Y-78894940D01*
X95361760Y-79121000D01*
X95366840Y-79438500D01*
X95366840Y-79438500D01*
G36*
X90545920Y-78498700D02*
X90528140Y-78793340D01*
X90421460Y-79070200D01*
X90238580Y-79298800D01*
X89994740Y-79451200D01*
X89720420Y-79502000D01*
X89552780Y-79474060D01*
X89359740Y-79402940D01*
X89339420Y-79390240D01*
X89075260Y-79192120D01*
X88910160Y-78940660D01*
X88844120Y-78656180D01*
X88877140Y-78366620D01*
X89014300Y-78099920D01*
X89250520Y-77881480D01*
X89278460Y-77863700D01*
X89552780Y-77769720D01*
X89847420Y-77779880D01*
X90129360Y-77881480D01*
X90360500Y-78064360D01*
X90459560Y-78206600D01*
X90545920Y-78498700D01*
X90545920Y-78498700D01*
X90545920Y-78498700D01*
G37*
X90545920Y-78498700D02*
X90528140Y-78793340D01*
X90421460Y-79070200D01*
X90238580Y-79298800D01*
X89994740Y-79451200D01*
X89720420Y-79502000D01*
X89552780Y-79474060D01*
X89359740Y-79402940D01*
X89339420Y-79390240D01*
X89075260Y-79192120D01*
X88910160Y-78940660D01*
X88844120Y-78656180D01*
X88877140Y-78366620D01*
X89014300Y-78099920D01*
X89250520Y-77881480D01*
X89278460Y-77863700D01*
X89552780Y-77769720D01*
X89847420Y-77779880D01*
X90129360Y-77881480D01*
X90360500Y-78064360D01*
X90459560Y-78206600D01*
X90545920Y-78498700D01*
X90545920Y-78498700D01*
D15*
X62654000Y-72094000D02*
X62654000Y-73194000D01*
X62654000Y-73194000D02*
X64854000Y-73194000D01*
X64854000Y-73194000D02*
X64854000Y-72094000D01*
X64854000Y-72094000D02*
X62704000Y-72094000D01*
X62704000Y-72094000D02*
X62654000Y-72094000D01*
X75017381Y-79501905D02*
X75826905Y-79501905D01*
X75922143Y-79454286D01*
X75969762Y-79406667D01*
X76017381Y-79311429D01*
X76017381Y-79120952D01*
X75969762Y-79025714D01*
X75922143Y-78978095D01*
X75826905Y-78930476D01*
X75017381Y-78930476D01*
X75350714Y-78025714D02*
X76017381Y-78025714D01*
X74969762Y-78263810D02*
X75684048Y-78501905D01*
X75684048Y-77882857D01*
X85752381Y-55824286D02*
X84752381Y-55824286D01*
X84752381Y-55443333D01*
X84800000Y-55348095D01*
X84847619Y-55300476D01*
X84942857Y-55252857D01*
X85085714Y-55252857D01*
X85180952Y-55300476D01*
X85228571Y-55348095D01*
X85276190Y-55443333D01*
X85276190Y-55824286D01*
X84752381Y-54919524D02*
X84752381Y-54300476D01*
X85133333Y-54633810D01*
X85133333Y-54490952D01*
X85180952Y-54395714D01*
X85228571Y-54348095D01*
X85323810Y-54300476D01*
X85561905Y-54300476D01*
X85657143Y-54348095D01*
X85704762Y-54395714D01*
X85752381Y-54490952D01*
X85752381Y-54776667D01*
X85704762Y-54871905D01*
X85657143Y-54919524D01*
X84752381Y-53967143D02*
X84752381Y-53348095D01*
X85133333Y-53681429D01*
X85133333Y-53538571D01*
X85180952Y-53443333D01*
X85228571Y-53395714D01*
X85323810Y-53348095D01*
X85561905Y-53348095D01*
X85657143Y-53395714D01*
X85704762Y-53443333D01*
X85752381Y-53538571D01*
X85752381Y-53824286D01*
X85704762Y-53919524D01*
X85657143Y-53967143D01*
X45972710Y-104674538D02*
X45523698Y-104225526D01*
X45630606Y-104118618D01*
X45716132Y-104075855D01*
X45801658Y-104075855D01*
X45865803Y-104097235D01*
X45972711Y-104161380D01*
X46036856Y-104225525D01*
X46101000Y-104332432D01*
X46122381Y-104396578D01*
X46122381Y-104482104D01*
X46079619Y-104567630D01*
X45972710Y-104674538D01*
X46656921Y-103990328D02*
X46400342Y-104246907D01*
X46528631Y-104118618D02*
X46079619Y-103669605D01*
X46101000Y-103776512D01*
X46101000Y-103862038D01*
X46079618Y-103926183D01*
X49888524Y-108948287D02*
X50595630Y-108241180D01*
X50292585Y-109352348D02*
X50393600Y-108645241D01*
X50999692Y-108645241D02*
X50191569Y-108645241D01*
X129919710Y-105182539D02*
X129470698Y-104733527D01*
X129577606Y-104626619D01*
X129663132Y-104583856D01*
X129748658Y-104583856D01*
X129812803Y-104605236D01*
X129919711Y-104669381D01*
X129983856Y-104733526D01*
X130048000Y-104840433D01*
X130069381Y-104904579D01*
X130069381Y-104990105D01*
X130026619Y-105075631D01*
X129919710Y-105182539D01*
X130133526Y-104070698D02*
X129919710Y-104284514D01*
X130112144Y-104519711D01*
X130112144Y-104476948D01*
X130133527Y-104412803D01*
X130240434Y-104305895D01*
X130304579Y-104284514D01*
X130347342Y-104284514D01*
X130411487Y-104305895D01*
X130518395Y-104412803D01*
X130539776Y-104476948D01*
X130539776Y-104519711D01*
X130518394Y-104583856D01*
X130411487Y-104690763D01*
X130347342Y-104712145D01*
X130304579Y-104712145D01*
X129928687Y-109471076D02*
X129221580Y-108763970D01*
X130332748Y-109067015D02*
X129625641Y-108966000D01*
X129625641Y-108359908D02*
X129625641Y-109168031D01*
X129513461Y-54862710D02*
X129962473Y-54413698D01*
X130069381Y-54520606D01*
X130112144Y-54606132D01*
X130112144Y-54691658D01*
X130090764Y-54755803D01*
X130026619Y-54862711D01*
X129962474Y-54926856D01*
X129855567Y-54991000D01*
X129791421Y-55012381D01*
X129705895Y-55012381D01*
X129620369Y-54969619D01*
X129513461Y-54862710D01*
X130603920Y-55055144D02*
X130518394Y-54969619D01*
X130454250Y-54948237D01*
X130411487Y-54948237D01*
X130304579Y-54969618D01*
X130197670Y-55033763D01*
X130026618Y-55204816D01*
X130005236Y-55268960D01*
X130005237Y-55311724D01*
X130026619Y-55375868D01*
X130112144Y-55461394D01*
X130176289Y-55482776D01*
X130219052Y-55482776D01*
X130283197Y-55461395D01*
X130390105Y-55354487D01*
X130411486Y-55290342D01*
X130411486Y-55247579D01*
X130390105Y-55183434D01*
X130304579Y-55097908D01*
X130240434Y-55076527D01*
X130197670Y-55076526D01*
X130133526Y-55097907D01*
X129161924Y-51188687D02*
X129869030Y-50481580D01*
X129565985Y-51592748D02*
X129667000Y-50885641D01*
X130273092Y-50885641D02*
X129464969Y-50885641D01*
X50392461Y-50925710D02*
X50841473Y-50476698D01*
X50948381Y-50583606D01*
X50991144Y-50669132D01*
X50991144Y-50754658D01*
X50969764Y-50818803D01*
X50905619Y-50925711D01*
X50841474Y-50989856D01*
X50734567Y-51054000D01*
X50670421Y-51075381D01*
X50584895Y-51075381D01*
X50499369Y-51032619D01*
X50392461Y-50925710D01*
X51226342Y-50947092D02*
X51269105Y-50947092D01*
X51333250Y-50968474D01*
X51440157Y-51075381D01*
X51461539Y-51139526D01*
X51461539Y-51182289D01*
X51440158Y-51246434D01*
X51397395Y-51289197D01*
X51311868Y-51331960D01*
X50798710Y-51331960D01*
X51076671Y-51609921D01*
X46108687Y-55750076D02*
X45401580Y-55042970D01*
X46512748Y-55346015D02*
X45805641Y-55245000D01*
X45805641Y-54638908D02*
X45805641Y-55447031D01*
X68705790Y-57513462D02*
X68705790Y-58027510D01*
X68736029Y-58087986D01*
X68766267Y-58118224D01*
X68826743Y-58148462D01*
X68947695Y-58148462D01*
X69008171Y-58118224D01*
X69038410Y-58087986D01*
X69068648Y-58027510D01*
X69068648Y-57513462D01*
X69310552Y-57513462D02*
X69703648Y-57513462D01*
X69491981Y-57755367D01*
X69582695Y-57755367D01*
X69643171Y-57785605D01*
X69673409Y-57815843D01*
X69703648Y-57876319D01*
X69703648Y-58027510D01*
X69673409Y-58087986D01*
X69643171Y-58118224D01*
X69582695Y-58148462D01*
X69401267Y-58148462D01*
X69340790Y-58118224D01*
X69310552Y-58087986D01*
X84222167Y-53058786D02*
X84191929Y-53089024D01*
X84101214Y-53119262D01*
X84040738Y-53119262D01*
X83950024Y-53089024D01*
X83889548Y-53028548D01*
X83859309Y-52968071D01*
X83829071Y-52847119D01*
X83829071Y-52756405D01*
X83859309Y-52635452D01*
X83889548Y-52574976D01*
X83950024Y-52514500D01*
X84040738Y-52484262D01*
X84101214Y-52484262D01*
X84191929Y-52514500D01*
X84222167Y-52544738D01*
X84826929Y-53119262D02*
X84464071Y-53119262D01*
X84645500Y-53119262D02*
X84645500Y-52484262D01*
X84585024Y-52574976D01*
X84524548Y-52635452D01*
X84464071Y-52665690D01*
X64537167Y-64615786D02*
X64506929Y-64646024D01*
X64416214Y-64676262D01*
X64355738Y-64676262D01*
X64265024Y-64646024D01*
X64204548Y-64585548D01*
X64174309Y-64525071D01*
X64144071Y-64404119D01*
X64144071Y-64313405D01*
X64174309Y-64192452D01*
X64204548Y-64131976D01*
X64265024Y-64071500D01*
X64355738Y-64041262D01*
X64416214Y-64041262D01*
X64506929Y-64071500D01*
X64537167Y-64101738D01*
X64779071Y-64101738D02*
X64809309Y-64071500D01*
X64869786Y-64041262D01*
X65020976Y-64041262D01*
X65081452Y-64071500D01*
X65111690Y-64101738D01*
X65141929Y-64162214D01*
X65141929Y-64222690D01*
X65111690Y-64313405D01*
X64748833Y-64676262D01*
X65141929Y-64676262D01*
X64410167Y-59916786D02*
X64379929Y-59947024D01*
X64289214Y-59977262D01*
X64228738Y-59977262D01*
X64138024Y-59947024D01*
X64077548Y-59886548D01*
X64047309Y-59826071D01*
X64017071Y-59705119D01*
X64017071Y-59614405D01*
X64047309Y-59493452D01*
X64077548Y-59432976D01*
X64138024Y-59372500D01*
X64228738Y-59342262D01*
X64289214Y-59342262D01*
X64379929Y-59372500D01*
X64410167Y-59402738D01*
X64621833Y-59342262D02*
X65014929Y-59342262D01*
X64803262Y-59584167D01*
X64893976Y-59584167D01*
X64954452Y-59614405D01*
X64984690Y-59644643D01*
X65014929Y-59705119D01*
X65014929Y-59856310D01*
X64984690Y-59916786D01*
X64954452Y-59947024D01*
X64893976Y-59977262D01*
X64712548Y-59977262D01*
X64652071Y-59947024D01*
X64621833Y-59916786D01*
X80031167Y-57691262D02*
X79819500Y-57388881D01*
X79668309Y-57691262D02*
X79668309Y-57056262D01*
X79910214Y-57056262D01*
X79970690Y-57086500D01*
X80000929Y-57116738D01*
X80031167Y-57177214D01*
X80031167Y-57267929D01*
X80000929Y-57328405D01*
X79970690Y-57358643D01*
X79910214Y-57388881D01*
X79668309Y-57388881D01*
X80635929Y-57691262D02*
X80273071Y-57691262D01*
X80454500Y-57691262D02*
X80454500Y-57056262D01*
X80394024Y-57146976D01*
X80333548Y-57207452D01*
X80273071Y-57237690D01*
X73173167Y-57437262D02*
X72961500Y-57134881D01*
X72810309Y-57437262D02*
X72810309Y-56802262D01*
X73052214Y-56802262D01*
X73112690Y-56832500D01*
X73142929Y-56862738D01*
X73173167Y-56923214D01*
X73173167Y-57013929D01*
X73142929Y-57074405D01*
X73112690Y-57104643D01*
X73052214Y-57134881D01*
X72810309Y-57134881D01*
X73415071Y-56862738D02*
X73445309Y-56832500D01*
X73505786Y-56802262D01*
X73656976Y-56802262D01*
X73717452Y-56832500D01*
X73747690Y-56862738D01*
X73777929Y-56923214D01*
X73777929Y-56983690D01*
X73747690Y-57074405D01*
X73384833Y-57437262D01*
X73777929Y-57437262D01*
X65934167Y-73566262D02*
X65722500Y-73263881D01*
X65571309Y-73566262D02*
X65571309Y-72931262D01*
X65813214Y-72931262D01*
X65873690Y-72961500D01*
X65903929Y-72991738D01*
X65934167Y-73052214D01*
X65934167Y-73142929D01*
X65903929Y-73203405D01*
X65873690Y-73233643D01*
X65813214Y-73263881D01*
X65571309Y-73263881D01*
X66145833Y-72931262D02*
X66538929Y-72931262D01*
X66327262Y-73173167D01*
X66417976Y-73173167D01*
X66478452Y-73203405D01*
X66508690Y-73233643D01*
X66538929Y-73294119D01*
X66538929Y-73445310D01*
X66508690Y-73505786D01*
X66478452Y-73536024D01*
X66417976Y-73566262D01*
X66236548Y-73566262D01*
X66176071Y-73536024D01*
X66145833Y-73505786D01*
X79523167Y-58961262D02*
X79311500Y-58658881D01*
X79160309Y-58961262D02*
X79160309Y-58326262D01*
X79402214Y-58326262D01*
X79462690Y-58356500D01*
X79492929Y-58386738D01*
X79523167Y-58447214D01*
X79523167Y-58537929D01*
X79492929Y-58598405D01*
X79462690Y-58628643D01*
X79402214Y-58658881D01*
X79160309Y-58658881D01*
X80067452Y-58537929D02*
X80067452Y-58961262D01*
X79916262Y-58296024D02*
X79765071Y-58749595D01*
X80158167Y-58749595D01*
X72182567Y-75115662D02*
X71970900Y-74813281D01*
X71819709Y-75115662D02*
X71819709Y-74480662D01*
X72061614Y-74480662D01*
X72122090Y-74510900D01*
X72152329Y-74541138D01*
X72182567Y-74601614D01*
X72182567Y-74692329D01*
X72152329Y-74752805D01*
X72122090Y-74783043D01*
X72061614Y-74813281D01*
X71819709Y-74813281D01*
X72757090Y-74480662D02*
X72454709Y-74480662D01*
X72424471Y-74783043D01*
X72454709Y-74752805D01*
X72515186Y-74722567D01*
X72666376Y-74722567D01*
X72726852Y-74752805D01*
X72757090Y-74783043D01*
X72787329Y-74843519D01*
X72787329Y-74994710D01*
X72757090Y-75055186D01*
X72726852Y-75085424D01*
X72666376Y-75115662D01*
X72515186Y-75115662D01*
X72454709Y-75085424D01*
X72424471Y-75055186D01*
X79777167Y-64168262D02*
X79565500Y-63865881D01*
X79414309Y-64168262D02*
X79414309Y-63533262D01*
X79656214Y-63533262D01*
X79716690Y-63563500D01*
X79746929Y-63593738D01*
X79777167Y-63654214D01*
X79777167Y-63744929D01*
X79746929Y-63805405D01*
X79716690Y-63835643D01*
X79656214Y-63865881D01*
X79414309Y-63865881D01*
X80321452Y-63533262D02*
X80200500Y-63533262D01*
X80140024Y-63563500D01*
X80109786Y-63593738D01*
X80049309Y-63684452D01*
X80019071Y-63805405D01*
X80019071Y-64047310D01*
X80049309Y-64107786D01*
X80079548Y-64138024D01*
X80140024Y-64168262D01*
X80260976Y-64168262D01*
X80321452Y-64138024D01*
X80351690Y-64107786D01*
X80381929Y-64047310D01*
X80381929Y-63896119D01*
X80351690Y-63835643D01*
X80321452Y-63805405D01*
X80260976Y-63775167D01*
X80140024Y-63775167D01*
X80079548Y-63805405D01*
X80049309Y-63835643D01*
X80019071Y-63896119D01*
X66061167Y-71153262D02*
X65849500Y-70850881D01*
X65698309Y-71153262D02*
X65698309Y-70518262D01*
X65940214Y-70518262D01*
X66000690Y-70548500D01*
X66030929Y-70578738D01*
X66061167Y-70639214D01*
X66061167Y-70729929D01*
X66030929Y-70790405D01*
X66000690Y-70820643D01*
X65940214Y-70850881D01*
X65698309Y-70850881D01*
X66272833Y-70518262D02*
X66696167Y-70518262D01*
X66424024Y-71153262D01*
X81555167Y-53119262D02*
X81343500Y-52816881D01*
X81192309Y-53119262D02*
X81192309Y-52484262D01*
X81434214Y-52484262D01*
X81494690Y-52514500D01*
X81524929Y-52544738D01*
X81555167Y-52605214D01*
X81555167Y-52695929D01*
X81524929Y-52756405D01*
X81494690Y-52786643D01*
X81434214Y-52816881D01*
X81192309Y-52816881D01*
X81918024Y-52756405D02*
X81857548Y-52726167D01*
X81827309Y-52695929D01*
X81797071Y-52635452D01*
X81797071Y-52605214D01*
X81827309Y-52544738D01*
X81857548Y-52514500D01*
X81918024Y-52484262D01*
X82038976Y-52484262D01*
X82099452Y-52514500D01*
X82129690Y-52544738D01*
X82159929Y-52605214D01*
X82159929Y-52635452D01*
X82129690Y-52695929D01*
X82099452Y-52726167D01*
X82038976Y-52756405D01*
X81918024Y-52756405D01*
X81857548Y-52786643D01*
X81827309Y-52816881D01*
X81797071Y-52877357D01*
X81797071Y-52998310D01*
X81827309Y-53058786D01*
X81857548Y-53089024D01*
X81918024Y-53119262D01*
X82038976Y-53119262D01*
X82099452Y-53089024D01*
X82129690Y-53058786D01*
X82159929Y-52998310D01*
X82159929Y-52877357D01*
X82129690Y-52816881D01*
X82099452Y-52786643D01*
X82038976Y-52756405D01*
X73173167Y-67851262D02*
X72961500Y-67548881D01*
X72810309Y-67851262D02*
X72810309Y-67216262D01*
X73052214Y-67216262D01*
X73112690Y-67246500D01*
X73142929Y-67276738D01*
X73173167Y-67337214D01*
X73173167Y-67427929D01*
X73142929Y-67488405D01*
X73112690Y-67518643D01*
X73052214Y-67548881D01*
X72810309Y-67548881D01*
X73475548Y-67851262D02*
X73596500Y-67851262D01*
X73656976Y-67821024D01*
X73687214Y-67790786D01*
X73747690Y-67700071D01*
X73777929Y-67579119D01*
X73777929Y-67337214D01*
X73747690Y-67276738D01*
X73717452Y-67246500D01*
X73656976Y-67216262D01*
X73536024Y-67216262D01*
X73475548Y-67246500D01*
X73445309Y-67276738D01*
X73415071Y-67337214D01*
X73415071Y-67488405D01*
X73445309Y-67548881D01*
X73475548Y-67579119D01*
X73536024Y-67609357D01*
X73656976Y-67609357D01*
X73717452Y-67579119D01*
X73747690Y-67548881D01*
X73777929Y-67488405D01*
X70584786Y-67851262D02*
X70373119Y-67548881D01*
X70221928Y-67851262D02*
X70221928Y-67216262D01*
X70463833Y-67216262D01*
X70524309Y-67246500D01*
X70554548Y-67276738D01*
X70584786Y-67337214D01*
X70584786Y-67427929D01*
X70554548Y-67488405D01*
X70524309Y-67518643D01*
X70463833Y-67548881D01*
X70221928Y-67548881D01*
X71189548Y-67851262D02*
X70826690Y-67851262D01*
X71008119Y-67851262D02*
X71008119Y-67216262D01*
X70947643Y-67306976D01*
X70887167Y-67367452D01*
X70826690Y-67397690D01*
X71582643Y-67216262D02*
X71643119Y-67216262D01*
X71703595Y-67246500D01*
X71733833Y-67276738D01*
X71764071Y-67337214D01*
X71794310Y-67458167D01*
X71794310Y-67609357D01*
X71764071Y-67730310D01*
X71733833Y-67790786D01*
X71703595Y-67821024D01*
X71643119Y-67851262D01*
X71582643Y-67851262D01*
X71522167Y-67821024D01*
X71491929Y-67790786D01*
X71461690Y-67730310D01*
X71431452Y-67609357D01*
X71431452Y-67458167D01*
X71461690Y-67337214D01*
X71491929Y-67276738D01*
X71522167Y-67246500D01*
X71582643Y-67216262D01*
X67917786Y-67851262D02*
X67706119Y-67548881D01*
X67554928Y-67851262D02*
X67554928Y-67216262D01*
X67796833Y-67216262D01*
X67857309Y-67246500D01*
X67887548Y-67276738D01*
X67917786Y-67337214D01*
X67917786Y-67427929D01*
X67887548Y-67488405D01*
X67857309Y-67518643D01*
X67796833Y-67548881D01*
X67554928Y-67548881D01*
X68522548Y-67851262D02*
X68159690Y-67851262D01*
X68341119Y-67851262D02*
X68341119Y-67216262D01*
X68280643Y-67306976D01*
X68220167Y-67367452D01*
X68159690Y-67397690D01*
X69127310Y-67851262D02*
X68764452Y-67851262D01*
X68945881Y-67851262D02*
X68945881Y-67216262D01*
X68885405Y-67306976D01*
X68824929Y-67367452D01*
X68764452Y-67397690D01*
X72997786Y-62898262D02*
X72786119Y-62595881D01*
X72634928Y-62898262D02*
X72634928Y-62263262D01*
X72876833Y-62263262D01*
X72937309Y-62293500D01*
X72967548Y-62323738D01*
X72997786Y-62384214D01*
X72997786Y-62474929D01*
X72967548Y-62535405D01*
X72937309Y-62565643D01*
X72876833Y-62595881D01*
X72634928Y-62595881D01*
X73602548Y-62898262D02*
X73239690Y-62898262D01*
X73421119Y-62898262D02*
X73421119Y-62263262D01*
X73360643Y-62353976D01*
X73300167Y-62414452D01*
X73239690Y-62444690D01*
X73844452Y-62323738D02*
X73874690Y-62293500D01*
X73935167Y-62263262D01*
X74086357Y-62263262D01*
X74146833Y-62293500D01*
X74177071Y-62323738D01*
X74207310Y-62384214D01*
X74207310Y-62444690D01*
X74177071Y-62535405D01*
X73814214Y-62898262D01*
X74207310Y-62898262D01*
X70584786Y-62898262D02*
X70373119Y-62595881D01*
X70221928Y-62898262D02*
X70221928Y-62263262D01*
X70463833Y-62263262D01*
X70524309Y-62293500D01*
X70554548Y-62323738D01*
X70584786Y-62384214D01*
X70584786Y-62474929D01*
X70554548Y-62535405D01*
X70524309Y-62565643D01*
X70463833Y-62595881D01*
X70221928Y-62595881D01*
X71189548Y-62898262D02*
X70826690Y-62898262D01*
X71008119Y-62898262D02*
X71008119Y-62263262D01*
X70947643Y-62353976D01*
X70887167Y-62414452D01*
X70826690Y-62444690D01*
X71401214Y-62263262D02*
X71794310Y-62263262D01*
X71582643Y-62505167D01*
X71673357Y-62505167D01*
X71733833Y-62535405D01*
X71764071Y-62565643D01*
X71794310Y-62626119D01*
X71794310Y-62777310D01*
X71764071Y-62837786D01*
X71733833Y-62868024D01*
X71673357Y-62898262D01*
X71491929Y-62898262D01*
X71431452Y-62868024D01*
X71401214Y-62837786D01*
X67917786Y-62898262D02*
X67706119Y-62595881D01*
X67554928Y-62898262D02*
X67554928Y-62263262D01*
X67796833Y-62263262D01*
X67857309Y-62293500D01*
X67887548Y-62323738D01*
X67917786Y-62384214D01*
X67917786Y-62474929D01*
X67887548Y-62535405D01*
X67857309Y-62565643D01*
X67796833Y-62595881D01*
X67554928Y-62595881D01*
X68522548Y-62898262D02*
X68159690Y-62898262D01*
X68341119Y-62898262D02*
X68341119Y-62263262D01*
X68280643Y-62353976D01*
X68220167Y-62414452D01*
X68159690Y-62444690D01*
X69066833Y-62474929D02*
X69066833Y-62898262D01*
X68915643Y-62233024D02*
X68764452Y-62686595D01*
X69157548Y-62686595D01*
X65377786Y-75471262D02*
X65166119Y-75168881D01*
X65014928Y-75471262D02*
X65014928Y-74836262D01*
X65256833Y-74836262D01*
X65317309Y-74866500D01*
X65347548Y-74896738D01*
X65377786Y-74957214D01*
X65377786Y-75047929D01*
X65347548Y-75108405D01*
X65317309Y-75138643D01*
X65256833Y-75168881D01*
X65014928Y-75168881D01*
X65619690Y-74896738D02*
X65649928Y-74866500D01*
X65710405Y-74836262D01*
X65861595Y-74836262D01*
X65922071Y-74866500D01*
X65952309Y-74896738D01*
X65982548Y-74957214D01*
X65982548Y-75017690D01*
X65952309Y-75108405D01*
X65589452Y-75471262D01*
X65982548Y-75471262D01*
X66375643Y-74836262D02*
X66436119Y-74836262D01*
X66496595Y-74866500D01*
X66526833Y-74896738D01*
X66557071Y-74957214D01*
X66587310Y-75078167D01*
X66587310Y-75229357D01*
X66557071Y-75350310D01*
X66526833Y-75410786D01*
X66496595Y-75441024D01*
X66436119Y-75471262D01*
X66375643Y-75471262D01*
X66315167Y-75441024D01*
X66284929Y-75410786D01*
X66254690Y-75350310D01*
X66224452Y-75229357D01*
X66224452Y-75078167D01*
X66254690Y-74957214D01*
X66284929Y-74896738D01*
X66315167Y-74866500D01*
X66375643Y-74836262D01*
X79728786Y-60993262D02*
X79517119Y-60690881D01*
X79365928Y-60993262D02*
X79365928Y-60358262D01*
X79607833Y-60358262D01*
X79668309Y-60388500D01*
X79698548Y-60418738D01*
X79728786Y-60479214D01*
X79728786Y-60569929D01*
X79698548Y-60630405D01*
X79668309Y-60660643D01*
X79607833Y-60690881D01*
X79365928Y-60690881D01*
X79970690Y-60418738D02*
X80000928Y-60388500D01*
X80061405Y-60358262D01*
X80212595Y-60358262D01*
X80273071Y-60388500D01*
X80303309Y-60418738D01*
X80333548Y-60479214D01*
X80333548Y-60539690D01*
X80303309Y-60630405D01*
X79940452Y-60993262D01*
X80333548Y-60993262D01*
X80938310Y-60993262D02*
X80575452Y-60993262D01*
X80756881Y-60993262D02*
X80756881Y-60358262D01*
X80696405Y-60448976D01*
X80635929Y-60509452D01*
X80575452Y-60539690D01*
X76269548Y-57335662D02*
X76057881Y-57033281D01*
X75906690Y-57335662D02*
X75906690Y-56700662D01*
X76148595Y-56700662D01*
X76209071Y-56730900D01*
X76239310Y-56761138D01*
X76269548Y-56821614D01*
X76269548Y-56912329D01*
X76239310Y-56972805D01*
X76209071Y-57003043D01*
X76148595Y-57033281D01*
X75906690Y-57033281D01*
X76541690Y-57335662D02*
X76541690Y-56700662D01*
X76541690Y-57003043D02*
X76904548Y-57003043D01*
X76904548Y-57335662D02*
X76904548Y-56700662D01*
X77539548Y-57335662D02*
X77176690Y-57335662D01*
X77358119Y-57335662D02*
X77358119Y-56700662D01*
X77297643Y-56791376D01*
X77237167Y-56851852D01*
X77176690Y-56882090D01*
X72362786Y-51722262D02*
X72151119Y-51419881D01*
X71999928Y-51722262D02*
X71999928Y-51087262D01*
X72241833Y-51087262D01*
X72302309Y-51117500D01*
X72332548Y-51147738D01*
X72362786Y-51208214D01*
X72362786Y-51298929D01*
X72332548Y-51359405D01*
X72302309Y-51389643D01*
X72241833Y-51419881D01*
X71999928Y-51419881D01*
X72604690Y-51147738D02*
X72634928Y-51117500D01*
X72695405Y-51087262D01*
X72846595Y-51087262D01*
X72907071Y-51117500D01*
X72937309Y-51147738D01*
X72967548Y-51208214D01*
X72967548Y-51268690D01*
X72937309Y-51359405D01*
X72574452Y-51722262D01*
X72967548Y-51722262D01*
X73209452Y-51147738D02*
X73239690Y-51117500D01*
X73300167Y-51087262D01*
X73451357Y-51087262D01*
X73511833Y-51117500D01*
X73542071Y-51147738D01*
X73572310Y-51208214D01*
X73572310Y-51268690D01*
X73542071Y-51359405D01*
X73179214Y-51722262D01*
X73572310Y-51722262D01*
X61788524Y-72991738D02*
X61728048Y-72961500D01*
X61667571Y-72901024D01*
X61576857Y-72810310D01*
X61516381Y-72780071D01*
X61455905Y-72780071D01*
X61486143Y-72931262D02*
X61425667Y-72901024D01*
X61365190Y-72840548D01*
X61334952Y-72719595D01*
X61334952Y-72507929D01*
X61365190Y-72386976D01*
X61425667Y-72326500D01*
X61486143Y-72296262D01*
X61607095Y-72296262D01*
X61667571Y-72326500D01*
X61728048Y-72386976D01*
X61758286Y-72507929D01*
X61758286Y-72719595D01*
X61728048Y-72840548D01*
X61667571Y-72901024D01*
X61607095Y-72931262D01*
X61486143Y-72931262D01*
X62363048Y-72931262D02*
X62000190Y-72931262D01*
X62181619Y-72931262D02*
X62181619Y-72296262D01*
X62121143Y-72386976D01*
X62060667Y-72447452D01*
X62000190Y-72477690D01*
M02*
